<?xml version="1.0" encoding="utf-8"?>
<!-- Generator: Adobe Illustrator 26.0.1, SVG Export Plug-In . SVG Version: 6.00 Build 0)  -->
<svg version="1.1" id="Layer_1" xmlns="http://www.w3.org/2000/svg" xmlns:xlink="http://www.w3.org/1999/xlink" x="0px" y="0px"
	 viewBox="0 0 398.443 143.389" style="enable-background:new 0 0 398.443 143.389;" xml:space="preserve">
<style type="text/css">
	.st0{fill-rule:evenodd;clip-rule:evenodd;fill:#494B52;}
	.st1{fill:#2393C9;}
</style>
<g id="Logo">
	<path class="st0" d="M0,110.125h8.078V90.768h17.76v-6.862H8.078V72.554h20v-6.861H0V110.125z M52,103.713
		c-0.771,0.166-1.553,0.273-2.34,0.321c-1.048,0.086-2.042,0.129-2.981,0.129c-2.608,0-4.435-0.769-5.482-2.308
		c-1.047-1.539-1.57-4.103-1.571-7.694V76.592h-7.757v18.787c-0.021,2.104,0.214,4.203,0.7,6.251
		c0.415,1.786,1.214,3.46,2.341,4.905c1.159,1.419,2.659,2.522,4.359,3.206c2.156,0.829,4.455,1.221,6.764,1.153
		c2.641,0.017,5.28-0.186,7.887-0.608c2.393-0.406,4.337-0.802,5.834-1.187V76.592h-7.757L52,103.713z M83.993,76.24
		c-0.684-0.106-1.368-0.191-2.052-0.256s-1.284-0.098-1.8-0.1c-2.509-0.023-5.013,0.224-7.469,0.737
		c-1.904,0.396-3.778,0.92-5.61,1.571v31.929h7.758v-26.86c0.663-0.192,1.338-0.342,2.02-0.449c0.899-0.165,1.81-0.25,2.724-0.256
		c1.323-0.016,2.644,0.102,3.943,0.353c0.899,0.174,1.787,0.399,2.661,0.672l1.346-6.539c-0.384-0.128-0.897-0.267-1.538-0.417
		c-0.641-0.15-1.303-0.278-1.986-0.385L83.993,76.24z M106.368,75.888c-2.385-0.039-4.756,0.374-6.987,1.218
		c-1.961,0.754-3.742,1.912-5.226,3.4c-1.458,1.495-2.574,3.289-3.27,5.258c-0.768,2.16-1.15,4.438-1.128,6.73
		c-0.042,2.341,0.316,4.672,1.058,6.892c0.621,1.846,1.626,3.54,2.949,4.969c1.272,1.333,2.828,2.363,4.552,3.013
		c1.875,0.702,3.865,1.05,5.867,1.026c1.463,0.022,2.922-0.172,4.328-0.577c1.045-0.301,2.063-0.685,3.046-1.149v1.282
		c0.155,2.095-0.565,4.161-1.988,5.706c-1.325,1.283-3.547,1.925-6.667,1.924c-1.84,0.012-3.676-0.16-5.482-0.513
		c-1.547-0.3-3.061-0.751-4.52-1.347l-1.41,6.605c1.724,0.591,3.492,1.041,5.289,1.346c1.981,0.344,3.989,0.516,6,0.512
		c5.6,0,9.756-1.239,12.469-3.718c2.713-2.479,4.07-6.39,4.071-11.734V77.683c-1.582-0.427-3.505-0.833-5.77-1.218
		c-2.374-0.394-4.777-0.587-7.184-0.577L106.368,75.888z M111.562,100.251c-0.822,0.536-1.719,0.947-2.661,1.219
		c-1.132,0.348-2.31,0.521-3.494,0.512c-2.09,0.073-4.11-0.756-5.546-2.275c-1.433-1.517-2.148-3.921-2.147-7.213
		c-0.127-2.634,0.666-5.23,2.244-7.343c1.594-1.904,3.997-2.938,6.475-2.788c1.028-0.011,2.056,0.043,3.078,0.161
		c0.812,0.107,1.496,0.224,2.051,0.353V100.251z M152.465,80.568c-1.42-1.544-3.16-2.759-5.1-3.558
		c-2.063-0.849-4.276-1.274-6.507-1.251c-2.221-0.026-4.424,0.4-6.476,1.251c-1.934,0.809-3.673,2.022-5.1,3.558
		c-1.474,1.605-2.608,3.492-3.335,5.546c-0.818,2.316-1.219,4.758-1.186,7.213c-0.028,2.465,0.377,4.916,1.196,7.241
		c0.718,2.06,1.84,3.957,3.3,5.578c1.415,1.543,3.142,2.767,5.066,3.591c2.067,0.875,4.294,1.312,6.539,1.282
		c2.255,0.027,4.492-0.409,6.572-1.282c1.937-0.818,3.677-2.043,5.1-3.591c1.455-1.619,2.566-3.516,3.265-5.578
		c0.793-2.332,1.184-4.782,1.154-7.245c0.032-2.455-0.369-4.897-1.187-7.213C155.04,84.064,153.919,82.181,152.465,80.568z
		 M146.857,101.341c-2.55,3.311-7.3,3.928-10.611,1.378c-0.517-0.398-0.98-0.861-1.378-1.378c-1.55-2.375-2.302-5.182-2.149-8.014
		c-0.152-2.802,0.602-5.577,2.149-7.918c2.596-3.311,7.385-3.89,10.696-1.293c0.482,0.378,0.916,0.812,1.293,1.293
		c1.546,2.341,2.299,5.117,2.148,7.918C149.158,96.159,148.406,98.966,146.857,101.341z M187.44,80.151
		c-1.171-1.405-2.683-2.487-4.391-3.141c-2.194-0.809-4.523-1.19-6.86-1.122c-2.661-0.018-5.319,0.175-7.95,0.577
		c-1.967,0.294-3.915,0.701-5.835,1.218v32.442h7.753V83.068c0.513-0.084,1.304-0.191,2.373-0.32
		c1.021-0.125,2.048-0.189,3.077-0.192c1.146-0.03,2.288,0.155,3.366,0.545c0.888,0.338,1.649,0.943,2.18,1.73
		c0.59,0.937,0.983,1.984,1.155,3.078c0.255,1.515,0.373,3.049,0.352,4.585v17.631h7.758V91.276
		c0.018-2.103-0.208-4.201-0.673-6.252c-0.389-1.779-1.179-3.445-2.308-4.873L187.44,80.151z M212.349,75.759
		c-1.977,0.003-3.936,0.384-5.77,1.123c-1.882,0.748-3.586,1.883-5,3.333c-1.53,1.593-2.721,3.48-3.5,5.547
		c-0.921,2.481-1.366,5.112-1.313,7.758c-0.025,2.358,0.321,4.705,1.024,6.956c0.642,2.041,1.713,3.921,3.142,5.514
		c1.492,1.615,3.335,2.865,5.387,3.654c2.457,0.926,5.068,1.372,7.693,1.315c1.136,0.001,2.271-0.064,3.4-0.193
		c1.112-0.128,2.149-0.288,3.111-0.48c0.865-0.169,1.721-0.383,2.563-0.642c0.604-0.179,1.194-0.404,1.764-0.673l-1.027-6.348
		c-1.193,0.474-2.427,0.839-3.686,1.09c-1.697,0.356-3.427,0.528-5.161,0.513c-3.205,0-5.652-0.737-7.341-2.212
		c-1.755-1.614-2.784-3.868-2.854-6.251h22.12c0.041-0.427,0.075-0.907,0.1-1.442s0.036-1.015,0.031-1.442
		c0-5.685-1.293-9.96-3.878-12.823c-2.585-2.863-6.188-4.296-10.808-4.297L212.349,75.759z M204.849,90.059
		c0.129-0.985,0.366-1.953,0.706-2.887c0.327-0.913,0.816-1.76,1.443-2.5c0.631-0.736,1.406-1.335,2.276-1.762
		c0.98-0.467,2.056-0.698,3.141-0.674c1.028-0.027,2.048,0.182,2.982,0.61c0.819,0.394,1.541,0.963,2.116,1.666
		c0.595,0.741,1.041,1.59,1.314,2.5c0.303,0.987,0.454,2.014,0.449,3.047H204.849z M249.441,103.779
		c-1.225,0.315-2.486,0.466-3.75,0.448c-2.052,0-3.505-0.577-4.36-1.731c-0.855-1.154-1.282-3.077-1.282-5.77V83.068h11.925v-6.476
		h-11.93V66.468l-7.757,1.282v29.044c-0.024,1.992,0.169,3.981,0.576,5.931c0.326,1.604,1.005,3.114,1.988,4.423
		c0.995,1.259,2.313,2.223,3.814,2.79c1.922,0.695,3.957,1.021,6,0.961c1.729,0.029,3.454-0.176,5.129-0.608
		c1.2-0.32,2.378-0.716,3.527-1.187l-1.283-6.155c-0.852,0.323-1.72,0.6-2.602,0.829L249.441,103.779z M281.288,100.252
		c-1.322-1.709-2.687-3.323-4.094-4.84c-1.261-1.376-2.607-2.672-4.03-3.88c2.388-2.436,4.765-4.936,7.132-7.5
		c2.367-2.564,4.616-5.043,6.748-7.438h-9.167c-0.684,0.814-1.507,1.765-2.469,2.854c-0.962,1.089-1.977,2.222-3.045,3.4
		c-1.067,1.175-2.157,2.35-3.271,3.525c-1.114,1.175-2.161,2.275-3.14,3.3V60.368l-7.759,1.282v48.471h7.759V94.738
		c1.254,0.944,2.433,1.983,3.526,3.109c1.195,1.218,2.371,2.511,3.526,3.879s2.234,2.779,3.237,4.232
		c1.004,1.454,1.891,2.843,2.661,4.167h8.976c-0.876-1.631-1.836-3.214-2.878-4.744c-1.157-1.709-2.396-3.419-3.717-5.13
		L281.288,100.252z M316.312,83.614c-0.402-1.559-1.171-2.999-2.243-4.2c-1.16-1.227-2.601-2.151-4.2-2.693
		c-2.087-0.693-4.278-1.019-6.476-0.962c-2.02-0.01-4.037,0.162-6.027,0.513c-1.454,0.239-2.89,0.582-4.295,1.027l0.962,6.282
		c1.19-0.405,2.412-0.706,3.654-0.9c1.632-0.266,3.283-0.395,4.937-0.384c1.122-0.033,2.241,0.141,3.3,0.513
		c0.813,0.3,1.54,0.795,2.116,1.442c0.533,0.621,0.917,1.356,1.123,2.148c0.216,0.838,0.324,1.7,0.32,2.565v1.282
		c-0.993-0.242-1.999-0.424-3.014-0.544c-0.894-0.104-1.792-0.158-2.692-0.161c-1.778-0.006-3.551,0.177-5.29,0.546
		c-1.583,0.32-3.093,0.928-4.456,1.794c-1.265,0.814-2.311,1.926-3.046,3.239c-0.79,1.499-1.176,3.178-1.122,4.872
		c-0.054,1.742,0.286,3.473,0.994,5.065c0.627,1.324,1.574,2.47,2.757,3.334c1.281,0.902,2.732,1.534,4.264,1.86
		c1.81,0.399,3.659,0.593,5.513,0.576c2.735,0.02,5.467-0.162,8.175-0.544c2.415-0.363,4.221-0.673,5.418-0.93V89.031
		c0.016-1.828-0.211-3.65-0.677-5.418L316.312,83.614z M309.485,104.292c-1.8,0.3-3.625,0.428-5.45,0.385
		c-1.628,0.081-3.247-0.285-4.681-1.059c-1.154-0.705-1.731-1.977-1.73-3.814c-0.031-0.827,0.192-1.645,0.64-2.341
		c0.431-0.621,1.017-1.119,1.7-1.442c0.75-0.355,1.55-0.593,2.372-0.706c0.861-0.127,1.73-0.19,2.6-0.191
		c0.902-0.006,1.802,0.058,2.694,0.191c0.627,0.09,1.248,0.219,1.859,0.385L309.485,104.292z"/>
	<path class="st1" d="M338.166,0l-60.277,34.915v30.444l8.026-4.583V43.715l38.456,22.2c6.056,3.509,9.788,9.973,9.8,16.972v48.925
		l-17.142-9.9h-16.055l37.2,21.477l60.269-35.021V34.915L338.166,0z M328.384,58.968L290.32,36.99l47.846-27.714L386.029,37
		l-38.048,21.968c-4.024,2.328-7.395,5.635-9.8,9.613C335.776,64.603,332.407,61.297,328.384,58.968z M390.417,103.751
		l-48.221,28.017V82.889c0.012-6.999,3.744-13.463,9.8-16.972l38.421-22.183V103.751z"/>
	<polygon class="st1" points="352.75,103.252 352.75,116.682 360.571,112.166 360.571,98.737 366.314,95.422 356.66,87.918 
		347.007,106.568 	"/>
</g>
</svg>
