<svg xmlns="http://www.w3.org/2000/svg" viewBox="0 0 80 80"><defs><style>.a{fill:#bdefff;}.b{fill:#fff;}.c{fill:none;stroke:#05acff;stroke-linecap:round;stroke-linejoin:round;}</style></defs><path class="a" d="M33.127,23.527a8.665,8.665,0,0,1,5.145-1.391,10.48,10.48,0,0,1,5.04,1.7,9.187,9.187,0,0,0,9.059-.312v-11a9.189,9.189,0,0,1-9.059.312,10.47,10.47,0,0,0-5.04-1.7,8.665,8.665,0,0,0-5.145,1.391Z"/><path class="b" d="M38.565,22.159v-11c-.1-.007-.19-.02-.293-.024a8.672,8.672,0,0,0-5.145,1.392v11a8.665,8.665,0,0,1,5.145-1.391C38.375,22.14,38.467,22.152,38.565,22.159Z"/><path class="b" d="M48.131,24.859a8.1,8.1,0,0,0,4.24-1.332v-11a8.111,8.111,0,0,1-4.24,1.332Z"/><polygon class="b" points="55.12 44.124 47.374 54.122 33.127 30.378 8.385 71.615 47.368 71.615 57.869 71.615 71.615 71.615 55.12 44.124"/><polygon class="a" points="33.155 44.124 37.663 46.873 41.567 44.454 57.869 71.615 23.33 71.615 32.106 61.029 29.477 54.854 33.155 44.124"/><polygon class="a" points="57.058 47.354 51.828 61.546 57.869 71.615 71.615 71.615 57.058 47.354"/><polyline class="c" points="57.869 71.615 33.127 30.378 8.385 71.615"/><polyline class="c" points="47.368 54.131 55.12 44.124 71.615 71.615"/><polyline class="c" points="24.687 44.454 28.674 46.873 33.155 44.124 37.663 46.873 41.567 44.454"/><line class="c" x1="33.127" y1="30.378" x2="33.127" y2="8.385"/><path class="c" d="M33.127,23.527a8.665,8.665,0,0,1,5.145-1.391,10.48,10.48,0,0,1,5.04,1.7,9.187,9.187,0,0,0,9.059-.312v-11a9.189,9.189,0,0,1-9.059.312,10.47,10.47,0,0,0-5.04-1.7,8.665,8.665,0,0,0-5.145,1.391Z"/><line class="c" x1="5.636" y1="71.615" x2="74.364" y2="71.615"/></svg>