<svg xmlns="http://www.w3.org/2000/svg" xmlns:xlink="http://www.w3.org/1999/xlink" viewBox="0 0 128 128"><defs><style>.a{fill:url(#a);}.b{fill:#bdefff;}.c{fill:#fff;}.d{fill:none;stroke:#05acff;stroke-linecap:round;stroke-linejoin:round;}</style><linearGradient id="a" x1="64" y1="128" x2="64" gradientUnits="userSpaceOnUse"><stop offset="0" stop-color="#fff" stop-opacity="0"/><stop offset="0.085" stop-color="#fff" stop-opacity="0.224"/><stop offset="0.198" stop-color="#fff" stop-opacity="0.496"/><stop offset="0.301" stop-color="#fff" stop-opacity="0.713"/><stop offset="0.388" stop-color="#fff" stop-opacity="0.869"/><stop offset="0.458" stop-color="#fff" stop-opacity="0.965"/><stop offset="0.5" stop-color="#fff"/></linearGradient></defs><circle class="a" cx="64" cy="64" r="64"/><path class="b" d="M56.491,44.143a8.658,8.658,0,0,1,5.145-1.392,10.473,10.473,0,0,1,5.04,1.7,9.189,9.189,0,0,0,9.059-.311v-11a9.189,9.189,0,0,1-9.059.312,10.462,10.462,0,0,0-5.04-1.7,8.665,8.665,0,0,0-5.145,1.391Z"/><path class="c" d="M61.929,42.774v-11c-.1-.007-.19-.02-.292-.023a8.666,8.666,0,0,0-5.146,1.391v11a8.666,8.666,0,0,1,5.146-1.391C61.739,42.755,61.831,42.768,61.929,42.774Z"/><path class="c" d="M71.5,45.474a8.1,8.1,0,0,0,4.239-1.332v-11A8.11,8.11,0,0,1,71.5,34.478Z"/><polygon class="c" points="78.484 64.739 70.738 74.738 56.491 50.993 31.749 92.23 70.732 92.23 81.234 92.23 94.979 92.23 78.484 64.739"/><polygon class="b" points="56.519 64.739 61.028 67.488 64.931 65.069 81.234 92.23 46.695 92.23 55.471 81.645 52.841 75.469 56.519 64.739"/><polygon class="b" points="80.422 67.969 75.192 82.161 81.234 92.23 94.979 92.23 80.422 67.969"/><polyline class="d" points="81.234 92.23 56.491 50.993 31.749 92.23"/><polyline class="d" points="70.732 74.746 78.485 64.739 94.979 92.23"/><polyline class="d" points="48.052 65.069 52.038 67.488 56.519 64.739 61.028 67.488 64.931 65.069"/><line class="d" x1="56.491" y1="50.993" x2="56.491" y2="29"/><path class="d" d="M56.491,44.143a8.658,8.658,0,0,1,5.145-1.392,10.473,10.473,0,0,1,5.04,1.7,9.189,9.189,0,0,0,9.059-.311v-11a9.189,9.189,0,0,1-9.059.312,10.462,10.462,0,0,0-5.04-1.7,8.665,8.665,0,0,0-5.145,1.391Z"/><line class="d" x1="29" y1="92.23" x2="97.729" y2="92.23"/></svg>