<svg xmlns="http://www.w3.org/2000/svg" xmlns:xlink="http://www.w3.org/1999/xlink" viewBox="0 0 128 128"><defs><style>.a{fill:url(#a);}.b,.f{fill:#fff;}.c{fill:none;}.c,.e,.f{stroke:#05acff;stroke-linecap:round;stroke-linejoin:round;}.d,.e{fill:#bdefff;}</style><linearGradient id="a" x1="64" y1="128" x2="64" gradientUnits="userSpaceOnUse"><stop offset="0" stop-color="#fff" stop-opacity="0"/><stop offset="0.085" stop-color="#fff" stop-opacity="0.224"/><stop offset="0.198" stop-color="#fff" stop-opacity="0.496"/><stop offset="0.301" stop-color="#fff" stop-opacity="0.713"/><stop offset="0.388" stop-color="#fff" stop-opacity="0.869"/><stop offset="0.458" stop-color="#fff" stop-opacity="0.965"/><stop offset="0.5" stop-color="#fff"/></linearGradient></defs><circle class="a" cx="64" cy="64" r="64"/><rect class="b" x="56.302" y="44.334" width="29.041" height="23.233" transform="translate(-12.068 20.236) rotate(-15)"/><path class="c" d="M33,27l7.485,2.532a4.8,4.8,0,0,1,3.1,3.305l10.745,40.1"/><line class="c" x1="94.968" y1="67.52" x2="60.802" y2="76.674"/><rect class="d" x="61.948" y="49.014" width="24.011" height="17.809" transform="translate(-12.47 21.114) rotate(-15)"/><circle class="e" cx="53.643" cy="81.599" r="8.712" transform="matrix(0.929, -0.369, 0.369, 0.929, -26.32, 25.546)"/><rect class="c" x="56.302" y="44.334" width="29.041" height="23.233" transform="translate(-12.068 20.236) rotate(-15)"/><rect class="f" x="51.608" y="31.913" width="17.787" height="14.52" transform="matrix(0.966, -0.259, 0.259, 0.966, -8.077, 16.994)"/><line class="c" x1="58.447" y1="32.207" x2="59.733" y2="37.007"/><circle class="f" cx="53.636" cy="81.609" r="3.8" transform="translate(-10.906 8.321) rotate(-8.055)"/><rect class="f" x="61.353" y="54.831" width="5.262" height="7.651" transform="translate(-13.001 18.559) rotate(-15)"/></svg>