<svg xmlns="http://www.w3.org/2000/svg" viewBox="0 0 80 80"><defs><style>.a,.e{fill:#fff;}.b{fill:none;}.b,.d,.e{stroke:#05acff;stroke-linecap:round;stroke-linejoin:round;}.c,.d{fill:#bdefff;}</style></defs><rect class="a" x="32.318" y="27.677" width="29.041" height="23.233" transform="translate(-8.574 13.461) rotate(-15)"/><path class="b" d="M9.016,10.343,16.5,12.875a4.8,4.8,0,0,1,3.1,3.305l10.744,40.1"/><line class="b" x1="70.984" y1="50.863" x2="36.818" y2="60.018"/><rect class="c" x="37.964" y="32.357" width="24.011" height="17.809" transform="translate(-8.977 14.339) rotate(-15)"/><circle class="d" cx="29.659" cy="64.942" r="8.712" transform="matrix(0.929, -0.369, 0.369, 0.929, -21.867, 15.523)"/><rect class="b" x="32.318" y="27.677" width="29.041" height="23.233" transform="translate(-8.574 13.461) rotate(-15)"/><rect class="e" x="27.624" y="15.256" width="17.787" height="14.52" transform="matrix(0.966, -0.259, 0.259, 0.966, -4.583, 10.219)"/><line class="b" x1="34.464" y1="15.551" x2="35.749" y2="20.35"/><circle class="e" cx="29.652" cy="64.952" r="3.8" transform="translate(-8.809 4.796) rotate(-8.055)"/><rect class="e" x="37.369" y="38.175" width="5.262" height="7.651" transform="translate(-9.507 11.784) rotate(-15)"/></svg>