<svg xmlns="http://www.w3.org/2000/svg" viewBox="0 0 80 80"><defs><style>.a{fill:#fff;}.b{fill:#bdefff;}.c{fill:none;stroke:#05acff;stroke-linecap:round;stroke-linejoin:round;}</style></defs><polygon class="a" points="19.829 36.333 60.171 36.333 40 62.005 19.829 36.333"/><polygon class="b" points="50.085 36.333 40 62.005 29.915 36.333 50.085 36.333"/><polygon class="b" points="60.171 36.333 40 62.005 50.085 36.333 60.171 36.333"/><polygon class="a" points="60.171 36.333 54.67 25.33 25.33 25.33 19.829 36.333 60.171 36.333"/><polygon class="b" points="50.085 36.333 40 25.33 54.67 25.33 50.085 36.333"/><polygon class="b" points="19.829 36.333 29.915 36.333 25.33 25.33 19.829 36.333"/><polygon class="c" points="19.829 36.333 60.171 36.333 40 62.005 19.829 36.333"/><polygon class="c" points="60.171 36.333 54.67 25.33 25.33 25.33 19.829 36.333 60.171 36.333"/><polyline class="c" points="54.67 25.33 50.085 36.333 40 25.33 29.915 36.333 25.33 25.33"/><polygon class="c" points="50.085 36.333 40 62.005 29.915 36.333 50.085 36.333"/><line class="c" x1="65.717" y1="29.361" x2="73.6" y2="26.07"/><line class="c" x1="65.717" y1="50.639" x2="73.6" y2="53.93"/><line class="c" x1="50.639" y1="14.283" x2="53.93" y2="6.4"/><line class="c" x1="50.639" y1="65.717" x2="53.93" y2="73.6"/><line class="c" x1="26.07" y1="6.4" x2="29.361" y2="14.283"/><line class="c" x1="26.07" y1="73.6" x2="29.361" y2="65.717"/><line class="c" x1="6.4" y1="26.07" x2="14.283" y2="29.361"/><line class="c" x1="6.4" y1="53.93" x2="14.283" y2="50.639"/></svg>