<svg xmlns="http://www.w3.org/2000/svg" xmlns:xlink="http://www.w3.org/1999/xlink" viewBox="0 0 128 128"><defs><style>.a{fill:url(#a);}.b{fill:#fff;}.c{fill:#bdefff;}.d{fill:none;stroke:#05acff;stroke-linecap:round;stroke-linejoin:round;}</style><linearGradient id="a" x1="64" y1="128" x2="64" gradientUnits="userSpaceOnUse"><stop offset="0" stop-color="#fff" stop-opacity="0"/><stop offset="0.085" stop-color="#fff" stop-opacity="0.224"/><stop offset="0.198" stop-color="#fff" stop-opacity="0.496"/><stop offset="0.301" stop-color="#fff" stop-opacity="0.713"/><stop offset="0.388" stop-color="#fff" stop-opacity="0.869"/><stop offset="0.458" stop-color="#fff" stop-opacity="0.965"/><stop offset="0.5" stop-color="#fff"/></linearGradient></defs><circle class="a" cx="64" cy="64" r="64"/><polygon class="b" points="43.929 53.433 84.271 53.433 64.1 79.105 43.929 53.433"/><polygon class="c" points="74.185 53.433 64.1 79.105 54.015 53.433 74.185 53.433"/><polygon class="c" points="84.271 53.433 64.1 79.105 74.185 53.433 84.271 53.433"/><polygon class="b" points="84.271 53.433 78.77 42.43 49.43 42.43 43.929 53.433 84.271 53.433"/><polygon class="c" points="74.185 53.433 64.1 42.43 78.77 42.43 74.185 53.433"/><polygon class="c" points="43.929 53.433 54.015 53.433 49.43 42.43 43.929 53.433"/><polygon class="d" points="43.929 53.433 84.271 53.433 64.1 79.105 43.929 53.433"/><polygon class="d" points="84.271 53.433 78.77 42.43 49.43 42.43 43.929 53.433 84.271 53.433"/><polyline class="d" points="78.77 42.43 74.185 53.433 64.1 42.43 54.015 53.433 49.43 42.43"/><polygon class="d" points="74.185 53.433 64.1 79.105 54.015 53.433 74.185 53.433"/><line class="d" x1="89.817" y1="46.461" x2="97.7" y2="43.17"/><line class="d" x1="89.817" y1="67.739" x2="97.7" y2="71.03"/><line class="d" x1="74.739" y1="31.383" x2="78.03" y2="23.5"/><line class="d" x1="74.739" y1="82.817" x2="78.03" y2="90.7"/><line class="d" x1="50.17" y1="23.5" x2="53.461" y2="31.383"/><line class="d" x1="50.17" y1="90.7" x2="53.461" y2="82.817"/><line class="d" x1="30.5" y1="43.17" x2="38.383" y2="46.461"/><line class="d" x1="30.5" y1="71.03" x2="38.383" y2="67.739"/></svg>