<svg xmlns="http://www.w3.org/2000/svg" viewBox="0 0 80 80"><defs><style>.a{fill:#fff;}.b{fill:#bdefff;}.c{fill:none;stroke:#05acff;stroke-linecap:round;stroke-linejoin:round;}</style></defs><path class="a" d="M70.6,26.6H9.4a2.914,2.914,0,0,0-2.914,2.914V55.743A2.914,2.914,0,0,0,9.4,58.657H32.714L40,67.4l7.286-8.743H70.6a2.914,2.914,0,0,0,2.914-2.914V29.514A2.914,2.914,0,0,0,70.6,26.6Z"/><polygon class="b" points="19.6 35.343 21.851 40.139 26.886 40.909 23.243 44.642 24.103 49.914 19.6 47.425 15.097 49.914 15.957 44.642 12.314 40.909 17.349 40.139 19.6 35.343"/><polygon class="a" points="19.6 35.343 17.349 40.139 13.134 40.783 13.511 42.135 14.462 43.11 18.82 42.351 21.066 38.467 19.6 35.343"/><polygon class="c" points="19.6 35.343 21.851 40.139 26.886 40.909 23.243 44.642 24.103 49.914 19.6 47.425 15.097 49.914 15.957 44.642 12.314 40.909 17.349 40.139 19.6 35.343"/><path class="c" d="M70.6,26.6H9.4a2.914,2.914,0,0,0-2.914,2.914V55.743A2.914,2.914,0,0,0,9.4,58.657H32.714L40,67.4l7.286-8.743H70.6a2.914,2.914,0,0,0,2.914-2.914V29.514A2.914,2.914,0,0,0,70.6,26.6Z"/><polygon class="b" points="40 35.343 42.251 40.139 47.286 40.909 43.643 44.642 44.503 49.914 40 47.425 35.497 49.914 36.357 44.642 32.714 40.909 37.749 40.139 40 35.343"/><polygon class="a" points="40 35.343 37.749 40.139 33.534 40.783 33.911 42.135 34.862 43.11 39.22 42.351 41.466 38.467 40 35.343"/><polygon class="c" points="40 35.343 42.251 40.139 47.286 40.909 43.643 44.642 44.503 49.914 40 47.425 35.497 49.914 36.357 44.642 32.714 40.909 37.749 40.139 40 35.343"/><polygon class="b" points="60.4 35.343 62.651 40.139 67.686 40.909 64.043 44.642 64.903 49.914 60.4 47.425 55.897 49.914 56.757 44.642 53.114 40.909 58.149 40.139 60.4 35.343"/><polygon class="a" points="60.4 35.343 58.149 40.139 53.934 40.783 54.311 42.135 55.262 43.11 59.62 42.351 61.866 38.467 60.4 35.343"/><polygon class="c" points="60.4 35.343 62.651 40.139 67.686 40.909 64.043 44.642 64.903 49.914 60.4 47.425 55.897 49.914 56.757 44.642 53.114 40.909 58.149 40.139 60.4 35.343"/></svg>