<svg xmlns="http://www.w3.org/2000/svg" xmlns:xlink="http://www.w3.org/1999/xlink" viewBox="0 0 128 128"><defs><style>.a{fill:url(#a);}.b{fill:#fff;}.c{fill:#bdefff;}.d{fill:none;stroke:#05acff;stroke-linecap:round;stroke-linejoin:round;}</style><linearGradient id="a" x1="64" y1="128" x2="64" gradientUnits="userSpaceOnUse"><stop offset="0" stop-color="#fff" stop-opacity="0"/><stop offset="0.085" stop-color="#fff" stop-opacity="0.224"/><stop offset="0.198" stop-color="#fff" stop-opacity="0.496"/><stop offset="0.301" stop-color="#fff" stop-opacity="0.713"/><stop offset="0.388" stop-color="#fff" stop-opacity="0.869"/><stop offset="0.458" stop-color="#fff" stop-opacity="0.965"/><stop offset="0.5" stop-color="#fff"/></linearGradient></defs><circle class="a" cx="64" cy="64" r="64"/><path class="b" d="M94.114,42h-61.2A2.914,2.914,0,0,0,30,44.914V71.143a2.914,2.914,0,0,0,2.914,2.914H56.229L63.514,82.8,70.8,74.057H94.114a2.915,2.915,0,0,0,2.915-2.914V44.914A2.915,2.915,0,0,0,94.114,42Z"/><polygon class="c" points="43.114 50.743 45.366 55.539 50.4 56.309 46.757 60.042 47.617 65.314 43.114 62.825 38.611 65.314 39.471 60.042 35.829 56.309 40.863 55.539 43.114 50.743"/><polygon class="b" points="43.114 50.743 40.863 55.539 36.648 56.183 37.025 57.535 37.976 58.51 42.334 57.751 44.58 53.867 43.114 50.743"/><polygon class="d" points="43.114 50.743 45.366 55.539 50.4 56.309 46.757 60.042 47.617 65.314 43.114 62.825 38.611 65.314 39.471 60.042 35.829 56.309 40.863 55.539 43.114 50.743"/><path class="d" d="M94.114,42h-61.2A2.914,2.914,0,0,0,30,44.914V71.143a2.914,2.914,0,0,0,2.914,2.914H56.229L63.514,82.8,70.8,74.057H94.114a2.915,2.915,0,0,0,2.915-2.914V44.914A2.915,2.915,0,0,0,94.114,42Z"/><polygon class="c" points="63.514 50.743 65.766 55.539 70.8 56.309 67.157 60.042 68.017 65.314 63.514 62.825 59.011 65.314 59.871 60.042 56.229 56.309 61.263 55.539 63.514 50.743"/><polygon class="b" points="63.514 50.743 61.263 55.539 57.048 56.183 57.425 57.535 58.376 58.51 62.734 57.751 64.98 53.867 63.514 50.743"/><polygon class="d" points="63.514 50.743 65.766 55.539 70.8 56.309 67.157 60.042 68.017 65.314 63.514 62.825 59.011 65.314 59.871 60.042 56.229 56.309 61.263 55.539 63.514 50.743"/><polygon class="c" points="83.914 50.743 86.166 55.539 91.2 56.309 87.557 60.042 88.417 65.314 83.914 62.825 79.411 65.314 80.271 60.042 76.629 56.309 81.663 55.539 83.914 50.743"/><polygon class="b" points="83.914 50.743 81.663 55.539 77.448 56.183 77.825 57.535 78.776 58.51 83.134 57.751 85.38 53.867 83.914 50.743"/><polygon class="d" points="83.914 50.743 86.166 55.539 91.2 56.309 87.557 60.042 88.417 65.314 83.914 62.825 79.411 65.314 80.271 60.042 76.629 56.309 81.663 55.539 83.914 50.743"/></svg>