<svg xmlns="http://www.w3.org/2000/svg" xmlns:xlink="http://www.w3.org/1999/xlink" viewBox="0 0 264 240"><defs><style>.a,.ai,.s,.t,.u{fill:none;}.b{fill:#f6fafd;}.c{fill:url(#a);}.d{fill:#eabe87;}.e{fill:#c69662;}.f{fill:#e5b576;}.g{fill:#f9d6ad;}.h{fill:#c69162;}.i{fill:url(#b);}.j{fill:#c19d86;}.k{fill:url(#c);}.l{fill:url(#d);}.m{fill:#b28a70;}.n{fill:url(#e);}.o{fill:url(#f);}.p{fill:url(#g);}.q{fill:url(#h);}.r{fill:url(#i);}.s{stroke:#c69662;}.s,.t,.u{stroke-miterlimit:10;stroke-width:0.403px;}.t{stroke:#cc9f72;}.u{stroke:#b28558;}.v{isolation:isolate;}.w{clip-path:url(#j);}.x{fill:#d0e2ed;}.y{fill:#e9f2f7;}.z{fill:#fff;}.aa{fill:#bad5e6;}.ab{clip-path:url(#k);}.ac{clip-path:url(#l);}.ad{clip-path:url(#m);}.ae{clip-path:url(#n);}.af{fill:url(#o);}.ag{fill:url(#p);}.ah{fill:url(#q);}.ai{stroke:#e4c04c;stroke-linecap:round;stroke-linejoin:round;stroke-width:0.596px;}.aj{fill:url(#r);}.ak{fill:url(#s);}.al{fill:url(#t);}.am{fill:url(#u);}.an{fill:url(#v);}.ao{fill:url(#w);}.ap{fill:url(#x);}.aq{fill:url(#y);}.ar{fill:url(#z);}.as{fill:#4ba724;}.as,.at,.au,.av,.aw,.az,.ba,.bb,.bc,.bd,.be,.bg,.bh,.bi,.bj,.bk,.bl,.bm,.bn,.bo,.bp,.bq,.br,.bs,.bt,.bu,.bv,.bw,.bx,.by,.bz,.ca,.cb,.cc{fill-rule:evenodd;}.at{fill:#66b129;}.au{fill:#329944;}.av{fill:url(#aa);}.aw{fill:url(#ab);}.ax{fill:url(#ac);}.ay{fill:url(#ad);}.az{fill:url(#ae);}.ba{fill:url(#af);}.bb{fill:url(#ag);}.bc{fill:url(#ah);}.bd{fill:url(#ai);}.be{fill:url(#aj);}.bf{fill:url(#ak);}.bg{fill:url(#al);}.bh{fill:#94b0ce;}.bi{fill:#b4cce5;}.bj{fill:#daeafa;}.bk{fill:url(#am);}.bl{fill:url(#an);}.bm{fill:url(#ao);}.bn{fill:url(#ap);}.bo{fill:url(#aq);}.bp{fill:url(#ar);}.bq{fill:url(#as);}.br{fill:url(#at);}.bs{fill:url(#au);}.bt{fill:url(#av);}.bu{fill:url(#aw);}.bv{fill:url(#ax);}.bw{fill:url(#ay);}.bx{fill:url(#az);}.by{fill:url(#ba);}.bz{fill:url(#bb);}.ca{fill:url(#bc);}.cb{fill:url(#bd);}.cc{fill:url(#be);}.cd{fill:url(#bf);}.ce{fill:url(#bg);}.cf{fill:url(#bh);}.cg{fill:url(#bi);}.ch{fill:url(#bj);}.ci{fill:url(#bk);}.cj{fill:url(#bl);}</style><linearGradient id="a" x1="90.176" y1="94.756" x2="126.711" y2="131.291" gradientUnits="userSpaceOnUse"><stop offset="0" stop-color="#003251" stop-opacity="0.1"/><stop offset="0.321" stop-color="#284d64" stop-opacity="0.039"/><stop offset="1" stop-color="#425e71" stop-opacity="0"/></linearGradient><linearGradient id="b" x1="65.937" y1="32.373" x2="75.329" y2="48.641" gradientUnits="userSpaceOnUse"><stop offset="0" stop-color="#eabe87"/><stop offset="1" stop-color="#e5b576"/></linearGradient><linearGradient id="c" x1="84.65" y1="43.219" x2="94.042" y2="59.487" xlink:href="#b"/><linearGradient id="d" x1="94.028" y1="59.495" x2="103.391" y2="75.713" gradientUnits="userSpaceOnUse"><stop offset="0" stop-color="#c69662"/><stop offset="1" stop-color="#c69662"/></linearGradient><linearGradient id="e" x1="33.187" y1="67.537" x2="51.914" y2="67.537" gradientUnits="userSpaceOnUse"><stop offset="0" stop-color="#e5b576"/><stop offset="1" stop-color="#c69662"/></linearGradient><linearGradient id="f" x1="47.217" y1="43.169" x2="56.61" y2="59.437" xlink:href="#b"/><linearGradient id="g" x1="51.899" y1="78.383" x2="70.626" y2="78.383" xlink:href="#e"/><linearGradient id="h" x1="65.93" y1="54.014" x2="75.322" y2="70.282" xlink:href="#b"/><linearGradient id="i" x1="75.308" y1="70.29" x2="84.671" y2="86.508" xlink:href="#d"/><clipPath id="j"><polygon class="a" points="74.153 63.968 58.682 54.24 79.344 43.254 94.815 52.982 74.153 63.968"/></clipPath><clipPath id="k"><polygon class="a" points="74.07 62.229 58.6 52.502 79.266 41.514 94.735 51.241 74.07 62.229"/></clipPath><clipPath id="l"><polygon class="a" points="73.993 60.487 58.519 50.757 79.181 39.77 94.655 49.501 73.993 60.487"/></clipPath><clipPath id="m"><polygon class="a" points="73.91 58.748 58.436 49.018 79.102 38.03 94.575 47.76 73.91 58.748"/></clipPath><clipPath id="n"><polygon class="a" points="73.831 57.009 58.358 47.279 79.024 36.291 94.497 46.02 73.831 57.009"/></clipPath><linearGradient id="o" x1="-2975.543" y1="-5230.971" x2="-2918.477" y2="-5230.971" gradientTransform="matrix(0.513, -0.858, -0.858, -0.513, -2839.084, -5073.621)" gradientUnits="userSpaceOnUse"><stop offset="0" stop-color="#e4c467"/><stop offset="1" stop-color="#e3bb26"/></linearGradient><linearGradient id="p" x1="-2964.685" y1="-5226.769" x2="-2909.264" y2="-5226.769" gradientTransform="matrix(0.513, -0.858, -0.858, -0.513, -2839.084, -5073.621)" gradientUnits="userSpaceOnUse"><stop offset="0" stop-color="#ffdc6c"/><stop offset="1" stop-color="#ffd21f"/></linearGradient><linearGradient id="q" x1="-2953.819" y1="-5226.769" x2="-2920.131" y2="-5226.769" gradientTransform="matrix(0.513, -0.858, -0.858, -0.513, -2839.084, -5073.621)" gradientUnits="userSpaceOnUse"><stop offset="0" stop-color="#ffe593"/><stop offset="1" stop-color="#ffde5a"/></linearGradient><linearGradient id="r" x1="-2962.988" y1="-5223.46" x2="-2905.922" y2="-5223.46" xlink:href="#o"/><linearGradient id="s" x1="-2952.131" y1="-5219.258" x2="-2896.709" y2="-5219.258" xlink:href="#p"/><linearGradient id="t" x1="-2941.264" y1="-5219.258" x2="-2907.576" y2="-5219.258" xlink:href="#q"/><linearGradient id="u" x1="-2954.963" y1="-5212.474" x2="-2897.897" y2="-5212.474" xlink:href="#o"/><linearGradient id="v" x1="-2944.106" y1="-5208.272" x2="-2888.684" y2="-5208.272" xlink:href="#p"/><linearGradient id="w" x1="-2933.239" y1="-5208.272" x2="-2899.551" y2="-5208.272" xlink:href="#q"/><linearGradient id="x" x1="-2938.752" y1="-5205.561" x2="-2881.686" y2="-5205.561" xlink:href="#o"/><linearGradient id="y" x1="-2927.895" y1="-5201.359" x2="-2872.473" y2="-5201.359" xlink:href="#p"/><linearGradient id="z" x1="-2917.028" y1="-5201.359" x2="-2883.34" y2="-5201.359" xlink:href="#q"/><linearGradient id="aa" x1="107.811" y1="38.852" x2="125.56" y2="38.852" gradientTransform="matrix(1, 0, 0, 1, 0, 0)" xlink:href="#p"/><linearGradient id="ab" x1="109.761" y1="38.852" x2="123.61" y2="38.852" gradientTransform="matrix(1, 0, 0, 1, 0, 0)" xlink:href="#q"/><linearGradient id="ac" x1="145.995" y1="22.737" x2="155.966" y2="22.737" gradientTransform="matrix(1, 0, 0, 1, 0, 0)" xlink:href="#p"/><linearGradient id="ad" x1="147.09" y1="22.737" x2="154.87" y2="22.737" gradientTransform="matrix(1, 0, 0, 1, 0, 0)" xlink:href="#q"/><linearGradient id="ae" x1="150.136" y1="34.438" x2="165.735" y2="34.438" gradientTransform="matrix(1, 0, 0, 1, 0, 0)" xlink:href="#p"/><linearGradient id="af" x1="151.849" y1="34.438" x2="164.022" y2="34.438" gradientTransform="matrix(1, 0, 0, 1, 0, 0)" xlink:href="#q"/><linearGradient id="ag" x1="123.357" y1="8.973" x2="132.029" y2="8.973" gradientTransform="matrix(1, 0, 0, 1, 0, 0)" xlink:href="#p"/><linearGradient id="ah" x1="124.31" y1="8.973" x2="131.077" y2="8.973" gradientTransform="matrix(1, 0, 0, 1, 0, 0)" xlink:href="#q"/><linearGradient id="ai" x1="122.71" y1="66.442" x2="129.873" y2="66.442" gradientTransform="matrix(1, 0, 0, 1, 0, 0)" xlink:href="#p"/><linearGradient id="aj" x1="123.497" y1="66.442" x2="129.086" y2="66.442" gradientTransform="matrix(1, 0, 0, 1, 0, 0)" xlink:href="#q"/><radialGradient id="ak" cx="185.221" cy="170.52" r="37.993" gradientTransform="translate(370.441 272.833) rotate(180) scale(1 0.6)" gradientUnits="userSpaceOnUse"><stop offset="0" stop-color="#001651" stop-opacity="0.15"/><stop offset="0.426" stop-color="#364369" stop-opacity="0.039"/><stop offset="1" stop-color="#495371" stop-opacity="0"/></radialGradient><linearGradient id="al" x1="135.482" y1="158.469" x2="177.32" y2="86.005" gradientUnits="userSpaceOnUse"><stop offset="0" stop-color="#001651" stop-opacity="0.1"/><stop offset="0.321" stop-color="#2c3b64" stop-opacity="0.039"/><stop offset="1" stop-color="#495371" stop-opacity="0"/></linearGradient><radialGradient id="am" cx="156.345" cy="119.857" r="6.078" gradientUnits="userSpaceOnUse"><stop offset="0" stop-color="#4b5573"/><stop offset="1" stop-color="#414a6a"/></radialGradient><linearGradient id="an" x1="161.237" y1="39.161" x2="166.179" y2="39.161" gradientUnits="userSpaceOnUse"><stop offset="0.313" stop-color="#f6d5c6"/><stop offset="1" stop-color="#ec9a9d"/></linearGradient><linearGradient id="ao" x1="175.928" y1="42.338" x2="175.928" y2="67.895" gradientUnits="userSpaceOnUse"><stop offset="0" stop-color="#3971c6"/><stop offset="0.995" stop-color="#1d427c"/></linearGradient><linearGradient id="ap" x1="176.355" y1="118.495" x2="189.729" y2="118.495" xlink:href="#ao"/><linearGradient id="aq" x1="149.506" y1="104.063" x2="185.221" y2="104.063" xlink:href="#ao"/><linearGradient id="ar" x1="190.459" y1="78.341" x2="169.039" y2="78.341" gradientUnits="userSpaceOnUse"><stop offset="0" stop-color="#ceedff"/><stop offset="0.995" stop-color="#fff"/></linearGradient><linearGradient id="as" x1="190.164" y1="59.86" x2="190.164" y2="100.412" xlink:href="#ao"/><linearGradient id="at" x1="175.251" y1="58.37" x2="182.701" y2="58.37" xlink:href="#an"/><linearGradient id="au" x1="183.93" y1="63.365" x2="173.844" y2="63.365" xlink:href="#ar"/><linearGradient id="av" x1="173.814" y1="53.417" x2="186.868" y2="53.417" xlink:href="#an"/><linearGradient id="aw" x1="177.062" y1="57.431" x2="178.432" y2="57.431" xlink:href="#an"/><linearGradient id="ax" x1="177.315" y1="57.452" x2="177.807" y2="57.452" xlink:href="#an"/><linearGradient id="ay" x1="175.136" y1="53.556" x2="186.939" y2="53.556" gradientUnits="userSpaceOnUse"><stop offset="0" stop-color="#cf9c78"/><stop offset="0.995" stop-color="#efdf86"/></linearGradient><radialGradient id="az" cx="182.378" cy="155.978" r="1.853" xlink:href="#am"/><radialGradient id="ba" cx="186.084" cy="151.247" r="5.659" xlink:href="#am"/><linearGradient id="bb" x1="181.138" y1="152.325" x2="190.234" y2="152.325" gradientUnits="userSpaceOnUse"><stop offset="0" stop-color="#575e80"/><stop offset="0.995" stop-color="#161825"/></linearGradient><linearGradient id="bc" x1="153.385" y1="55.717" x2="158.327" y2="55.717" xlink:href="#an"/><linearGradient id="bd" x1="164.379" y1="76.876" x2="164.379" y2="59.62" xlink:href="#ao"/><linearGradient id="be" x1="166.423" y1="81.298" x2="175.106" y2="81.298" gradientUnits="userSpaceOnUse"><stop offset="0.005" stop-color="#1f2d44"/><stop offset="1" stop-color="#607fae"/></linearGradient><linearGradient id="bf" x1="66.348" y1="157.351" x2="105.877" y2="196.879" xlink:href="#a"/><linearGradient id="bg" x1="-13449.481" y1="-16750.434" x2="-13411.035" y2="-16750.434" gradientTransform="matrix(-0.782, 0, 0, 0.782, -10435.028, 13250.417)" xlink:href="#e"/><linearGradient id="bh" x1="-13427.054" y1="-16789.279" x2="-13407.831" y2="-16755.983" gradientTransform="matrix(-0.782, 0, 0, 0.782, -10435.028, 13250.417)" xlink:href="#b"/><linearGradient id="bi" x1="-13404.627" y1="-16757.833" x2="-13391.812" y2="-16735.636" gradientTransform="matrix(-0.782, 0, 0, 0.782, -10435.028, 13250.417)" gradientUnits="userSpaceOnUse"><stop offset="0" stop-color="#c69662"/><stop offset="1" stop-color="#c69162"/></linearGradient><linearGradient id="bj" x1="-13439.575" y1="-16778.911" x2="-13413.016" y2="-16778.911" gradientTransform="matrix(-0.782, 0, 0, 0.782, -10435.028, 13250.417)" xlink:href="#e"/><linearGradient id="bk" x1="-13424.082" y1="-16805.745" x2="-13410.803" y2="-16782.745" gradientTransform="matrix(-0.782, 0, 0, 0.782, -10435.028, 13250.417)" xlink:href="#b"/><linearGradient id="bl" x1="-13408.59" y1="-16784.023" x2="-13399.737" y2="-16768.689" xlink:href="#bi"/></defs><path class="b" d="M14.589,93.776c1.945,22.475,16.569,36.261,12.364,56.038-4.806,22.608-6.848,33.155,2.435,47.229,11.231,17.027,36.467,22.543,74.388,1.128,47.75-26.964,87.253,18.247,113.615-5.926,26.538-24.332,7.93-55.193,21.873-81.96,34.347-65.937-24.349-81-70.992-68.657-38.21,10.112-41.08-15.544-83.592-8.522C33.069,41.631,12.406,68.56,14.589,93.776Z"/><polygon class="c" points="23.821 83.762 110.945 134.012 157.763 106.983 70.6 56.754 23.821 83.762"/><polygon class="d" points="23.823 72.952 23.823 83.764 28.505 86.467 28.505 81.061 37.868 86.467 37.868 91.873 42.55 94.576 42.55 89.17 51.914 94.576 51.914 99.982 56.595 102.685 56.595 97.279 65.959 102.685 65.959 108.091 70.641 110.794 70.641 99.982 23.823 72.952"/><polygon class="e" points="28.505 86.467 33.187 83.764 28.505 81.061 28.505 86.467"/><polygon class="e" points="42.492 94.609 47.174 91.906 42.492 89.203 42.492 94.609"/><polygon class="e" points="56.595 102.685 61.277 99.982 56.595 97.279 56.595 102.685"/><polygon class="f" points="117.458 72.952 117.458 83.764 112.776 86.467 112.776 81.061 103.413 86.467 103.413 91.873 98.731 94.576 98.731 89.17 89.367 94.576 89.367 99.982 84.686 102.685 84.686 97.279 75.322 102.685 75.322 108.091 70.641 110.794 70.641 99.982 117.458 72.952"/><polygon class="e" points="112.776 86.467 108.094 83.764 112.776 81.061 112.776 86.467"/><polygon class="e" points="98.789 94.609 94.107 91.906 98.789 89.203 98.789 94.609"/><polygon class="e" points="84.686 102.685 80.004 99.982 84.686 97.279 84.686 102.685"/><polygon class="g" points="117.458 72.952 70.641 99.982 23.823 72.952 70.641 45.922 117.458 72.952"/><path class="h" d="M70.568,94.584,89.353,83.806v-.055l18.72-10.741.029-21.641L89.324,40.562l.065-.038L70.576,29.7,51.925,40.53l-.069-.039L33.187,51.336V72.96Z"/><polygon class="i" points="70.575 29.695 51.906 40.541 70.633 51.353 89.389 40.524 70.575 29.695"/><polygon class="j" points="64.225 33.408 59.63 36.111 78.306 46.952 82.987 44.22 64.225 33.408"/><polygon class="k" points="89.288 40.541 70.619 51.386 89.346 62.198 108.102 51.369 89.288 40.541"/><polygon class="l" points="108.073 73.01 89.288 83.789 89.346 62.198 108.102 51.369 108.073 73.01"/><polygon class="m" points="97.018 57.798 97.069 63.204 101.751 60.471 101.7 55.065 97.018 57.798"/><polygon class="j" points="82.937 44.253 78.342 46.956 97.018 57.798 101.7 55.065 82.937 44.253"/><polygon class="n" points="33.187 72.96 51.856 83.739 51.914 62.148 33.187 51.336 33.187 72.96"/><polygon class="o" points="51.856 40.491 33.187 51.336 51.914 62.148 70.669 51.319 51.856 40.491"/><polygon class="j" points="45.505 44.203 40.91 46.906 59.586 57.747 64.268 55.015 45.505 44.203"/><polygon class="p" points="51.899 83.805 70.568 94.584 70.626 72.993 51.899 62.181 51.899 83.805"/><polygon class="q" points="70.568 51.336 51.899 62.181 70.626 72.993 89.382 62.165 70.568 51.336"/><polygon class="r" points="89.353 83.806 70.568 94.584 70.626 72.993 89.382 62.165 89.353 83.806"/><polygon class="m" points="78.298 68.593 78.349 73.999 83.031 71.266 82.98 65.86 78.298 68.593"/><polygon class="j" points="64.218 55.048 59.622 57.751 78.298 68.593 82.98 65.86 64.218 55.048"/><line class="s" x1="51.899" y1="62.181" x2="51.899" y2="83.805"/><line class="t" x1="89.288" y1="40.541" x2="51.899" y2="62.181"/><line class="u" x1="89.382" y1="62.165" x2="89.353" y2="83.806"/><line class="t" x1="51.856" y1="40.491" x2="89.382" y2="62.165"/><g class="v"><g class="w"><path class="x" d="M78.966,44.221a.092.092,0,0,1,.009.043L78.85,52.52l14.1-.145L74.763,63.023l.12-8.181-14.163.145a.45.45,0,0,1-.174-.034.526.526,0,0,0,.076.05L74.491,62.98a.822.822,0,0,0,.343.1.452.452,0,0,0,.219-.029l.011-.007L93,52.549a.118.118,0,0,0,.057-.133.358.358,0,0,0-.186-.2L79.007,44.243c-.013-.008-.027-.015-.041-.022m-.528-.052,0,0L60.5,54.674a.114.114,0,0,0-.06.116.166.166,0,0,1,.079-.081.383.383,0,0,1,.172-.039l.287,0L78.428,44.421l0-.17,0,0a.128.128,0,0,1,.072-.1.247.247,0,0,0-.068.024"/><path class="y" d="M78.85,52.52l-.027,1.723a.514.514,0,0,1-.315.419,1.456,1.456,0,0,1-.658.15l-2.967.03-.12,8.181L92.952,52.375l-14.1.145"/><path class="z" d="M78.428,44.421,60.975,54.667l16.85-.172a.661.661,0,0,0,.308-.069.231.231,0,0,0,.146-.2l.149-9.809"/><path class="x" d="M78.506,44.145a.128.128,0,0,0-.072.1l0,0,0,.17-.149,9.809a.231.231,0,0,1-.146.2.661.661,0,0,1-.308.069l-16.85.172-.287,0a.383.383,0,0,0-.172.039.166.166,0,0,0-.079.081l0,.016a.293.293,0,0,0,.106.147.45.45,0,0,0,.174.034l14.163-.145,2.967-.03a1.456,1.456,0,0,0,.658-.15.514.514,0,0,0,.315-.419l.027-1.723.125-8.256a.092.092,0,0,0-.009-.043.772.772,0,0,0-.46-.076"/><path class="aa" d="M60.437,54.79a.114.114,0,0,1,.06-.116l17.937-10.5,0,0a.247.247,0,0,1,.068-.024.772.772,0,0,1,.46.076c.014.007.028.014.041.022l13.865,7.974a.358.358,0,0,1,.186.2.118.118,0,0,1-.057.133l-17.937,10.5-.011.007a.452.452,0,0,1-.219.029.822.822,0,0,1-.343-.1L60.622,55a.526.526,0,0,1-.076-.05.293.293,0,0,1-.106-.147l0-.016M78.071,43.931l-.03.017L60.1,54.447a.348.348,0,0,0-.2.391.659.659,0,0,0,.345.385L74.114,63.2a1.624,1.624,0,0,0,.669.2,1.256,1.256,0,0,0,.649-.11l.025-.013,17.937-10.5a.358.358,0,0,0,.2-.391A.67.67,0,0,0,93.249,52L79.384,44.023a1.525,1.525,0,0,0-1.313-.092"/></g></g><g class="v"><g class="ab"><path class="x" d="M78.885,42.48a.1.1,0,0,1,.011.043l-.126,8.256,14.1-.143L74.68,61.285,74.8,53.1l-14.169.145a.441.441,0,0,1-.168-.031.846.846,0,0,0,.073.05l13.869,7.976a.91.91,0,0,0,.343.1.5.5,0,0,0,.23-.036l17.937-10.5a.118.118,0,0,0,.061-.134.378.378,0,0,0-.186-.2L78.928,42.5l-.043-.022m-.534-.048-17.933,10.5a.115.115,0,0,0-.064.12.159.159,0,0,1,.08-.083.393.393,0,0,1,.175-.04l.287,0L78.349,42.676l0-.166a.127.127,0,0,1,.071-.1.256.256,0,0,0-.072.025"/><path class="y" d="M78.77,50.779,78.744,52.5a.518.518,0,0,1-.319.42,1.426,1.426,0,0,1-.654.148L74.8,53.1l-.123,8.184L92.87,50.636l-14.1.143"/><path class="z" d="M78.349,42.676,60.9,52.927l16.846-.17a.677.677,0,0,0,.308-.07.24.24,0,0,0,.15-.2l.149-9.814"/><path class="x" d="M78.423,42.407a.127.127,0,0,0-.071.1l0,.166L78.2,52.49a.24.24,0,0,1-.15.2.677.677,0,0,1-.308.07l-16.846.17-.287,0a.393.393,0,0,0-.175.04.159.159,0,0,0-.08.083l0,.014a.287.287,0,0,0,.109.148.441.441,0,0,0,.168.031L74.8,53.1l2.968-.03a1.426,1.426,0,0,0,.654-.148.518.518,0,0,0,.319-.42l.026-1.724.126-8.256a.1.1,0,0,0-.011-.043.871.871,0,0,0-.3-.084.617.617,0,0,0-.159.011"/><path class="aa" d="M60.354,53.053a.115.115,0,0,1,.064-.12l17.933-10.5a.256.256,0,0,1,.072-.025.617.617,0,0,1,.159-.011.871.871,0,0,1,.3.084l.043.022,13.865,7.974a.378.378,0,0,1,.186.2.118.118,0,0,1-.061.134l-17.937,10.5a.5.5,0,0,1-.23.036.91.91,0,0,1-.343-.1L60.539,53.265a.846.846,0,0,1-.073-.05.287.287,0,0,1-.109-.148l0-.014M77.984,42.2l-.022.013-17.937,10.5a.354.354,0,0,0-.207.393.677.677,0,0,0,.345.386l13.869,7.976a1.643,1.643,0,0,0,.671.2,1.225,1.225,0,0,0,.646-.108l.025-.013,17.937-10.5a.368.368,0,0,0,.207-.393.69.69,0,0,0-.349-.387L79.3,42.283a1.637,1.637,0,0,0-.668-.2,1.222,1.222,0,0,0-.652.111"/></g></g><g class="v"><g class="ac"><path class="x" d="M78.806,40.74a.09.09,0,0,1,.009.043l-.125,8.255,14.1-.145L74.6,59.542l.121-8.182L60.557,51.5a.419.419,0,0,1-.172-.033.46.46,0,0,0,.078.052L74.331,59.5a.825.825,0,0,0,.343.105.449.449,0,0,0,.218-.029l.012-.007,17.937-10.5c.121-.072.061-.225-.129-.332L78.847,40.762c-.013-.008-.027-.015-.041-.022m-.528-.052-.007,0-17.934,10.5a.112.112,0,0,0-.06.119.154.154,0,0,1,.079-.083.37.37,0,0,1,.172-.039l.287,0L78.272,40.933l0-.165a.127.127,0,0,1,.073-.105.275.275,0,0,0-.07.025"/><path class="y" d="M78.69,49.038l-.027,1.724a.514.514,0,0,1-.315.419,1.466,1.466,0,0,1-.658.15l-2.966.029L74.6,59.542l18.19-10.649-14.1.145"/><path class="z" d="M78.272,40.933,60.815,51.186l16.85-.172a.66.66,0,0,0,.3-.071.257.257,0,0,0,.153-.2l.149-9.814"/><path class="x" d="M78.348,40.663a.127.127,0,0,0-.073.105l0,.165-.149,9.814a.257.257,0,0,1-.153.2.66.66,0,0,1-.3.071l-16.85.172-.287,0a.37.37,0,0,0-.172.039.154.154,0,0,0-.079.083l0,.014a.271.271,0,0,0,.1.145.419.419,0,0,0,.172.033l14.167-.143,2.966-.029a1.466,1.466,0,0,0,.658-.15.514.514,0,0,0,.315-.419l.027-1.724.125-8.255a.09.09,0,0,0-.009-.043.746.746,0,0,0-.458-.077"/><path class="aa" d="M60.277,51.311a.112.112,0,0,1,.06-.119l17.934-10.5.007,0a.275.275,0,0,1,.07-.025.746.746,0,0,1,.458.077c.014.007.028.014.041.022l13.865,7.974c.19.107.25.26.129.332L74.9,59.567l-.012.007a.449.449,0,0,1-.218.029.825.825,0,0,1-.343-.105L60.463,51.522a.46.46,0,0,1-.078-.052.271.271,0,0,1-.1-.145l0-.014M77.913,40.445l-.035.02-17.934,10.5a.347.347,0,0,0-.2.39.657.657,0,0,0,.345.386l13.869,7.976a1.616,1.616,0,0,0,.668.2,1.236,1.236,0,0,0,.649-.11l.025-.013,17.937-10.5c.331-.2.265-.545-.145-.778L79.22,40.54a1.515,1.515,0,0,0-1.307-.095"/></g></g><g class="v"><g class="ad"><path class="x" d="M78.725,39a.1.1,0,0,1,.011.044L78.61,47.3l14.1-.145L74.52,57.8l.123-8.183-14.165.143a.438.438,0,0,1-.173-.031.546.546,0,0,0,.075.051l13.865,7.975a.941.941,0,0,0,.346.106.511.511,0,0,0,.23-.036l17.934-10.5a.117.117,0,0,0,.067-.106A.322.322,0,0,0,92.633,47L78.768,39.021c-.014-.008-.028-.016-.043-.023m-.533-.047-17.934,10.5a.114.114,0,0,0-.064.12.163.163,0,0,1,.08-.083.407.407,0,0,1,.175-.041l.287,0L78.189,39.2l0-.166a.128.128,0,0,1,.065-.1.333.333,0,0,0-.065.023"/><path class="y" d="M78.61,47.3l-.026,1.723a.5.5,0,0,1-.309.412l-.013.007-.014.008a1.4,1.4,0,0,1-.637.142l-2.968.03L74.52,57.8l18.193-10.65-14.1.145"/><path class="z" d="M78.189,39.2,60.736,49.446l16.846-.17a.676.676,0,0,0,.305-.072.25.25,0,0,0,.153-.2l.149-9.813"/><path class="x" d="M78.257,38.928a.128.128,0,0,0-.065.1l0,.166-.149,9.813a.25.25,0,0,1-.153.2.676.676,0,0,1-.305.072l-16.846.17-.287,0a.407.407,0,0,0-.175.041.163.163,0,0,0-.08.083.278.278,0,0,0,.111.16.438.438,0,0,0,.173.031l14.165-.143,2.968-.03a1.4,1.4,0,0,0,.637-.142l.014-.008.013-.007a.5.5,0,0,0,.309-.412L78.61,47.3l.126-8.256A.1.1,0,0,0,78.725,39a.854.854,0,0,0-.3-.083.635.635,0,0,0-.165.013"/><path class="aa" d="M60.194,49.572a.114.114,0,0,1,.064-.12l17.934-10.5a.333.333,0,0,1,.065-.023.635.635,0,0,1,.165-.013.854.854,0,0,1,.3.083c.015.007.029.015.043.023L92.633,47a.322.322,0,0,1,.189.226.117.117,0,0,1-.067.106l-17.934,10.5a.511.511,0,0,1-.23.036.941.941,0,0,1-.346-.106L60.38,49.783a.546.546,0,0,1-.075-.051.278.278,0,0,1-.111-.16M77.827,38.708l-.029.016-17.933,10.5c-.334.193-.268.543.138.778L73.872,57.98a1.648,1.648,0,0,0,.672.2,1.249,1.249,0,0,0,.646-.108l.024-.013,17.934-10.5a.37.37,0,0,0,.218-.328.612.612,0,0,0-.356-.451L79.141,38.8a1.681,1.681,0,0,0-.668-.2,1.258,1.258,0,0,0-.646.107"/></g></g><g class="v"><g class="ae"><path class="x" d="M78.643,37.258a.1.1,0,0,1,.011.046l-.126,8.256,14.1-.145L74.438,56.062l.123-8.181L60.4,48.025a.436.436,0,0,1-.172-.033.587.587,0,0,0,.078.052l13.865,7.974a.828.828,0,0,0,.346.106.47.47,0,0,0,.219-.029l.012-.007,17.933-10.5c.124-.07.065-.222-.122-.331L78.689,37.282a.4.4,0,0,0-.046-.024m-.527-.049,0,0-17.941,10.5a.117.117,0,0,0-.06.106l0,.017a.158.158,0,0,1,.081-.085.37.37,0,0,1,.172-.039l.286,0L78.107,37.457l0-.17,0,0a.12.12,0,0,1,.067-.1.3.3,0,0,0-.064.023"/><path class="y" d="M78.528,45.56,78.5,47.284a.517.517,0,0,1-.319.416,1.413,1.413,0,0,1-.651.15l-2.971.031-.123,8.181L92.631,45.415l-14.1.145"/><path class="z" d="M78.107,37.457,60.653,47.708l16.85-.172a.648.648,0,0,0,.305-.072.243.243,0,0,0,.15-.2l.149-9.81"/><path class="x" d="M78.18,37.186a.12.12,0,0,0-.067.1l0,0,0,.17-.149,9.81a.243.243,0,0,1-.15.2.648.648,0,0,1-.305.072l-16.85.172-.286,0a.37.37,0,0,0-.172.039.158.158,0,0,0-.081.085.275.275,0,0,0,.109.157.436.436,0,0,0,.172.033l14.166-.144,2.971-.031a1.413,1.413,0,0,0,.651-.15.517.517,0,0,0,.319-.416l.026-1.724.126-8.256a.1.1,0,0,0-.011-.046.759.759,0,0,0-.463-.072"/><path class="aa" d="M60.114,47.835l0-.017a.117.117,0,0,1,.06-.106l17.941-10.5,0,0a.3.3,0,0,1,.064-.023.759.759,0,0,1,.463.072.4.4,0,0,1,.046.024l13.865,7.974c.187.109.246.261.122.331l-17.933,10.5-.012.007a.47.47,0,0,1-.219.029.828.828,0,0,1-.346-.106L60.3,48.044a.587.587,0,0,1-.078-.052.275.275,0,0,1-.109-.157M77.738,36.974l-.022.012-17.93,10.5a.365.365,0,0,0-.218.327.612.612,0,0,0,.356.451L73.793,56.24a1.631,1.631,0,0,0,.668.2,1.242,1.242,0,0,0,.65-.11l.025-.013,17.933-10.5c.334-.193.269-.543-.138-.778L79.059,37.061a1.518,1.518,0,0,0-1.321-.087"/></g></g><path class="af" d="M113.107,159.885a49.325,49.325,0,0,0,49.318.766,20.267,20.267,0,0,0,10.474-16.9l.025,0,.017-.543c0-.084.006-.166.008-.25l.427-13.515-9.519-.076c-.33-.225-.631-.474-.981-.683h0a49.326,49.326,0,0,0-49.318-.766h0c-.566.315-1.073.681-1.594,1.034l-8.357-.066-.372,11.753a20.991,20.991,0,0,0-.067,2.128l-.011.426.032,0A20.244,20.244,0,0,0,113.107,159.885Z"/><path class="ag" d="M163.423,112.753h0a20.506,20.506,0,0,1-.552,35.513h0a49.323,49.323,0,0,1-49.318-.766h0a20.505,20.505,0,0,1,.551-35.513h0A49.328,49.328,0,0,1,163.423,112.753Z"/><path class="ah" d="M153.645,119.567h0a12.464,12.464,0,0,1-.335,21.586h0a29.979,29.979,0,0,1-29.978-.465h0a12.465,12.465,0,0,1,.335-21.587h0A29.979,29.979,0,0,1,153.645,119.567Z"/><line class="ai" x1="133.386" y1="115.714" x2="138.071" y2="134.356"/><line class="ai" x1="124.857" y1="118.604" x2="127.465" y2="128.98"/><path class="aj" d="M113.107,145.255a49.325,49.325,0,0,0,49.318.766,20.267,20.267,0,0,0,10.474-16.9h.025l.017-.543c0-.083.006-.165.008-.249l.427-13.516-9.519-.075c-.33-.225-.631-.474-.981-.683h0a49.326,49.326,0,0,0-49.318-.766h0c-.566.315-1.073.681-1.594,1.034l-8.357-.066-.372,11.753a20.991,20.991,0,0,0-.067,2.128l-.011.426.032,0A20.244,20.244,0,0,0,113.107,145.255Z"/><path class="ak" d="M163.423,98.123h0a20.507,20.507,0,0,1-.552,35.514h0a49.323,49.323,0,0,1-49.318-.766h0a20.506,20.506,0,0,1,.551-35.514h0A49.328,49.328,0,0,1,163.423,98.123Z"/><path class="al" d="M153.645,104.936h0a12.465,12.465,0,0,1-.335,21.587h0a29.982,29.982,0,0,1-29.978-.465h0a12.465,12.465,0,0,1,.335-21.587h0A29.982,29.982,0,0,1,153.645,104.936Z"/><line class="ai" x1="133.386" y1="101.084" x2="138.071" y2="119.726"/><line class="ai" x1="124.857" y1="103.974" x2="127.465" y2="114.35"/><path class="am" d="M107.8,132.728a49.325,49.325,0,0,0,49.318.766,20.267,20.267,0,0,0,10.474-16.9h.025l.017-.543c0-.083.006-.165.008-.249l.427-13.516-9.519-.075c-.33-.225-.631-.474-.981-.683h0a49.326,49.326,0,0,0-49.318-.766h0c-.566.315-1.073.68-1.594,1.034L98.3,101.73l-.372,11.753a20.991,20.991,0,0,0-.067,2.128l-.011.426.032,0A20.244,20.244,0,0,0,107.8,132.728Z"/><path class="an" d="M158.115,85.6h0a20.507,20.507,0,0,1-.552,35.514h0a49.323,49.323,0,0,1-49.318-.766h0A20.507,20.507,0,0,1,108.8,84.83h0A49.323,49.323,0,0,1,158.115,85.6Z"/><path class="ao" d="M148.337,92.409h0A12.465,12.465,0,0,1,148,114h0a29.982,29.982,0,0,1-29.978-.465h0a12.465,12.465,0,0,1,.335-21.587h0A29.982,29.982,0,0,1,148.337,92.409Z"/><line class="ai" x1="128.077" y1="88.557" x2="132.763" y2="107.199"/><line class="ai" x1="119.549" y1="91.447" x2="122.157" y2="101.823"/><path class="ap" d="M110.189,115.268a49.325,49.325,0,0,0,49.318.765,20.266,20.266,0,0,0,10.474-16.9l.025,0,.017-.543c0-.084.006-.166.008-.249l.427-13.516-9.519-.076c-.33-.224-.631-.473-.981-.683h0A49.323,49.323,0,0,0,110.64,83.3h0c-.566.315-1.073.681-1.594,1.034l-8.357-.066-.371,11.754a20.973,20.973,0,0,0-.068,2.128l-.011.425.032,0A20.244,20.244,0,0,0,110.189,115.268Z"/><path class="aq" d="M160.506,68.136h0a20.506,20.506,0,0,1-.552,35.513h0a49.323,49.323,0,0,1-49.318-.766h0a20.505,20.505,0,0,1,.551-35.513h0A49.325,49.325,0,0,1,160.506,68.136Z"/><path class="ar" d="M150.727,74.949h0a12.465,12.465,0,0,1-.335,21.587h0a29.982,29.982,0,0,1-29.978-.466h0a12.465,12.465,0,0,1,.335-21.587h0A29.982,29.982,0,0,1,150.727,74.949Z"/><line class="ai" x1="130.468" y1="71.097" x2="135.154" y2="89.738"/><line class="ai" x1="121.939" y1="73.987" x2="124.547" y2="84.362"/><path class="as" d="M163.1.916c-11.312,1.944-13.786,10.027-18.175,11.658a1.279,1.279,0,0,1-1.3-2.042c-3.6-1.007,1.078-4.862,2.394-5.609C151.176,2,157.763,1.07,163.1.916Z"/><path class="at" d="M134.576,16.4a4.037,4.037,0,0,0,.6-7.2,14.3,14.3,0,0,0-8.6-2.21c-6.015.2-10.4,3.337-15.8,2.756l3.559,3.1c3.1,3.319,10.253,8.467,16.039,8.567C133.431,21.459,138.222,19.725,134.576,16.4Z"/><path class="au" d="M133.946,15.988c-.982,2.562-4.9,3.83-8.55,3.517,4.008-.168,7.605-2.074,7.965-3.848a13.236,13.236,0,0,0-1.618-.709A14.356,14.356,0,0,1,120,16.624a16.615,16.615,0,0,0,11.065-1.9,28.385,28.385,0,0,0-5.183-.926,15.129,15.129,0,0,1-6.945,1.325,31.273,31.273,0,0,0,5.926-1.433c-4.174-.436-8.875-.916-14.088-3.945a30.119,30.119,0,0,0,9.2,2.637,6.588,6.588,0,0,0-3.722-2.51,6.374,6.374,0,0,1,4.388,2.6c1.932.253,3.788.4,5.5.6-1.419-2.494-4.7-3.463-7.2-4.261,3.24.68,6.085,1.356,7.747,4.326a23.178,23.178,0,0,1,4.159.811c-.693-2.761-3.148-4.529-5.622-5.84,2.931,1.145,5.464,2.794,6.294,6.076,1.775.646,6.111,2.591,7.3,4.787.235.434.215,1.4-.217,1.662C138.8,18.71,135.442,16.894,133.946,15.988Z"/><path class="at" d="M144.571,28.153a4.818,4.818,0,0,1-.2-8.621,17.059,17.059,0,0,1,10.395-2.03c7.149.659,12.148,4.7,18.629,4.39l-4.456,3.439c-3.923,3.736-12.806,9.367-19.7,9.081C145.58,34.26,140,31.859,144.571,28.153Z"/><path class="au" d="M144.571,28.153c.022-.026.043-.052.065-.077a10.789,10.789,0,0,0-5.231,9.685l-.488-3.1a10.71,10.71,0,0,1,7.012-7.759,9.043,9.043,0,0,1,2.436-1.18c1.219-3.851,4.351-5.638,7.923-6.8-3.039,1.389-6.087,3.323-7.106,6.562a27.673,27.673,0,0,1,5.011-.674c2.187-3.421,5.623-4.027,9.531-4.611-3.024.777-7,1.7-8.869,4.572,2.055-.11,4.277-.16,6.6-.326a7.6,7.6,0,0,1,5.409-2.79c-2.057.624-3.109.976-4.61,2.729a35.965,35.965,0,0,0,11.14-2.5c-6.421,3.242-12.054,3.484-17.057,3.712a37.356,37.356,0,0,0,6.959,2.122,18.054,18.054,0,0,1-8.179-2.064,33.877,33.877,0,0,0-6.239.74,19.829,19.829,0,0,0,13.046,3.039c-4.846.909-9.623.316-13.873-2.818a15.241,15.241,0,0,0-1.562.55l.012.025s-.159.048-.421.154l-.006,0c.305,2.139,4.456,4.66,9.219,5.141-4.373.117-8.948-1.667-9.939-4.788Q144.957,27.916,144.571,28.153Z"/><path class="at" d="M131.933,38.332a5.665,5.665,0,0,0-1.18-10.07,20.058,20.058,0,0,0-12.436-.651c-8.215,1.944-13.369,7.474-20.965,8.177l5.754,3.27c5.182,3.7,16.45,8.8,24.433,7.328C131.764,45.608,137.87,41.893,131.933,38.332Z"/><path class="au" d="M139.177,47.9a12.7,12.7,0,0,0-7.263-9.586l.019.017c-.327-.143-.653-.272-.981-.39-.639,3.8-5.671,6.626-10.781,7.21,5.462-1.344,9.877-4.959,9.885-7.5-.327-.085-.519-.115-.523-.115l.01-.031a17.72,17.72,0,0,0-1.909-.384c-4.431,4.349-9.894,5.825-15.686,5.565A23.31,23.31,0,0,0,126.635,37a39.856,39.856,0,0,0-7.385.165,21.211,21.211,0,0,1-9.181,3.75A43.839,43.839,0,0,0,117.82,37.3c-5.861.559-12.459,1.2-20.468-1.513a42.292,42.292,0,0,0,13.38,1.073c-2.036-1.794-3.318-2.031-5.816-2.418a8.935,8.935,0,0,1,6.757,2.358c2.727-.189,5.321-.5,7.731-.707-2.644-3.035-7.428-3.456-11.077-3.862,4.646.036,8.745.176,11.854,3.8a32.594,32.594,0,0,1,5.946-.04c-1.72-3.6-5.587-5.353-9.353-6.469,4.348.76,8.289,2.326,10.342,6.608a10.607,10.607,0,0,1,3.1,1.006,13.059,13.059,0,0,1,8.9,7.476C139.451,45.016,139.693,50.488,139.177,47.9Z"/><path class="au" d="M143.612,82.638c-.239,1.388-3.146,1.184-3.3-.165,1.426-16.284-.553-28.333-2.243-44.182-1.206-11.315-1.243-24.229,8.585-30.616-8.4,7.61-8.937,16.286-6.816,30.422C142.132,53.4,144.668,66.689,143.612,82.638Z"/><path class="at" d="M131.988,63.56a7.021,7.021,0,0,0-1.462-12.482,24.87,24.87,0,0,0-15.415-.808c-10.184,2.41-16.572,9.265-25.989,10.137l7.133,4.053c6.424,4.592,20.391,10.9,30.287,9.084C131.779,72.58,139.348,67.975,131.988,63.56Z"/><path class="au" d="M140.968,75.422c-1.448-7.263-5.941-10.5-9-11.883l.023.021q-.606-.264-1.215-.483c-.792,4.7-7.03,8.214-13.364,8.937,6.77-1.666,12.244-6.147,12.253-9.295-.406-.105-.643-.142-.648-.143l.012-.039a22.161,22.161,0,0,0-2.366-.475c-5.493,5.39-12.265,7.221-19.445,6.9a28.893,28.893,0,0,0,18.206-7.049,49.551,49.551,0,0,0-9.154.2,26.3,26.3,0,0,1-11.381,4.649,54.4,54.4,0,0,0,9.608-4.482c-7.264.692-15.443,1.493-25.372-1.876a52.462,52.462,0,0,0,16.587,1.33c-2.524-2.224-4.114-2.517-7.209-3a11.077,11.077,0,0,1,8.375,2.924c3.379-.234,6.6-.616,9.583-.876-3.277-3.763-9.208-4.284-13.73-4.788,5.758.045,10.839.218,14.694,4.708a40.222,40.222,0,0,1,7.369-.049c-2.131-4.467-6.925-6.636-11.594-8.02,5.391.943,10.276,2.883,12.82,8.192a13.118,13.118,0,0,1,3.839,1.247,16.189,16.189,0,0,1,11.032,9.267C141.308,71.845,141.608,78.628,140.968,75.422Z"/><path class="at" d="M149.408,54.2a5.765,5.765,0,0,1-.246-10.315A20.415,20.415,0,0,1,161.6,41.451c8.555.788,14.536,5.626,22.291,5.252l-5.332,4.116c-4.694,4.471-15.322,11.208-23.576,10.865C150.615,61.5,143.933,58.63,149.408,54.2Z"/><path class="au" d="M149.408,54.2c.026-.031.051-.062.077-.092-2.5,1.507-6.225,4.875-6.259,11.589l-.583-3.707a12.814,12.814,0,0,1,8.389-9.284,10.808,10.808,0,0,1,2.916-1.412c1.458-4.608,5.206-6.747,9.479-8.133-3.636,1.662-7.283,3.976-8.5,7.852a33.117,33.117,0,0,1,6-.807c2.617-4.093,6.728-4.818,11.4-5.517-3.619.93-8.38,2.036-10.612,5.471,2.459-.132,5.117-.192,7.892-.39a9.093,9.093,0,0,1,6.472-3.339c-2.461.746-3.72,1.168-5.516,3.266a43.064,43.064,0,0,0,13.33-2.989c-7.683,3.88-14.424,4.17-20.409,4.442a44.669,44.669,0,0,0,8.326,2.539,21.6,21.6,0,0,1-9.787-2.47,40.558,40.558,0,0,0-7.464.886,23.721,23.721,0,0,0,15.61,3.636c-5.8,1.088-11.515.379-16.6-3.372a18.178,18.178,0,0,0-1.868.659l.014.03s-.189.057-.5.183l-.006,0c.364,2.559,5.331,5.576,11.03,6.152-5.233.14-10.707-1.995-11.892-5.729Q149.871,53.911,149.408,54.2Z"/><path class="av" d="M116.686,29.978a8.875,8.875,0,1,1-8.875,8.874A8.874,8.874,0,0,1,116.686,29.978Z"/><path class="aw" d="M116.686,31.928a6.925,6.925,0,1,1-6.925,6.924A6.924,6.924,0,0,1,116.686,31.928Z"/><circle class="ax" cx="150.98" cy="22.737" r="4.985"/><circle class="ay" cx="150.98" cy="22.737" r="3.89"/><path class="az" d="M157.935,26.638a7.8,7.8,0,1,1-7.8,7.8A7.8,7.8,0,0,1,157.935,26.638Z"/><path class="ba" d="M157.935,28.352a6.086,6.086,0,1,1-6.086,6.086A6.086,6.086,0,0,1,157.935,28.352Z"/><path class="bb" d="M127.693,4.637a4.336,4.336,0,1,1-4.336,4.336A4.336,4.336,0,0,1,127.693,4.637Z"/><path class="bc" d="M127.693,5.59a3.384,3.384,0,1,1-3.383,3.383A3.384,3.384,0,0,1,127.693,5.59Z"/><path class="bd" d="M126.291,62.861a3.582,3.582,0,1,1-3.581,3.581A3.581,3.581,0,0,1,126.291,62.861Z"/><path class="be" d="M126.291,63.648a2.795,2.795,0,1,1-2.794,2.794A2.794,2.794,0,0,1,126.291,63.648Z"/><ellipse class="bf" cx="185.221" cy="170.52" rx="47.725" ry="24.682"/><path class="bg" d="M134.1,139.172l-1.953-7.164,19.571-11.182,1.624,7.116-.235.126,41.656,37.1,4.684-1.874-42.325-37.367-1.293.689,1.2-.7L140.686,64.854l-26.95,15.658,16.548,60.7-.184.1,40.734,37.573,4.684-1.874-41.4-37.84-.01.006ZM125.579,107.9,145.15,96.718l5.525,20.275L131.1,128.174,125.579,107.9Zm-6.571-24.1,19.571-11.182L144.1,92.888l-19.571,11.178L119.008,83.8Zm18.033-16.78.5,1.764L117.965,79.961l-.439-1.612Z"/><polygon class="bh" points="197.286 164.58 194.645 165.265 191.58 158.639 194.22 157.95 197.286 164.58"/><polygon class="bh" points="192.434 154.084 189.794 154.768 180.346 134.333 182.987 133.645 192.434 154.084"/><polygon class="bh" points="181.197 129.78 178.56 130.464 169.108 110.025 171.748 109.337 181.197 129.78"/><polygon class="bh" points="169.962 105.474 167.322 106.159 157.873 85.716 160.514 85.032 169.962 105.474"/><polygon class="bh" points="158.728 81.165 156.088 81.854 146.639 61.415 149.279 60.731 158.728 81.165"/><polygon class="bh" points="147.49 56.861 144.853 57.545 140.956 49.121 143.596 48.436 147.49 56.861"/><polygon class="bi" points="143.596 48.436 140.956 49.121 144.435 47.112 147.076 46.426 143.596 48.436"/><polygon class="bi" points="171.972 165.898 169.332 166.583 189.794 154.768 192.434 154.084 171.972 165.898"/><polygon class="bi" points="160.735 141.594 158.098 142.278 178.56 130.464 181.197 129.78 160.735 141.594"/><polygon class="bi" points="149.5 117.285 146.86 117.973 167.322 106.159 169.962 105.474 149.5 117.285"/><polygon class="bi" points="138.266 92.98 135.625 93.668 156.088 81.854 158.728 81.165 138.266 92.98"/><polygon class="bi" points="127.028 68.675 124.391 69.359 144.853 57.545 147.49 56.861 127.028 68.675"/><polygon class="bh" points="173.341 178.405 170.7 179.089 117.011 62.946 119.652 62.262 173.341 178.405"/><path class="bj" d="M171.972,165.9l-9.448-20.439,20.463-11.814,9.447,20.439L171.972,165.9Zm-20.686-44.747,9.449,20.443L181.2,129.78l-9.449-20.443-20.462,11.814Zm-11.235-24.3,20.463-11.814,9.448,20.442L149.5,117.285l-9.449-20.439Zm-11.234-24.3,9.449,20.435,20.462-11.815-9.449-20.434L128.817,72.545Zm18.259-26.119-3.48,2.01,3.894,8.425L127.028,68.675l-3.894-8.424-3.482,2.011,53.689,116.143,3.483-2.01-3.066-6.631L194.22,157.95l3.066,6.63,3.479-2.01Z"/><polygon class="bi" points="119.652 62.262 117.011 62.946 120.494 60.936 123.134 60.251 119.652 62.262"/><path class="bk" d="M158.115,117.658a50.553,50.553,0,0,0-5.315-3.319c-1.077-.507-2.744-.677-2.742,1.105a8.048,8.048,0,0,0,3.181,5.949c.6.484,1.444.814,2.146,1.459.544.5.529,1.046.9,1.53a3.59,3.59,0,0,0,2.96,1.335,2.167,2.167,0,0,0,2.227-1.412,10.014,10.014,0,0,0,1.156-3.793,1.329,1.329,0,0,0-.037-.44C162.277,118.539,159.65,116.107,158.115,117.658Z"/><path class="bl" d="M163.138,44.214c.065-.353-.285-.129-.949-1.059a14.2,14.2,0,0,1-.709-2.708c.122-.835,1.179-1.724,1.171-2.339s-1.774-2.6-1.347-3.157c.442-.575,1.638-1.9,2.012-1.788a5.8,5.8,0,0,1,1.581,2.013,9.673,9.673,0,0,1,1.037,1.848,12.1,12.1,0,0,1,.212,3.183,9.82,9.82,0,0,1-.5,2.068c-.1.364.365.881.333,1.214-.074.51-.652,1.023-.679,1.677Z"/><path class="bm" d="M186.4,59.977c-2.516-.992-11.078-4.2-14.093-4.953-.151-.038-.287-.053-.431-.081a71.978,71.978,0,0,0-5.1-10.861,3.2,3.2,0,0,0-.585-.667,11.428,11.428,0,0,1-.48-1.077c-.092.408-2.269,1.455-3.23,1.266a9.276,9.276,0,0,1,.345,1.021,3.744,3.744,0,0,0,.078,1.119c1.461,4.549,2.181,9.3,4.565,13.248a2.246,2.246,0,0,0,.769.733,2.663,2.663,0,0,0,.593.391,9.26,9.26,0,0,0,2.778,1.5c1.833.722,9.754,5.528,12.973,6.179C189.55,68.8,191.477,61.979,186.4,59.977Z"/><path class="bn" d="M187.367,145.332c.728-7.1,1.657-18.454-.215-22.728a22.478,22.478,0,0,1-1.4-7.893,33.711,33.711,0,0,1,1.173-6.748c.867-3.123,2.251-6.282,2.712-9.361.558-3.735-1.615-9.321-1.655-9.391-2.317-4.089-11.144,3.313-11.168,3.887-1.03,3.329-.038,11.993.192,14.041.014.453.03.939.046,1.433.012,1.45-.073,2.9.04,4.6a30.4,30.4,0,0,0,.9,5.629c.517,2.851,1.243,6.9,1.778,10.634.37,2.584.613,5.016.834,6.792.127,1.023,1.41,12.242,1.543,12.74C184.147,149.484,185.858,144.282,187.367,145.332Z"/><path class="bo" d="M184.568,92.345c-1.667-4.1-10.8-1.352-11.948-.545-2.708-.653-5.391-1.869-8.677-2.7-2.493-.633-8.341-1.594-10.934-1.409-1.683.121-3.022.882-3.387,2.341a3.234,3.234,0,0,0,.371,2.582c.93,2.748,2.4,7.07,3.585,11.064.744,2.5,1.34,4.873,1.818,6.6.206.747.974,4.552,1.436,6.695.012.985,1.137,2.315,2.431,2.982,1.6.824,3.445.749,3.687-.9-.027-5.27-.009-14.623-1.836-20.382,2.85,1.568,5.914,3.534,8.527,4.829,3.841,1.9,7.47,2.937,10.237,2.154C184.634,104.3,186.266,96.526,184.568,92.345Z"/><path class="bp" d="M188.013,88.527c-.6,3.529-2.431,6.365-6.257,7.1-4.472.861-10.964-.824-10.635-2.756.038-.223.077-.44.115-.651.486-2.618,1.016-4.318.616-7.3-.693-5.159-3.968-11.807-2.387-15.866a4.319,4.319,0,0,1,1.608-1.834c1.746-1.4,10.775-6,13.512-6.325,5.242-.68,6.192,3.484,5.793,8.406C189.829,76.084,186.858,81.253,188.013,88.527Z"/><path class="bq" d="M211.286,90.751c-3.088,12.822-18.678,11.45-27.981,4.175-5-3.913-9.762-10.184-13.2-18.088-1.109-2.551-1.405-5.827-.644-7.783a4.319,4.319,0,0,1,1.608-1.834c1.746-1.4,10.255-6.97,12.992-7.3,5.242-.679,6.345,3.971,6.6,8.9C191.3,81.255,197.753,90.46,211.286,90.751Z"/><path class="br" d="M175.251,57.428c1.706.845.751,5.052.677,6.263,2.6-.085,6.211-.765,6.6-2.7a5.857,5.857,0,0,1,.168-2.732l-5.722-5.209Z"/><path class="bs" d="M182.565,60.922c.769.237,1.487,1.028,1.347,1.535-.766,3.129-6.5,3.827-10.067,3.074-.043-.009,1.335-1.831,2.017-2.053C178.107,63.7,181.873,62.769,182.565,60.922Z"/><path class="bt" d="M174.07,59.222a5.815,5.815,0,0,0,2.713.57c.815-.176,1.513-2.463.905-3.731-.864-1.8,5.252,3.415,5.7,2.892.727-.851,2.086-1.714,2.73-3.074,1.03-2.175,1.176-4.745-.688-6.762-3.4-3.683-8.706-2.259-10.662,2.054-.381.842.239,1.426.1,2.175-.027.146-.246.27-.455.572C174.121,54.336,173.446,58.948,174.07,59.222Z"/><path class="bu" d="M177.353,56.676c-.119-.609.089-.792.333-.69a1.658,1.658,0,0,1,.715,1.2c.183,1.014-.481,2.158-1.339,1.539.794.17.868-.807.72-1.439C177.682,56.86,177.474,56.534,177.353,56.676Z"/><path class="bv" d="M177.68,56.994c-.288.382-.4.617-.354.772.035.107.172.244.462.039A1.45,1.45,0,0,0,177.68,56.994Z"/><path class="bw" d="M183.272,59.941c.447-1.513,2.266-2.423,3.036-4.049a6.663,6.663,0,0,0,.388-4.6c.4-1.087-1.235-3.014-1.945-3.393a1.717,1.717,0,0,1,.151.343c-2.061-1.541-2.727-1.4-5.227-1.475.258.087.5.179.753.279-1.36-.225-5.059.846-5.292,3.369.64-1.044,1.185-.812,1.623-.435a3.618,3.618,0,0,0-.047,2.879c.641,1.3.631,1.472.309,3.254l.407.449c.41-1.375,1.017-1.168,1.551-.6.932.983-.032,3.834,2.376,4.319A2.361,2.361,0,0,0,183.272,59.941Z"/><path class="bx" d="M182.2,157.9a9.194,9.194,0,0,0,1.59-.929c.049-.172.367-1.982.367-1.982l-.709-.929c-1.668.059-3.614,1.064-2.555,2.892A2.247,2.247,0,0,0,182.2,157.9Z"/><path class="by" d="M182.4,148.554l.44,1.786c.528,3.663.6,4.224-.929,7.411,1.729.83,5.043-.038,6.629-1.418,1.173-1.022-.427-2.21.146-3.718a14.273,14.273,0,0,0,1.52-3.844c.139-1.114.124-2.182-1.862-2.736-.527-.888-.984-1.47-1.487-1.614C184.056,144.324,183.326,147.3,182.4,148.554Z"/><path class="bz" d="M182.694,158a8.026,8.026,0,0,0,5.846-1.665c1.173-1.022-.427-2.21.146-3.718a14.273,14.273,0,0,0,1.52-3.844c.235-1.885-1.042-2.637-2.7-1.942a4.076,4.076,0,0,0-2.226,2.985,7.888,7.888,0,0,0,.082,3.123c.331,2.111-1.277,6.185-4.226,4.333A2.717,2.717,0,0,0,182.694,158Z"/><path class="ca" d="M154.151,61.291a6.37,6.37,0,0,0,.186-1.58A14.2,14.2,0,0,1,153.628,57c.122-.835,1.178-1.724,1.171-2.339s-1.774-2.6-1.347-3.157c.442-.575,1.638-1.9,2.012-1.788a5.813,5.813,0,0,1,1.581,2.013,9.673,9.673,0,0,1,1.037,1.848,12.145,12.145,0,0,1,.212,3.183c-.118,1.333-.616,2.3-.7,3.2a17.625,17.625,0,0,0-.147,1.76Z"/><path class="cb" d="M169.957,68.513a85.464,85.464,0,0,0-9.63,1.739,53.5,53.5,0,0,0-2.122-8.7,3.209,3.209,0,0,0-.428-.778,11.231,11.231,0,0,1-.237-1.154c-.178.378-2.529.934-3.427.542a8.966,8.966,0,0,1,.118,1.071,3.771,3.771,0,0,0-.165,1.11c.416,4.393-.052,7.615,1.036,11.523a2.649,2.649,0,0,0,2.608,2.758,9.21,9.21,0,0,0,3.149.226c1.967-.094,7.447.269,10.649-.461C176.458,75.26,175.412,68.25,169.957,68.513Z"/><path class="cc" d="M166.7,76.827c-.805,3.135.037,6.379,4.365,9.127a19.238,19.238,0,0,0,4.045-.8,24.371,24.371,0,0,1-1.159-3.761c-2.515-1.04-3.591-2.088-4.084-4.746C168.826,76.721,167.933,76.836,166.7,76.827Z"/><polygon class="cd" points="49.339 174.36 93.687 198.774 122.886 179.87 79.281 157.073 49.339 174.36"/><polygon class="e" points="60.027 122.751 80.066 134.321 80.066 157.459 50.008 174.813 29.969 163.244 29.969 140.105 60.027 122.751"/><polygon class="ce" points="80.066 157.459 80.066 134.321 50.008 151.675 50.008 174.813 80.066 157.459"/><polygon class="cf" points="80.066 134.321 60.027 122.751 29.969 140.105 50.008 151.675 80.066 134.321"/><polygon class="cg" points="29.969 163.244 29.969 140.105 50.008 151.675 50.008 174.813 29.969 163.244"/><polygon class="j" points="37.484 144.444 67.542 127.09 72.551 129.982 42.493 147.336 37.484 144.444"/><polygon class="m" points="42.493 147.336 42.493 153.121 37.484 150.228 37.484 144.444 42.493 147.336"/><polygon class="z" points="58.814 163.244 58.814 166.882 52.513 170.52 52.513 166.882 58.814 163.244"/><polygon class="e" points="58.478 110.325 72.321 118.317 72.321 134.301 51.557 146.289 37.714 138.297 37.714 122.313 58.478 110.325"/><polygon class="ch" points="72.321 134.301 72.321 118.317 51.557 130.305 51.557 146.289 72.321 134.301"/><polygon class="ci" points="72.321 118.317 58.478 110.325 37.714 122.313 51.557 130.305 72.321 118.317"/><polygon class="cj" points="37.714 138.297 37.714 122.313 51.557 130.305 51.557 146.289 37.714 138.297"/><polygon class="j" points="42.905 125.31 63.669 113.322 67.13 115.32 46.366 127.308 42.905 125.31"/><polygon class="m" points="46.366 127.308 46.366 131.304 42.905 129.306 42.905 125.31 46.366 127.308"/><polygon class="z" points="57.641 138.297 57.641 140.81 53.287 143.324 53.287 140.81 57.641 138.297"/></svg>