<svg xmlns="http://www.w3.org/2000/svg" xmlns:xlink="http://www.w3.org/1999/xlink" viewBox="0 0 264 240"><defs><style>.a{fill:#f6fafd;}.b{fill:url(#a);}.c{fill:url(#b);}.d{fill:url(#c);}.e{fill:url(#d);}.f{fill:url(#e);}.g{fill:url(#f);}.h{fill:url(#g);}.i{fill:url(#h);}.j{fill:url(#i);}.k{fill:url(#j);}.l{fill:url(#k);}.m{fill:url(#l);}.n{fill:url(#m);}.o{fill:url(#n);}.p{fill:url(#o);}.q{fill:url(#p);}.r{fill:url(#q);}.s{fill:url(#r);}.t{fill:url(#s);}.u{fill:url(#t);}.v{fill:url(#u);}.w{fill:url(#v);}.x{fill:url(#w);}.y{fill:url(#x);}.z{fill:url(#y);}.aa{fill:url(#z);}.ab{fill:url(#aa);}.ac{fill:url(#ab);}.ad{fill:url(#ac);}.ae{fill:url(#ad);}.af{fill:url(#ae);}.ag{fill:url(#af);}.ah{fill:url(#ag);}.ai{fill:url(#ah);}.aj{fill:url(#ai);}.ak{fill:url(#aj);}.al{fill:url(#ak);}.am{fill:url(#al);}.an{fill:url(#am);}.ao{fill:url(#an);}.ap{fill:url(#ao);}.aq{fill:url(#ap);}.ar{fill:url(#aq);}.as{fill:url(#ar);}.at{fill:url(#as);}.au{fill:url(#at);}.av{fill:url(#au);}.aw{fill:url(#av);}.ax{fill:url(#aw);}.ay{fill:url(#ax);}.az{fill:url(#ay);}.ba{fill:url(#az);}.bb{fill:url(#ba);}.bc,.bd,.be,.bf,.bg,.bh,.bi,.bj,.bk,.bm,.bn,.bo,.bp,.bq,.br,.bs,.bt,.bu,.bv,.bw,.bx,.by,.bz,.ca,.cb,.cc,.cd,.ce,.cf,.cg,.ch{fill-rule:evenodd;}.bc{fill:url(#bb);}.bd{fill:url(#bc);}.be{fill:url(#bd);}.bf{fill:url(#be);}.bg{fill:url(#bf);}.bh{fill:url(#bg);}.bi{fill:url(#bh);}.bj{fill:url(#bi);}.bk{fill:url(#bj);}.bl{fill:url(#bk);}.bm{fill:url(#bl);}.bn{fill:url(#bm);}.bo{fill:url(#bn);}.bp{fill:url(#bo);}.bq{fill:url(#bp);}.br{fill:url(#bq);}.bs{fill:url(#br);}.bt{fill:url(#bs);}.bu{fill:url(#bt);}.bv{fill:url(#bu);}.bw{fill:url(#bv);}.bx{fill:url(#bw);}.by{fill:url(#bx);}.bz{fill:url(#by);}.ca{fill:url(#bz);}.cb{fill:url(#ca);}.cc{fill:#401c28;}.cd{fill:#ed8880;}.ce{fill:url(#cb);}.cf{fill:#824541;}.cg{fill:url(#cc);}.ch{fill:url(#cd);}.ci{fill:url(#ce);}.cj{fill:url(#cf);}.ck{fill:url(#cg);}.cl{fill:none;stroke:#e4c04c;stroke-linecap:round;stroke-linejoin:round;stroke-width:0.596px;}.cm{fill:url(#ch);}.cn{fill:url(#ci);}.co{fill:url(#cj);}.cp{fill:url(#ck);}.cq{fill:url(#cl);}.cr{fill:url(#cm);}.cs{fill:url(#cn);}.ct{fill:url(#co);}.cu{fill:url(#cp);}.cv{fill:url(#cq);}.cw{fill:url(#cr);}.cx{fill:url(#cs);}.cy{fill:url(#ct);}.cz{fill:url(#cu);}.da{fill:url(#cv);}.db{fill:url(#cw);}.dc{fill:url(#cx);}.dd{fill:url(#cy);}.de{fill:url(#cz);}.df{fill:url(#da);}.dg{fill:url(#db);}.dh{fill:url(#dc);}.di{fill:url(#dd);}.dj{fill:url(#de);}.dk{fill:url(#df);}.dl{fill:#c69662;}.dm{fill:url(#dg);}.dn{fill:url(#dh);}.do{fill:url(#di);}.dp{fill:#c19d86;}.dq{fill:#b28a70;}.dr{fill:#fff;}.ds{fill:#c69e6d;}.dt{fill:url(#dj);}.du{fill:url(#dk);}.dv{fill:url(#dl);}.dw{fill:url(#dm);}.dx{fill:url(#dn);}.dy{fill:url(#do);}</style><radialGradient id="a" cx="149.247" cy="140.42" r="66.711" gradientTransform="matrix(1, 0.005, -0.003, 0.6, 0.459, 55.36)" gradientUnits="userSpaceOnUse"><stop offset="0" stop-color="#001651" stop-opacity="0.15"/><stop offset="0.157" stop-color="#0f2257" stop-opacity="0.12"/><stop offset="1" stop-color="#495371" stop-opacity="0"/></radialGradient><linearGradient id="b" x1="62.987" y1="154.932" x2="250.87" y2="154.932" gradientUnits="userSpaceOnUse"><stop offset="0" stop-color="#f1fcff"/><stop offset="1" stop-color="#d6f0ff"/></linearGradient><linearGradient id="c" x1="62.987" y1="130.874" x2="250.87" y2="130.874" xlink:href="#b"/><linearGradient id="d" x1="62.987" y1="154.932" x2="182.549" y2="154.932" gradientUnits="userSpaceOnUse"><stop offset="0" stop-color="#f1fcff"/><stop offset="1" stop-color="#b2d2eb"/></linearGradient><linearGradient id="e" x1="182.549" y1="169.724" x2="250.87" y2="169.724" xlink:href="#d"/><linearGradient id="f" x1="75.365" y1="107.416" x2="160.508" y2="107.416" gradientUnits="userSpaceOnUse"><stop offset="0" stop-color="#73d3f6"/><stop offset="1" stop-color="#67bef6"/></linearGradient><linearGradient id="g" x1="112.147" y1="132.732" x2="135.43" y2="132.732" gradientUnits="userSpaceOnUse"><stop offset="0" stop-color="#007098"/><stop offset="1" stop-color="#005d85"/></linearGradient><linearGradient id="h" x1="132.637" y1="120.942" x2="155.921" y2="120.942" xlink:href="#g"/><linearGradient id="i" x1="152.923" y1="109.153" x2="176.206" y2="109.153" xlink:href="#g"/><linearGradient id="j" x1="131.785" y1="143.805" x2="155.068" y2="143.805" xlink:href="#g"/><linearGradient id="k" x1="152.276" y1="132.016" x2="175.559" y2="132.016" xlink:href="#g"/><linearGradient id="l" x1="172.561" y1="120.227" x2="195.845" y2="120.227" xlink:href="#g"/><linearGradient id="m" x1="151.437" y1="155.197" x2="174.72" y2="155.197" xlink:href="#g"/><linearGradient id="n" x1="171.928" y1="143.408" x2="195.212" y2="143.408" xlink:href="#g"/><linearGradient id="o" x1="171.928" y1="166.987" x2="195.212" y2="166.987" xlink:href="#g"/><linearGradient id="p" x1="192.419" y1="155.197" x2="215.702" y2="155.197" xlink:href="#g"/><linearGradient id="q" x1="112.146" y1="130.555" x2="135.43" y2="130.555" gradientUnits="userSpaceOnUse"><stop offset="0" stop-color="#36b8e0"/><stop offset="0.995" stop-color="#2594b7"/></linearGradient><linearGradient id="r" x1="123.788" y1="136.085" x2="135.43" y2="136.085" gradientUnits="userSpaceOnUse"><stop offset="0" stop-color="#2393c9"/><stop offset="1" stop-color="#1d7cb3"/></linearGradient><linearGradient id="s" x1="112.146" y1="136.085" x2="123.788" y2="136.085" xlink:href="#r"/><linearGradient id="t" x1="191.472" y1="138.123" x2="235.993" y2="138.123" xlink:href="#g"/><linearGradient id="u" x1="191.472" y1="136.009" x2="235.993" y2="136.009" xlink:href="#q"/><linearGradient id="v" x1="191.472" y1="141.275" x2="224.758" y2="141.275" xlink:href="#r"/><linearGradient id="w" x1="224.752" y1="147.573" x2="235.993" y2="147.573" xlink:href="#r"/><linearGradient id="x" x1="132.637" y1="118.766" x2="155.921" y2="118.766" xlink:href="#q"/><linearGradient id="y" x1="144.279" y1="124.296" x2="155.921" y2="124.296" xlink:href="#r"/><linearGradient id="z" x1="132.637" y1="124.296" x2="144.279" y2="124.296" xlink:href="#r"/><linearGradient id="aa" x1="152.923" y1="106.977" x2="176.206" y2="106.977" xlink:href="#q"/><linearGradient id="ab" x1="164.565" y1="112.506" x2="176.206" y2="112.506" xlink:href="#r"/><linearGradient id="ac" x1="152.923" y1="112.506" x2="164.565" y2="112.506" xlink:href="#r"/><linearGradient id="ad" x1="131.785" y1="141.629" x2="155.068" y2="141.629" xlink:href="#q"/><linearGradient id="ae" x1="143.426" y1="147.159" x2="155.068" y2="147.159" xlink:href="#r"/><linearGradient id="af" x1="131.785" y1="147.159" x2="143.426" y2="147.159" xlink:href="#r"/><linearGradient id="ag" x1="152.276" y1="129.84" x2="175.559" y2="129.84" xlink:href="#q"/><linearGradient id="ah" x1="163.917" y1="135.37" x2="175.559" y2="135.37" xlink:href="#r"/><linearGradient id="ai" x1="152.276" y1="135.37" x2="163.917" y2="135.37" xlink:href="#r"/><linearGradient id="aj" x1="172.561" y1="118.05" x2="195.844" y2="118.05" xlink:href="#q"/><linearGradient id="ak" x1="184.203" y1="123.58" x2="195.845" y2="123.58" xlink:href="#r"/><linearGradient id="al" x1="172.561" y1="123.58" x2="184.203" y2="123.58" xlink:href="#r"/><linearGradient id="am" x1="151.437" y1="153.021" x2="174.72" y2="153.021" xlink:href="#q"/><linearGradient id="an" x1="163.079" y1="158.551" x2="174.721" y2="158.551" xlink:href="#r"/><linearGradient id="ao" x1="151.437" y1="158.551" x2="163.079" y2="158.551" xlink:href="#r"/><linearGradient id="ap" x1="171.928" y1="141.231" x2="195.211" y2="141.231" xlink:href="#q"/><linearGradient id="aq" x1="183.57" y1="146.761" x2="195.211" y2="146.761" xlink:href="#r"/><linearGradient id="ar" x1="171.928" y1="146.761" x2="183.57" y2="146.761" xlink:href="#r"/><linearGradient id="as" x1="171.928" y1="164.81" x2="195.211" y2="164.81" xlink:href="#q"/><linearGradient id="at" x1="183.57" y1="170.34" x2="195.211" y2="170.34" xlink:href="#r"/><linearGradient id="au" x1="171.928" y1="170.34" x2="183.57" y2="170.34" xlink:href="#r"/><linearGradient id="av" x1="192.419" y1="153.021" x2="215.702" y2="153.021" xlink:href="#q"/><linearGradient id="aw" x1="204.061" y1="158.551" x2="215.702" y2="158.551" xlink:href="#r"/><linearGradient id="ax" x1="192.419" y1="158.551" x2="204.061" y2="158.551" xlink:href="#r"/><linearGradient id="ay" x1="132.128" y1="91.95" x2="160.508" y2="91.95" xlink:href="#d"/><linearGradient id="az" x1="75.365" y1="100.143" x2="132.128" y2="100.143" xlink:href="#d"/><linearGradient id="ba" x1="114.27" y1="107.03" x2="129.313" y2="107.03" gradientUnits="userSpaceOnUse"><stop offset="0" stop-color="#fff"/><stop offset="1" stop-color="#fff" stop-opacity="0"/></linearGradient><linearGradient id="bb" x1="63.375" y1="54.549" x2="111.593" y2="54.549" gradientUnits="userSpaceOnUse"><stop offset="0" stop-color="#b2d2eb"/><stop offset="1" stop-color="#f1fcff"/></linearGradient><linearGradient id="bc" x1="89.256" y1="103.971" x2="89.256" y2="6.6" xlink:href="#bb"/><linearGradient id="bd" x1="66.881" y1="55.312" x2="111.631" y2="55.312" xlink:href="#b"/><linearGradient id="be" x1="95.666" y1="89.195" x2="95.666" y2="50.986" gradientUnits="userSpaceOnUse"><stop offset="0" stop-color="#ddecf3"/><stop offset="1" stop-color="#b2d2eb"/></linearGradient><linearGradient id="bf" x1="82.148" y1="70.688" x2="92.663" y2="70.688" xlink:href="#be"/><linearGradient id="bg" x1="83.51" y1="56.29" x2="98.585" y2="56.29" xlink:href="#r"/><linearGradient id="bh" x1="79.155" y1="91.561" x2="79.155" y2="69.79" xlink:href="#be"/><linearGradient id="bi" x1="73.515" y1="62.517" x2="84.979" y2="62.517" xlink:href="#be"/><linearGradient id="bj" x1="71.175" y1="34.53" x2="107.016" y2="34.53" xlink:href="#be"/><radialGradient id="bk" cx="46.411" cy="142.149" r="32.334" gradientTransform="translate(92.821 227.439) rotate(180) scale(1 0.6)" gradientUnits="userSpaceOnUse"><stop offset="0" stop-color="#001651" stop-opacity="0.15"/><stop offset="0.426" stop-color="#364369" stop-opacity="0.039"/><stop offset="1" stop-color="#495371" stop-opacity="0"/></radialGradient><linearGradient id="bl" x1="46.411" y1="77.373" x2="46.411" y2="41.684" gradientUnits="userSpaceOnUse"><stop offset="0.004" stop-color="#804136"/><stop offset="1" stop-color="#9b6948"/></linearGradient><linearGradient id="bm" x1="47.766" y1="72.939" x2="47.766" y2="44.742" gradientUnits="userSpaceOnUse"><stop offset="0" stop-color="#9b6948"/><stop offset="0.996" stop-color="#804136"/></linearGradient><linearGradient id="bn" x1="72.168" y1="43.519" x2="72.168" y2="31.744" gradientUnits="userSpaceOnUse"><stop offset="0" stop-color="#ec9a9d"/><stop offset="0.687" stop-color="#f6d5c6"/></linearGradient><linearGradient id="bo" x1="72.609" y1="40.855" x2="72.609" y2="36.583" gradientUnits="userSpaceOnUse"><stop offset="0" stop-color="#ec9a9d"/><stop offset="0.687" stop-color="#f3c1b8"/></linearGradient><linearGradient id="bp" x1="62.12" y1="62.508" x2="62.12" y2="40.933" xlink:href="#q"/><linearGradient id="bq" x1="72.045" y1="41.201" x2="72.045" y2="36.02" gradientUnits="userSpaceOnUse"><stop offset="0" stop-color="#efaba9"/><stop offset="0.687" stop-color="#f6d5c6"/></linearGradient><linearGradient id="br" x1="48.926" y1="135.448" x2="55.382" y2="135.448" gradientUnits="userSpaceOnUse"><stop offset="0.313" stop-color="#f6d5c6"/><stop offset="1" stop-color="#ec9a9d"/></linearGradient><radialGradient id="bs" cx="52.247" cy="136.631" r="5.084" gradientUnits="userSpaceOnUse"><stop offset="0" stop-color="#4b5573"/><stop offset="1" stop-color="#414a6a"/></radialGradient><linearGradient id="bt" x1="47.505" y1="107.051" x2="58.746" y2="107.051" gradientUnits="userSpaceOnUse"><stop offset="0" stop-color="#3971c6"/><stop offset="0.995" stop-color="#1d427c"/></linearGradient><linearGradient id="bu" x1="38.062" y1="141.071" x2="42.419" y2="141.071" xlink:href="#br"/><radialGradient id="bv" cx="40.033" cy="142.886" r="5.166" xlink:href="#bs"/><linearGradient id="bw" x1="38.407" y1="109.231" x2="58.015" y2="109.231" xlink:href="#bt"/><linearGradient id="bx" x1="41.027" y1="71.452" x2="59.501" y2="71.452" xlink:href="#q"/><linearGradient id="by" x1="48.083" y1="57.059" x2="52.897" y2="57.059" xlink:href="#br"/><linearGradient id="bz" x1="47.812" y1="51.826" x2="56.396" y2="51.826" xlink:href="#bn"/><linearGradient id="ca" x1="52.572" y1="54.157" x2="52.572" y2="46.174" xlink:href="#br"/><linearGradient id="cb" x1="55.286" y1="53.804" x2="55.286" y2="51.654" xlink:href="#bn"/><linearGradient id="cc" x1="39.691" y1="85.908" x2="47.894" y2="85.908" xlink:href="#br"/><linearGradient id="cd" x1="38.674" y1="62.401" x2="38.674" y2="84.283" xlink:href="#q"/><linearGradient id="ce" x1="-3012.829" y1="-5505.821" x2="-2999.246" y2="-5505.821" gradientTransform="matrix(0.513, -0.858, -0.858, -0.513, -2983.283, -5327.921)" gradientUnits="userSpaceOnUse"><stop offset="0" stop-color="#e4c467"/><stop offset="1" stop-color="#e3bb26"/></linearGradient><linearGradient id="cf" x1="-3010.245" y1="-5504.821" x2="-2997.053" y2="-5504.821" gradientTransform="matrix(0.513, -0.858, -0.858, -0.513, -2983.283, -5327.921)" gradientUnits="userSpaceOnUse"><stop offset="0" stop-color="#ffdc6c"/><stop offset="1" stop-color="#ffd21f"/></linearGradient><linearGradient id="cg" x1="-3007.658" y1="-5504.821" x2="-2999.639" y2="-5504.821" gradientTransform="matrix(0.513, -0.858, -0.858, -0.513, -2983.283, -5327.921)" gradientUnits="userSpaceOnUse"><stop offset="0" stop-color="#ffe593"/><stop offset="1" stop-color="#ffde5a"/></linearGradient><linearGradient id="ch" x1="-3009.841" y1="-5504.033" x2="-2996.257" y2="-5504.033" xlink:href="#ce"/><linearGradient id="ci" x1="-3007.256" y1="-5503.033" x2="-2994.064" y2="-5503.033" xlink:href="#cf"/><linearGradient id="cj" x1="-3004.67" y1="-5503.033" x2="-2996.651" y2="-5503.033" xlink:href="#cg"/><linearGradient id="ck" x1="-3026.845" y1="-5501.722" x2="-3013.262" y2="-5501.722" xlink:href="#ce"/><linearGradient id="cl" x1="-3024.261" y1="-5500.721" x2="-3011.069" y2="-5500.721" xlink:href="#cf"/><linearGradient id="cm" x1="-3021.674" y1="-5500.721" x2="-3013.655" y2="-5500.721" xlink:href="#cg"/><linearGradient id="cn" x1="-3023.857" y1="-5499.934" x2="-3010.273" y2="-5499.934" xlink:href="#ce"/><linearGradient id="co" x1="-3021.272" y1="-5498.934" x2="-3008.08" y2="-5498.934" xlink:href="#cf"/><linearGradient id="cp" x1="-3018.686" y1="-5498.934" x2="-3010.667" y2="-5498.934" xlink:href="#cg"/><linearGradient id="cq" x1="-3021.946" y1="-5497.319" x2="-3008.363" y2="-5497.319" xlink:href="#ce"/><linearGradient id="cr" x1="-3019.362" y1="-5496.318" x2="-3006.17" y2="-5496.318" xlink:href="#cf"/><linearGradient id="cs" x1="-3016.776" y1="-5496.318" x2="-3008.757" y2="-5496.318" xlink:href="#cg"/><linearGradient id="ct" x1="-3018.088" y1="-5495.673" x2="-3004.504" y2="-5495.673" xlink:href="#ce"/><linearGradient id="cu" x1="-3015.503" y1="-5494.673" x2="-3002.311" y2="-5494.673" xlink:href="#cf"/><linearGradient id="cv" x1="-3012.917" y1="-5494.673" x2="-3004.898" y2="-5494.673" xlink:href="#cg"/><linearGradient id="cw" x1="-3013.152" y1="-5520.914" x2="-2999.569" y2="-5520.914" xlink:href="#ce"/><linearGradient id="cx" x1="-3010.568" y1="-5519.914" x2="-2997.376" y2="-5519.914" xlink:href="#cf"/><linearGradient id="cy" x1="-3007.981" y1="-5519.914" x2="-2999.962" y2="-5519.914" xlink:href="#cg"/><linearGradient id="cz" x1="-3024.453" y1="-5520.932" x2="-3010.87" y2="-5520.932" xlink:href="#ce"/><linearGradient id="da" x1="-3021.868" y1="-5519.932" x2="-3008.676" y2="-5519.932" xlink:href="#cf"/><linearGradient id="db" x1="-3019.282" y1="-5519.932" x2="-3011.263" y2="-5519.932" xlink:href="#cg"/><linearGradient id="dc" x1="-3021.464" y1="-5519.144" x2="-3007.881" y2="-5519.144" xlink:href="#ce"/><linearGradient id="dd" x1="-3018.88" y1="-5518.144" x2="-3005.688" y2="-5518.144" xlink:href="#cf"/><linearGradient id="de" x1="-3016.293" y1="-5518.144" x2="-3008.275" y2="-5518.144" xlink:href="#cg"/><linearGradient id="df" x1="83.172" y1="172.583" x2="113.334" y2="202.744" gradientUnits="userSpaceOnUse"><stop offset="0" stop-color="#001651" stop-opacity="0.1"/><stop offset="0.321" stop-color="#2c3b64" stop-opacity="0.039"/><stop offset="1" stop-color="#495371" stop-opacity="0"/></linearGradient><linearGradient id="dg" x1="-20708.958" y1="-18035.639" x2="-20688.79" y2="-18035.639" gradientTransform="translate(25152.666 22015.195) scale(1.211)" gradientUnits="userSpaceOnUse"><stop offset="0" stop-color="#e5b576"/><stop offset="1" stop-color="#c69662"/></linearGradient><linearGradient id="dh" x1="-20697.193" y1="-18056.016" x2="-20687.109" y2="-18038.55" gradientTransform="translate(25152.666 22015.195) scale(1.211)" gradientUnits="userSpaceOnUse"><stop offset="0" stop-color="#eabe87"/><stop offset="1" stop-color="#e5b576"/></linearGradient><linearGradient id="di" x1="-20685.428" y1="-18039.52" x2="-20678.706" y2="-18027.876" gradientTransform="translate(25152.666 22015.195) scale(1.211)" gradientUnits="userSpaceOnUse"><stop offset="0" stop-color="#c69662"/><stop offset="1" stop-color="#c69162"/></linearGradient><linearGradient id="dj" x1="-18618.785" y1="-16019.465" x2="-18598.617" y2="-16019.465" gradientTransform="translate(12129.483 10566.801) scale(0.649)" xlink:href="#dg"/><linearGradient id="dk" x1="-18607.021" y1="-16039.842" x2="-18596.936" y2="-16022.376" gradientTransform="translate(12129.483 10566.801) scale(0.649)" xlink:href="#dh"/><linearGradient id="dl" x1="-18595.256" y1="-16023.346" x2="-18588.533" y2="-16011.702" gradientTransform="translate(12129.483 10566.801) scale(0.649)" xlink:href="#di"/><linearGradient id="dm" x1="-17823.448" y1="-15293.886" x2="-17803.28" y2="-15293.886" gradientTransform="translate(9682.39 8431.473) scale(0.539)" xlink:href="#dg"/><linearGradient id="dn" x1="-17811.684" y1="-15314.264" x2="-17801.599" y2="-15296.797" gradientTransform="translate(9682.39 8431.473) scale(0.539)" xlink:href="#dh"/><linearGradient id="do" x1="-17799.919" y1="-15297.768" x2="-17793.196" y2="-15286.124" gradientTransform="translate(9682.39 8431.473) scale(0.539)" xlink:href="#di"/></defs><path class="a" d="M249.606,149.5c-1.5-22.508-15.849-36.581-11.254-56.271,5.252-22.509,7.5-33.013-1.5-47.268-10.892-17.246-36.014-23.259-74.35-2.6C114.227,69.373,75.625,23.39,48.79,47.036c-27.014,23.8-9.02,55.026-23.489,81.512-35.644,65.246,22.744,81.466,69.622,70.047,38.4-9.355,40.764,16.353,83.406,10.173C230.1,201.265,251.29,174.749,249.606,149.5Z"/><ellipse class="b" cx="149.247" cy="140.42" rx="81.704" ry="47.17" transform="translate(-0.759 0.811) rotate(-0.311)"/><polygon class="c" points="182.549 185.111 62.987 116.082 62.987 124.752 182.549 193.782 250.87 154.336 250.87 145.666 182.549 185.111"/><polygon class="d" points="62.987 116.082 131.308 76.636 250.87 145.666 182.549 185.111 62.987 116.082"/><polygon class="e" points="62.987 124.752 182.549 193.782 182.549 185.111 62.987 116.082 62.987 124.752"/><polygon class="f" points="250.87 154.336 250.87 145.666 182.549 185.111 182.549 193.782 250.87 154.336"/><polygon class="g" points="132.127 82.837 75.365 115.609 103.746 131.995 160.508 99.223 132.127 82.837"/><polygon class="h" points="135.43 130.548 123.743 123.841 112.147 130.548 112.147 134.901 123.788 141.622 135.43 134.901 135.43 130.548"/><polygon class="i" points="155.921 123.111 155.921 118.759 144.234 112.052 132.637 118.759 132.637 123.111 144.279 129.833 155.921 123.111"/><polygon class="j" points="176.206 111.322 176.206 106.969 164.519 100.262 152.923 106.969 152.923 111.322 164.565 118.043 176.206 111.322"/><polygon class="k" points="155.068 141.622 143.381 134.915 131.785 141.622 131.785 145.975 143.426 152.696 155.068 145.975 155.068 141.622"/><polygon class="l" points="175.559 129.833 163.872 123.126 152.276 129.833 152.276 134.185 163.917 140.906 175.559 134.185 175.559 129.833"/><polygon class="m" points="172.561 122.396 184.203 129.117 195.845 122.396 195.844 118.043 184.157 111.336 172.561 118.043 172.561 122.396"/><polygon class="n" points="174.72 153.014 163.033 146.307 151.437 153.014 151.437 157.366 163.079 164.087 174.72 157.366 174.72 153.014"/><polygon class="o" points="171.928 141.224 171.928 145.577 183.57 152.298 195.212 145.577 195.211 141.224 183.524 134.517 171.928 141.224"/><polygon class="p" points="183.524 158.096 171.928 164.803 171.928 169.156 183.57 175.877 195.212 169.156 195.211 164.803 183.524 158.096"/><polygon class="q" points="215.702 153.014 204.015 146.307 192.419 153.014 192.419 157.366 204.061 164.087 215.702 157.366 215.702 153.014"/><polygon class="r" points="135.43 130.548 123.743 123.841 112.146 130.548 123.788 137.27 135.43 130.548"/><polygon class="s" points="135.43 134.901 123.788 141.622 123.788 137.27 135.43 130.548 135.43 134.901"/><polygon class="t" points="112.146 134.901 123.788 141.622 123.788 137.27 112.146 130.548 112.146 134.901"/><polygon class="u" points="235.993 142.149 202.428 123.248 191.472 129.555 191.472 133.778 224.752 152.992 224.752 152.998 224.757 152.995 224.758 152.996 224.758 152.994 235.993 146.378 235.993 142.149"/><polygon class="v" points="235.993 142.149 202.428 123.248 191.472 129.555 224.752 148.769 235.993 142.149"/><polygon class="w" points="224.752 148.769 191.472 129.555 191.472 133.778 224.758 152.996 224.752 148.769"/><polygon class="x" points="235.993 146.378 224.752 152.998 224.752 148.769 235.993 142.149 235.993 146.378"/><polygon class="y" points="155.921 118.759 144.234 112.052 132.637 118.759 144.279 125.48 155.921 118.759"/><polygon class="z" points="155.921 123.111 144.279 129.833 144.279 125.48 155.921 118.759 155.921 123.111"/><polygon class="aa" points="132.637 123.111 144.279 129.833 144.279 125.48 132.637 118.759 132.637 123.111"/><polygon class="ab" points="176.206 106.969 164.519 100.262 152.923 106.969 164.565 113.691 176.206 106.969"/><polygon class="ac" points="176.206 111.322 164.565 118.043 164.565 113.691 176.206 106.969 176.206 111.322"/><polygon class="ad" points="152.923 111.322 164.565 118.043 164.565 113.691 152.923 106.969 152.923 111.322"/><polygon class="ae" points="155.068 141.622 143.381 134.915 131.785 141.622 143.426 148.343 155.068 141.622"/><polygon class="af" points="155.068 145.975 143.426 152.696 143.426 148.343 155.068 141.622 155.068 145.975"/><polygon class="ag" points="131.785 145.975 143.426 152.696 143.426 148.343 131.785 141.622 131.785 145.975"/><polygon class="ah" points="175.559 129.833 163.872 123.126 152.276 129.833 163.917 136.554 175.559 129.833"/><polygon class="ai" points="175.559 134.185 163.917 140.906 163.917 136.554 175.559 129.833 175.559 134.185"/><polygon class="aj" points="152.276 134.185 163.917 140.906 163.917 136.554 152.276 129.833 152.276 134.185"/><polygon class="ak" points="195.844 118.043 184.157 111.336 172.561 118.043 184.203 124.765 195.844 118.043"/><polygon class="al" points="195.845 122.396 184.203 129.117 184.203 124.765 195.844 118.043 195.845 122.396"/><polygon class="am" points="172.561 122.396 184.203 129.117 184.203 124.765 172.561 118.043 172.561 122.396"/><polygon class="an" points="174.72 153.014 163.033 146.307 151.437 153.014 163.079 159.735 174.72 153.014"/><polygon class="ao" points="174.721 157.366 163.079 164.087 163.079 159.735 174.72 153.014 174.721 157.366"/><polygon class="ap" points="151.437 157.366 163.079 164.087 163.079 159.735 151.437 153.014 151.437 157.366"/><polygon class="aq" points="195.211 141.224 183.524 134.517 171.928 141.224 183.57 147.946 195.211 141.224"/><polygon class="ar" points="195.211 145.577 183.57 152.298 183.57 147.946 195.211 141.224 195.211 145.577"/><polygon class="as" points="171.928 145.577 183.57 152.298 183.57 147.946 171.928 141.224 171.928 145.577"/><polygon class="at" points="195.211 164.803 183.524 158.096 171.928 164.803 183.57 171.524 195.211 164.803"/><polygon class="au" points="195.211 169.156 183.57 175.877 183.57 171.524 195.211 164.803 195.211 169.156"/><polygon class="av" points="171.928 169.156 183.57 175.877 183.57 171.524 171.928 164.803 171.928 169.156"/><polygon class="aw" points="215.702 153.014 204.015 146.307 192.419 153.014 204.061 159.735 215.702 153.014"/><polygon class="ax" points="215.702 157.366 204.061 164.087 204.061 159.735 215.702 153.014 215.702 157.366"/><polygon class="ay" points="192.419 157.366 204.061 164.087 204.061 159.735 192.419 153.014 192.419 157.366"/><polyline class="az" points="132.128 86.517 157.322 101.063 160.508 99.223 132.128 82.837 132.128 86.516"/><polygon class="ba" points="78.551 117.449 132.128 86.516 132.128 82.837 75.365 115.609 78.551 117.449"/><polygon class="bb" points="121.004 122.031 129.313 88.141 122.579 92.029 114.27 125.919 121.004 122.031"/><path class="bc" d="M69.131,27.507a12.7,12.7,0,0,0-5.756,9.97L63.512,98.8a4.041,4.041,0,0,0,1.686,3.7l1.789,1.072c3.617-2.281,44.942-96.331,44.6-96.535-.632-.38-1.256-.766-1.878-1.128-1.28-.757-2.911-.289-4.108.4h0Z"/><path class="bd" d="M113.2,10.693c-.01-3.662-2.6-5.143-5.793-3.3L70.931,28.585a12.694,12.694,0,0,0-5.755,9.969l.137,61.325c.01,3.661,2.607,5.141,5.793,3.3L107.58,81.987a12.691,12.691,0,0,0,5.756-9.97Z"/><path class="be" d="M111.5,12.981c-.01-3.522-2.526-4.947-5.621-3.175L72.465,29.066a12.194,12.194,0,0,0-5.584,9.59l.133,58.988c.01,3.522,2.53,4.946,5.622,3.176l33.41-19.26a12.188,12.188,0,0,0,5.585-9.59Z"/><path class="bf" d="M99.029,50.986c2.839,1.721,4.591,5.291,4.606,10.331C103.664,71.526,96.55,83.938,87.7,89.2c.02-2.486.043-5.812.064-9.514,4.265-2.66,7.659-8.662,7.646-13.613C95.4,63.6,94.548,61.85,93.166,61,95.435,57.114,97.485,53.617,99.029,50.986Z"/><path class="bg" d="M87.388,64.647c2.9-1.672,5.266-.322,5.275,3a11.575,11.575,0,0,1-5.241,9.079c-2.895,1.671-5.265.321-5.274-3.007A11.573,11.573,0,0,1,87.388,64.647Z"/><path class="bh" d="M87.352,52.038c4.353-2.513,8.31-2.825,11.233-1.3-1.545,2.634-3.595,6.133-5.869,10.021-1.42-.636-3.289-.443-5.337.74a12.487,12.487,0,0,0-1.8,1.272c-.8-3.063-1.525-5.87-2.07-7.983A25.661,25.661,0,0,1,87.352,52.038Z"/><path class="bi" d="M73.2,69.79c1.876.2,4.383.455,7.1.729a14.227,14.227,0,0,0-.9,4.788c.014,4.964,3.449,7.031,7.731,4.739-.02,3.695-.043,7.02-.062,9.506-8.787,4.838-15.87.657-15.9-9.494A29.278,29.278,0,0,1,73.2,69.79Z"/><path class="bj" d="M82.906,55.316c.537,2.077,1.255,4.854,2.073,7.986a18.837,18.837,0,0,0-4.367,6.415c-2.814-.283-5.273-.538-7.1-.728A38.055,38.055,0,0,1,82.906,55.316Z"/><path class="bk" d="M71.246,56.876l-.006-2.048L84.148,47.4l.006,2.047L71.246,56.876ZM71.175,32.8l35.783-20.612.006,2.048L71.181,34.843,71.175,32.8Zm14.182-4.864L71.185,36.083l.006,2.047,14.172-8.151-.006-2.047ZM71.219,47.907,107,27.3l-.025-8.539L71.194,39.368l.025,8.539Zm.013,4.308L107.016,31.6l-.008-2.693L71.224,49.521Z"/><ellipse class="bl" cx="46.411" cy="142.149" rx="40.616" ry="21.006"/><path class="bm" d="M53.22,42.607a4.533,4.533,0,0,1,4.587,2.667c.7,1.934.059,4.614-.45,5.909-1.435,3.647.988,5.4,1.6,7.393.271.878-.4,2.444-.532,3.71-.187,1.752,1.029,3.625.123,5.421-1,1.982-5.293,5.932-7.088,6.922-12.173,5.338-16.693,2.1-17.625-2.987-.441-2.4,2.9-5.062,2.235-6.76-1.585-4.039-.955-7.6,2.576-10.3a8.821,8.821,0,0,0,2.674-2.749c1.037-2.034.508-5.469,2.56-7.856C46.3,41.162,49.6,41.237,53.22,42.607Z"/><path class="bn" d="M54.8,44.742a4.662,4.662,0,0,1-1.2,3.146c-1.776,2.271-2.609,2.094-3.7,4.987-1.377-.967-2.361-1.114-2.848-.165-.783,1.526-.426,2.429-.7,4.008-.442,2.566-2.207,2.195-4.731,4.2-1.766,1.4-4.287,4.972-3.058,11.84.251,1.4,5.254-5.594,10.314-5.594l4.247-1.043c1.786-1.508,2.99-1.7,3.627-2.615s.708-2.146.224-3.812c-.443-1.524-1.274-2.819-1.194-4.009C56.057,51.59,57.039,48.966,54.8,44.742Z"/><path class="bo" d="M75.936,36.669a3.76,3.76,0,0,0-2.317-1.8l.258-.4.627-.94c.7-.338,1.482-1,1.014-1.783l-1.554.982a13.525,13.525,0,0,0-2.144,2.5A5.652,5.652,0,0,0,71,36.43c-.742,1.417-1.138,2.8-1.766,4.222-.279.633-.577,1.249-.889,1.854l2.93,1.013a10.527,10.527,0,0,1,.672-1.665,11.989,11.989,0,0,1,1.961-1.627c.81-.664.753-1.194,1.116-2.222C76.081,37.352,76.049,36.927,75.936,36.669Z"/><path class="bp" d="M71.554,37.031c.685-1.024.893-.038,1.585.443a3,3,0,0,0,1.264.463c.195.38-3.063,2.487-3.6,2.918.361-.888.944-2.044.657-2.51Z"/><path class="bq" d="M63.126,50.892c1.434-3.068,3.139-5.242,4.574-8.029.161-.312.571-.532.725-.85.171-.356.338-.715.5-1.08a6.266,6.266,0,0,0,3,1.3c-.171.357-.222.51-.477,1.072-.139.4.047.73-.1,1.216-.959,3.085-2.476,8.13-3.522,9.336-.775.911-6.567,6.656-10.425,8.321-3.813,1.644-5.683-3.383-4.919-4.435C54.272,55.28,61.854,51.971,63.126,50.892Z"/><path class="br" d="M70.7,40.5c1.328-.113,1.452-1.31,1.556-2.049a6.183,6.183,0,0,0,.918-1.108c1.368-.429,1.666-.679,1.4-1.327-.471.073-1.568.337-1.963.439-2.029,1.213-2.383,1.289-3.175,4.207l.848.535Z"/><path class="bs" d="M49.674,130.607c-1.786,2.152.211,1.817.04,4.658-.015.25.971,4.585.971,4.585s2.651.723,2.852.695,1.845-.589,1.845-.589c-.129-.237-.291-.81-.4-1.028a16.9,16.9,0,0,1-1.132-5.083,28.929,28.929,0,0,1-.484-3.5Z"/><path class="bt" d="M54.636,138.137c.285.513.593,1.248.855,1.8a11.143,11.143,0,0,1,.669,1.745.808.808,0,0,1-.06.7c-.641.842-3.849-.694-4.925-1.624a3.209,3.209,0,0,1-.87-2.179c-.245-1.3-.287-1.45-.606-2.788l-.361,3.634-.306.181a39.575,39.575,0,0,0-.458-4.7c-.093-.5-.252-1.079-.274-1.358a2.865,2.865,0,0,1,1.462-2.918c-.28,1,.46,2.627.8,4.676.352,2.144,1.565,4.489,2.517,4.687a4.016,4.016,0,0,0,1.772-.676C55.031,139.216,54.823,138.6,54.636,138.137Z"/><path class="bu" d="M58.417,82.591c.107.988.241,3.437.319,7.15a139.421,139.421,0,0,1-.793,15.118c-1.014,8.722-2.5,17.321-4.133,25.945-.765.868-2.811,1.03-4.607-.051.05-2.809-.513-6.342-.3-10.258.3-5.4.856-10.145,1.253-15.125-.731-5.994-2.8-14.992-2.645-22.37Z"/><path class="bv" d="M39.488,134.766a14.74,14.74,0,0,1-.4,1.6,18.663,18.663,0,0,0-.686,2.718,24.823,24.823,0,0,0-.324,5.019c.026.709.275,1.049.3,2.018l3.894,1.257c-.056-.839-.121-2.121-.116-3.535.005-1.264.074-2.634.129-3.887.064-1.439,0-2.749.13-3.542Z"/><path class="bw" d="M39.2,136.061a7.862,7.862,0,0,0-.939,2.288c-.225,1.105-.013,2.906-.292,4.275l-.442,2.172a3.281,3.281,0,0,0,1.168,3.427c1.138,1.122,2.338,1.677,3.085,1.429.551-.182,1.111-1.028.739-3.5a42.815,42.815,0,0,1-.222-6.206,21.842,21.842,0,0,0-.16,4.979c.042.595.038,1.556-.659,1.565-2.886.036-2.9-.744-2.98-1.648A28.815,28.815,0,0,1,39.2,136.061Z"/><path class="bx" d="M45.274,80.533c-1.235,3.534-3.536,6.773-4.077,9.545-.812,4.165-.14,8,.612,17.063a22.836,22.836,0,0,1-.057,4.788c-.42,3.939-1.637,6.716-2.206,10.112a137.292,137.292,0,0,0-1.139,14.99c1.153.843,3.736,1.211,4.477.581,1.279-6.628,2.916-12.489,4.4-17.762.683-2.43,1.439-4.975,2.318-7.874a22.511,22.511,0,0,0,.9-4.29c.385-3.866.742-8.505.931-12.474,3.386-4.631,5.555-6.905,6.522-9.316a10.626,10.626,0,0,0-.24-3.462Z"/><path class="by" d="M43.63,75.2c1.529,3.54-.882,5.583.055,8.021l-.458,1.062c2.792,2,12.965,3.648,15.468-.326l.053-1.982c.431-.949-.064-4.336-.19-4.969a26.161,26.161,0,0,1-.408-4.859c-.086-1.617.405-1.4.928-2.9a6.3,6.3,0,0,0-.591-5.741,16.217,16.217,0,0,1-1.546-3.314,14,14,0,0,0-.385-1.749,2.908,2.908,0,0,0-.466-.955c-.634-.906-1.773-1.365-3.756-.533-1.781.747-4.93,1.722-6.969,3.55-.787.706-2.682,1.058-3.687,2.334a4.019,4.019,0,0,0-.63,1.925C40.834,67.888,42.37,72.284,43.63,75.2Z"/><path class="bz" d="M48.5,53.969a10.986,10.986,0,0,1-.419,5.375c1.509,1.4,4.191.8,4.814-.462-.132-.819-.285-1.571-.373-2.411Z"/><path class="ca" d="M54.732,46.174a5.975,5.975,0,0,1,.979,4.092,1.753,1.753,0,0,0,.14.978,3.863,3.863,0,0,1,.292,3.351c-.339,1.237-.316,1.884-.738,2.308a2.458,2.458,0,0,1-1.63.571,9.835,9.835,0,0,1-4.182-1.286c-.833-.455-.8-.766-1.153-1.556-1.175-1.022-.414-1.769-.02-1.845,1.13-.219,1.313,1.082,1.982,1.37C50.291,51.87,54.649,48.01,54.732,46.174Z"/><path class="cb" d="M54.732,46.174c-.632,2.808-4.3,4.933-4.33,7.983C51.405,50.987,54.962,48.818,54.732,46.174Z"/><path class="cc" d="M54.882,51.146a2.418,2.418,0,0,1,.4-.581,3.837,3.837,0,0,0,.853-.852,2.33,2.33,0,0,1-.657.981A2.955,2.955,0,0,1,54.882,51.146Z"/><path class="cc" d="M53.576,51.952a1.776,1.776,0,0,0-.8.262,4.226,4.226,0,0,1-.826.584,3.542,3.542,0,0,0,.977-.4C53.162,52.278,53.313,52.049,53.576,51.952Z"/><path class="cd" d="M55.316,54.753a2.158,2.158,0,0,0-.536.283c-.567.3-.526.314-1.043.592.517.075,1.193.289,1.672-.079C55.477,55.5,55.586,54.672,55.316,54.753Z"/><path class="ce" d="M54.665,51.654c.654,1.233,1.625,1.26.573,2.15C56.691,53.06,55.436,52.775,54.665,51.654Z"/><path class="cf" d="M55.342,55.038a2.045,2.045,0,0,0-.4.188,2.216,2.216,0,0,1-.855.316,1.72,1.72,0,0,0,1.3-.226C55.42,55.284,55.506,54.989,55.342,55.038Z"/><path class="cc" d="M55.352,50.547c.094,0,.17.107.17.238s-.076.238-.17.238-.168-.107-.168-.238S55.259,50.547,55.352,50.547Z"/><path class="cc" d="M52.874,52.183c.1,0,.171.087.171.229s-.082.257-.183.257-.182-.115-.182-.257A.208.208,0,0,1,52.874,52.183Z"/><path class="cg" d="M41.776,82.386c.5.3,1.4.592,1.76.808.187.112,1.533.95,2.29,1.459a5.311,5.311,0,0,1,1.521,2.2,5.481,5.481,0,0,1,.545,1.582c.052.367-.882,1.074-1.279.987-.9-.2-1.822-1.307-2.06-1.43-2.019-1.048-2.987-1.151-3.717-1.984-.311-.356-.5-1.4-1.145-2.332l1.238-1.12Z"/><path class="ch" d="M41.777,62.633c-3,1.89-6.068,7.348-9.039,11.166a1.814,1.814,0,0,0-.289,2.058,5.666,5.666,0,0,0,.584,1.05,26.831,26.831,0,0,0,5.581,6.408,1.818,1.818,0,0,0,.776.365c.19.156.454.439.657.6-.251-.323,1.25-1.94,1.931-1.832-.175-.217-.353-.452-.535-.7a1,1,0,0,0-.2-.644c-1.259-1.823-2.355-4.357-3.914-6.065a39.875,39.875,0,0,0,5.449-4.684c.412-.476.634-.708,1.04-1.2C46.877,65.425,43.766,61.38,41.777,62.633Z"/><path class="ci" d="M192.63,82.876a11.743,11.743,0,0,0,11.739.182,4.825,4.825,0,0,0,2.494-4.023h0l0-.129,0-.059.1-3.217-2.266-.018c-.078-.054-.15-.113-.233-.163h0a11.742,11.742,0,0,0-11.74-.182h0c-.134.075-.255.162-.379.246l-1.989-.016-.089,2.8c-.013.169-.019.337-.016.506l0,.1h.008A4.82,4.82,0,0,0,192.63,82.876Z"/><path class="cj" d="M204.607,71.657h0a4.881,4.881,0,0,1-.131,8.453h0a11.742,11.742,0,0,1-11.74-.182h0a4.881,4.881,0,0,1,.132-8.453h0A11.738,11.738,0,0,1,204.607,71.657Z"/><path class="ck" d="M202.28,73.279h0a2.967,2.967,0,0,1-.08,5.138h0a7.138,7.138,0,0,1-7.136-.111h0a2.967,2.967,0,0,1,.08-5.138h0A7.136,7.136,0,0,1,202.28,73.279Z"/><line class="cl" x1="197.457" y1="72.362" x2="198.572" y2="76.799"/><line class="cl" x1="195.427" y1="73.05" x2="196.048" y2="75.519"/><path class="cm" d="M192.63,79.393a11.74,11.74,0,0,0,11.739.183,4.828,4.828,0,0,0,2.494-4.023h0l0-.129,0-.06.1-3.217-2.266-.018c-.078-.053-.15-.112-.233-.162h0a11.742,11.742,0,0,0-11.74-.183h0c-.134.075-.255.162-.379.246l-1.989-.015-.089,2.8c-.013.169-.019.338-.016.507l0,.1h.008A4.817,4.817,0,0,0,192.63,79.393Z"/><path class="cn" d="M204.607,68.174h0a4.881,4.881,0,0,1-.131,8.454h0a11.742,11.742,0,0,1-11.74-.183h0a4.881,4.881,0,0,1,.132-8.453h0A11.743,11.743,0,0,1,204.607,68.174Z"/><path class="co" d="M202.28,69.8h0a2.968,2.968,0,0,1-.08,5.139h0a7.138,7.138,0,0,1-7.136-.111h0a2.967,2.967,0,0,1,.08-5.139h0A7.138,7.138,0,0,1,202.28,69.8Z"/><line class="cl" x1="197.457" y1="68.879" x2="198.572" y2="73.317"/><line class="cl" x1="195.427" y1="69.567" x2="196.048" y2="72.037"/><path class="cp" d="M181.916,92.8a11.738,11.738,0,0,0,11.739.182,4.823,4.823,0,0,0,2.494-4.023h.006l0-.13,0-.059.1-3.217L194,85.535c-.079-.053-.151-.113-.234-.163h0a11.743,11.743,0,0,0-11.739-.182h0c-.134.075-.255.162-.379.246l-1.989-.015-.089,2.8c-.013.169-.019.337-.016.507l0,.1h.007A4.82,4.82,0,0,0,181.916,92.8Z"/><path class="cq" d="M193.893,81.58h0a4.881,4.881,0,0,1-.131,8.454h0a11.74,11.74,0,0,1-11.739-.183h0a4.881,4.881,0,0,1,.131-8.453h0A11.74,11.74,0,0,1,193.893,81.58Z"/><path class="cr" d="M191.566,83.2h0a2.967,2.967,0,0,1-.08,5.138h0a7.136,7.136,0,0,1-7.136-.111h0a2.967,2.967,0,0,1,.08-5.138h0A7.138,7.138,0,0,1,191.566,83.2Z"/><line class="cl" x1="186.743" y1="82.285" x2="187.859" y2="86.722"/><line class="cl" x1="184.713" y1="82.973" x2="185.334" y2="85.443"/><path class="cs" d="M181.916,89.317a11.743,11.743,0,0,0,11.739.182,4.824,4.824,0,0,0,2.494-4.023h.006l0-.129,0-.059.1-3.217L194,82.053c-.079-.054-.151-.113-.234-.163h0a11.74,11.74,0,0,0-11.739-.182h0c-.134.075-.255.162-.379.246l-1.989-.016-.089,2.8c-.013.168-.019.337-.016.506l0,.1h.007A4.822,4.822,0,0,0,181.916,89.317Z"/><path class="ct" d="M193.893,78.1h0a4.881,4.881,0,0,1-.131,8.453h0a11.74,11.74,0,0,1-11.739-.182h0a4.881,4.881,0,0,1,.131-8.454h0A11.74,11.74,0,0,1,193.893,78.1Z"/><path class="cu" d="M191.566,79.72h0a2.967,2.967,0,0,1-.08,5.138h0a7.138,7.138,0,0,1-7.136-.111h0a2.966,2.966,0,0,1,.08-5.138h0A7.136,7.136,0,0,1,191.566,79.72Z"/><line class="cl" x1="186.743" y1="78.803" x2="187.859" y2="83.24"/><line class="cl" x1="184.713" y1="79.49" x2="185.334" y2="81.96"/><path class="cv" d="M180.653,86.335a11.743,11.743,0,0,0,11.739.182,4.822,4.822,0,0,0,2.493-4.023h.006l0-.129,0-.059.1-3.217-2.266-.018c-.079-.054-.15-.113-.234-.163h0a11.74,11.74,0,0,0-11.739-.182h0c-.135.075-.255.162-.379.246l-1.99-.016-.088,2.8a4.752,4.752,0,0,0-.016.506l0,.1h.008A4.82,4.82,0,0,0,180.653,86.335Z"/><path class="cw" d="M192.63,75.116h0a4.881,4.881,0,0,1-.132,8.453h0a11.74,11.74,0,0,1-11.739-.182h0a4.881,4.881,0,0,1,.131-8.453h0A11.742,11.742,0,0,1,192.63,75.116Z"/><path class="cx" d="M190.3,76.738h0a2.967,2.967,0,0,1-.08,5.138h0a7.136,7.136,0,0,1-7.135-.111h0a2.967,2.967,0,0,1,.079-5.138h0A7.136,7.136,0,0,1,190.3,76.738Z"/><line class="cl" x1="185.48" y1="75.821" x2="186.595" y2="80.258"/><line class="cl" x1="183.45" y1="76.509" x2="184.071" y2="78.978"/><path class="cy" d="M181.222,82.179a11.743,11.743,0,0,0,11.739.182,4.825,4.825,0,0,0,2.493-4.023h.006l0-.129,0-.059.1-3.217-2.266-.018c-.079-.054-.15-.113-.234-.163h0a11.74,11.74,0,0,0-11.739-.182h0c-.135.075-.256.162-.379.246l-1.99-.016-.088,2.8a4.744,4.744,0,0,0-.016.506l0,.1h.008A4.82,4.82,0,0,0,181.222,82.179Z"/><path class="cz" d="M193.2,70.96h0a4.881,4.881,0,0,1-.132,8.453h0a11.74,11.74,0,0,1-11.739-.182h0a4.882,4.882,0,0,1,.131-8.454h0A11.742,11.742,0,0,1,193.2,70.96Z"/><path class="da" d="M190.871,72.582h0a2.967,2.967,0,0,1-.08,5.138h0a7.136,7.136,0,0,1-7.135-.111h0a2.967,2.967,0,0,1,.079-5.138h0A7.136,7.136,0,0,1,190.871,72.582Z"/><line class="cl" x1="186.049" y1="71.665" x2="187.164" y2="76.102"/><line class="cl" x1="184.019" y1="72.352" x2="184.639" y2="74.822"/><path class="db" d="M205.416,90.9a11.743,11.743,0,0,0,11.739.182,4.824,4.824,0,0,0,2.494-4.023h.006l0-.129,0-.059.1-3.218-2.265-.018c-.079-.053-.151-.112-.234-.162h0a11.738,11.738,0,0,0-11.739-.182h0c-.134.075-.255.162-.379.246l-1.989-.016-.089,2.8c-.013.168-.019.337-.016.506l0,.1h.007A4.822,4.822,0,0,0,205.416,90.9Z"/><path class="dc" d="M217.393,79.683h0a4.881,4.881,0,0,1-.131,8.453h0a11.74,11.74,0,0,1-11.739-.182h0a4.881,4.881,0,0,1,.131-8.454h0A11.74,11.74,0,0,1,217.393,79.683Z"/><path class="dd" d="M215.066,81.3h0a2.968,2.968,0,0,1-.08,5.139h0a7.138,7.138,0,0,1-7.136-.111h0a2.966,2.966,0,0,1,.08-5.138h0A7.135,7.135,0,0,1,215.066,81.3Z"/><line class="cl" x1="210.243" y1="80.387" x2="211.359" y2="84.825"/><line class="cl" x1="208.213" y1="81.075" x2="208.834" y2="83.545"/><path class="de" d="M199.63,100.608a11.74,11.74,0,0,0,11.739.183,4.824,4.824,0,0,0,2.493-4.023h.006l0-.129,0-.06.1-3.217-2.266-.018c-.079-.053-.15-.112-.233-.162h0A11.742,11.742,0,0,0,199.737,93h0c-.135.075-.255.162-.379.247l-1.99-.016-.088,2.8a4.771,4.771,0,0,0-.016.507l0,.1h.008A4.817,4.817,0,0,0,199.63,100.608Z"/><path class="df" d="M211.607,89.39h0a4.881,4.881,0,0,1-.132,8.453h0a11.74,11.74,0,0,1-11.739-.183h0a4.881,4.881,0,0,1,.131-8.453h0A11.742,11.742,0,0,1,211.607,89.39Z"/><path class="dg" d="M209.279,91.011h0a2.967,2.967,0,0,1-.08,5.139h0a7.136,7.136,0,0,1-7.135-.111h0a2.968,2.968,0,0,1,.079-5.139h0A7.138,7.138,0,0,1,209.279,91.011Z"/><line class="cl" x1="204.457" y1="90.094" x2="205.572" y2="94.532"/><line class="cl" x1="202.427" y1="90.782" x2="203.048" y2="93.252"/><path class="dh" d="M199.63,97.126a11.74,11.74,0,0,0,11.739.182,4.822,4.822,0,0,0,2.493-4.023h.006l0-.13,0-.059.1-3.217-2.266-.018c-.079-.054-.15-.113-.233-.163h0a11.745,11.745,0,0,0-11.74-.182h0c-.135.075-.255.162-.379.246l-1.99-.016-.088,2.8a4.762,4.762,0,0,0-.016.507l0,.1h.008A4.817,4.817,0,0,0,199.63,97.126Z"/><path class="di" d="M211.607,85.907h0a4.881,4.881,0,0,1-.132,8.453h0a11.738,11.738,0,0,1-11.739-.182h0a4.881,4.881,0,0,1,.131-8.453h0A11.742,11.742,0,0,1,211.607,85.907Z"/><path class="dj" d="M209.279,87.529h0a2.967,2.967,0,0,1-.08,5.138h0a7.134,7.134,0,0,1-7.135-.111h0a2.967,2.967,0,0,1,.079-5.138h0A7.138,7.138,0,0,1,209.279,87.529Z"/><line class="cl" x1="204.457" y1="86.612" x2="205.572" y2="91.049"/><line class="cl" x1="202.427" y1="87.3" x2="203.048" y2="89.769"/><polygon class="dk" points="51.593 176.487 107.204 208.594 136.487 190.414 81.489 159.053 51.593 176.487"/><polygon class="dl" points="81.212 140.168 64.923 149.572 64.923 168.38 89.356 182.487 105.644 173.082 105.644 154.274 81.212 140.168"/><polygon class="dm" points="64.923 168.38 64.923 149.572 89.356 163.678 89.356 182.487 64.923 168.38"/><polygon class="dn" points="64.923 149.572 81.212 140.168 105.644 154.274 89.356 163.678 64.923 149.572"/><polygon class="do" points="105.644 173.082 105.644 154.274 89.356 163.678 89.356 182.487 105.644 173.082"/><polygon class="dp" points="99.536 157.801 75.104 143.694 71.031 146.046 95.464 160.152 99.536 157.801"/><polygon class="dq" points="95.464 160.152 95.464 164.854 99.536 162.503 99.536 157.801 95.464 160.152"/><polygon class="dr" points="82.198 173.082 82.198 176.04 87.32 178.997 87.32 176.04 82.198 173.082"/><polygon class="ds" points="60.562 161.439 51.84 166.475 51.84 176.546 64.923 184.099 73.645 179.064 73.645 168.993 60.562 161.439"/><polygon class="dt" points="51.84 176.546 51.84 166.475 64.923 174.028 64.923 184.099 51.84 176.546"/><polygon class="du" points="51.84 166.475 60.562 161.439 73.645 168.993 64.923 174.028 51.84 166.475"/><polygon class="dv" points="73.645 179.064 73.645 168.993 64.923 174.028 64.923 184.099 73.645 179.064"/><polygon class="dp" points="70.374 170.881 57.292 163.328 55.111 164.587 68.194 172.14 70.374 170.881"/><polygon class="dq" points="68.194 172.14 68.194 174.658 70.374 173.399 70.374 170.881 68.194 172.14"/><polygon class="dr" points="61.09 179.064 61.09 180.647 63.833 182.231 63.833 180.647 61.09 179.064"/><polygon class="dl" points="80.873 174.906 73.624 179.091 73.624 187.461 84.497 193.738 91.746 189.554 91.746 181.184 80.873 174.906"/><polygon class="dw" points="73.624 187.461 73.624 179.091 84.497 185.369 84.497 193.738 73.624 187.461"/><polygon class="dx" points="73.624 179.091 80.873 174.906 91.746 181.184 84.497 185.369 73.624 179.091"/><polygon class="dy" points="91.746 189.554 91.746 181.184 84.497 185.369 84.497 193.738 91.746 189.554"/><polygon class="dp" points="89.028 182.753 78.155 176.475 76.343 177.522 87.215 183.799 89.028 182.753"/><polygon class="dq" points="87.215 183.799 87.215 185.892 89.028 184.845 89.028 182.753 87.215 183.799"/><polygon class="dr" points="81.312 189.554 81.312 190.87 83.591 192.186 83.591 190.87 81.312 189.554"/></svg>