<svg xmlns="http://www.w3.org/2000/svg" xmlns:xlink="http://www.w3.org/1999/xlink" viewBox="0 0 264 240"><defs><style>.a{fill:#f6fafd;}.b{fill:url(#a);}.c{fill:url(#b);}.d{fill:url(#c);}.e{fill:url(#d);}.f{fill:url(#e);}.g{fill:url(#f);}.h{fill:url(#g);}.i{fill:url(#h);}.j{fill:url(#i);}.k{fill:url(#j);}.l{fill:url(#k);}.m{fill:url(#l);}.n{fill:url(#m);}.o{fill:url(#n);}.p{fill:url(#o);}.q{fill:url(#p);}.r{fill:url(#q);}.s{fill:url(#r);}.t{fill:url(#s);}.u{fill:url(#t);}.v{fill:url(#u);}.w{fill:url(#v);}.x{fill:url(#w);}.y{fill:url(#x);}.z{fill:url(#y);}.aa{fill:url(#z);}.ab{fill:url(#aa);}.ac{fill:url(#ab);}.ad{fill:url(#ac);}.ae{fill:url(#ad);}.af{fill:url(#ae);}.ag{fill:url(#af);}.ah{fill:url(#ag);}.ai{fill:url(#ah);}.aj{fill:url(#ai);}.ak{fill:url(#aj);}.al{fill:url(#ak);}.am{fill:url(#al);}.an{fill:url(#am);}.ao{fill:url(#an);}.ap{fill:url(#ao);}.aq{fill:url(#ap);}.ar{fill:url(#aq);}.as{fill:url(#ar);}.at{fill:url(#as);}.au{fill:url(#at);}.av{fill:url(#au);}.aw{fill:url(#av);}.ax{fill:url(#aw);}.ay{fill:url(#ax);}.az{fill:url(#ay);}.ba{fill:url(#az);}.bb{fill:url(#ba);}.bc{fill:url(#bb);}.bd{fill:url(#bc);}.be{fill:url(#bd);}.bf{fill:url(#be);}.bg{fill:url(#bf);}.bh{fill:url(#bg);}.bi{fill:url(#bh);}.bj{fill:url(#bi);}.bk{fill:url(#bj);}.bl{fill:url(#bk);}.bm{fill:url(#bl);}.bn{fill:url(#bm);}.bo{fill:url(#bn);}.bp{fill:url(#bo);}.bq{fill:url(#bp);}.br{fill:url(#bq);}.bs{fill:url(#br);}.bt{fill:url(#bs);}.bu{fill:url(#bt);}.bv{fill:url(#bu);}.bw,.cc,.cl,.cp,.dd,.dy{opacity:0.1;}.bw{fill:url(#bv);}.bx{fill:url(#bw);}.by{fill:url(#bx);}.bz{fill:url(#by);}.ca{fill:#c1a795;}.cb{fill:#b2937d;}.cc{fill:url(#bz);}.cd{fill:url(#ca);}.ce{fill:url(#cb);}.cf{fill:url(#cc);}.cg{fill:#fff;}.ch{fill:#c69e6d;}.ci{fill:url(#cd);}.cj{fill:url(#ce);}.ck{fill:url(#cf);}.cl{fill:url(#cg);}.cm{fill:url(#ch);}.cn{fill:url(#ci);}.co{fill:url(#cj);}.cp{fill:url(#ck);}.cq{opacity:0.79;}.cr{fill:url(#cl);}.cs,.cy,.cz{fill:#2393c9;}.ct{fill:url(#cm);}.cu{fill:url(#cn);}.cv{fill:url(#co);}.cw{fill:url(#cp);}.cx{fill:url(#cq);}.cy{stroke:#1f87c2;stroke-miterlimit:10;stroke-width:0.907px;}.cz,.ea,.eb,.ec,.ed,.ee,.ef,.eg,.eh,.ei,.ej,.ek,.el,.em,.en,.eo,.ep,.eq,.er,.es,.et,.eu,.ev,.ew,.ex,.ey,.ez,.fa,.fb,.fc,.fd,.fe,.ff,.ft,.ga{fill-rule:evenodd;}.da{fill:url(#cr);}.db{fill:url(#cs);}.dc{fill:url(#ct);}.dd{fill:url(#cu);}.de,.df,.dg{fill:#58ffff;}.de{opacity:0.34;}.df{opacity:0.28;}.dg{opacity:0.47;}.dh{opacity:0.15;fill:url(#cv);}.di{fill:url(#cw);}.dj{fill:url(#cx);}.dk{fill:url(#cy);}.dl{fill:url(#cz);}.dm{fill:url(#da);}.dn{fill:url(#db);}.do{fill:url(#dc);}.dp{fill:url(#dd);}.dq{fill:url(#de);}.dr{fill:url(#df);}.ds{fill:url(#dg);}.dt{fill:url(#dh);}.du{fill:url(#di);}.dv{fill:url(#dj);}.dw{fill:url(#dk);}.dx{fill:url(#dl);}.dy{fill:url(#dm);}.dz{fill:url(#dn);}.ea{fill:url(#do);}.eb{fill:url(#dp);}.ec{fill:url(#dq);}.ed{fill:url(#dr);}.ee{fill:url(#ds);}.ef{fill:url(#dt);}.eg{fill:url(#du);}.eh{fill:url(#dv);}.ei{fill:url(#dw);}.ej{fill:#cfe1f4;}.ek{fill:url(#dx);}.el{fill:url(#dy);}.em{fill:url(#dz);}.en{fill:url(#ea);}.eo{fill:#dbebfb;}.ep{fill:url(#eb);}.eq{fill:url(#ec);}.er{fill:#cc7177;}.es{fill:url(#ed);}.et{fill:#ad515a;}.eu{fill:url(#ee);}.ev{fill:url(#ef);}.ew{fill:url(#eg);}.ex{fill:url(#eh);}.ey{fill:url(#ei);}.ez{fill:url(#ej);}.fa{fill:url(#ek);}.fb{fill:url(#el);}.fc{fill:url(#em);}.fd{fill:url(#en);}.fe{fill:url(#eo);}.ff{fill:url(#ep);}.fg{fill:url(#eq);}.fh{fill:url(#er);}.fi{fill:url(#es);}.fj{fill:none;stroke:#e4c04c;stroke-linecap:round;stroke-linejoin:round;stroke-width:0.614px;}.fk{fill:url(#et);}.fl{fill:url(#eu);}.fm{fill:url(#ev);}.fn{fill:url(#ew);}.fo{fill:url(#ex);}.fp{fill:url(#ey);}.fq{fill:url(#ez);}.fr{fill:url(#fa);}.fs{fill:url(#fb);}.ft{fill:url(#fc);}.fu{fill:url(#fd);}.fv{fill:url(#fe);}.fw{fill:url(#ff);}.fx{fill:url(#fg);}.fy{fill:url(#fh);}.fz{fill:url(#fi);}.ga{fill:url(#fj);}.gb{fill:url(#fk);}.gc{fill:url(#fl);}.gd{fill:url(#fm);}.ge{fill:url(#fn);}.gf{fill:url(#fo);}.gg{fill:url(#fp);}.gh{fill:url(#fq);}.gi{fill:url(#fr);}.gj{fill:url(#fs);}</style><linearGradient id="a" x1="-3803.494" y1="-7829.829" x2="-3865.088" y2="-7723.147" gradientTransform="matrix(-1, 0.577, -0.866, -0.5, -10386.778, -1585.265)" gradientUnits="userSpaceOnUse"><stop offset="0" stop-color="#e6eef5"/><stop offset="1" stop-color="#f3fcff"/></linearGradient><linearGradient id="b" x1="-3831.744" y1="-7846.139" x2="-3836.999" y2="-7837.037" gradientTransform="matrix(-1, 0.577, -0.866, -0.5, -10386.778, -1585.265)" gradientUnits="userSpaceOnUse"><stop offset="0" stop-color="#d7e9f1"/><stop offset="1" stop-color="#b8cbdd"/></linearGradient><linearGradient id="c" x1="-3831.739" y1="-7842.193" x2="-3836.994" y2="-7833.092" xlink:href="#b"/><linearGradient id="d" x1="-3831.734" y1="-7838.248" x2="-3836.989" y2="-7829.146" xlink:href="#b"/><linearGradient id="e" x1="-3831.729" y1="-7834.303" x2="-3836.984" y2="-7825.201" xlink:href="#b"/><linearGradient id="f" x1="-3831.724" y1="-7830.357" x2="-3836.979" y2="-7821.255" xlink:href="#b"/><linearGradient id="g" x1="-3831.719" y1="-7826.412" x2="-3836.974" y2="-7817.31" xlink:href="#b"/><linearGradient id="h" x1="-3831.715" y1="-7822.466" x2="-3836.969" y2="-7813.364" xlink:href="#b"/><linearGradient id="i" x1="-3831.71" y1="-7818.521" x2="-3836.965" y2="-7809.419" xlink:href="#b"/><linearGradient id="j" x1="-3831.705" y1="-7814.575" x2="-3836.96" y2="-7805.473" xlink:href="#b"/><linearGradient id="k" x1="-3831.7" y1="-7810.63" x2="-3836.955" y2="-7801.528" xlink:href="#b"/><linearGradient id="l" x1="-3831.695" y1="-7806.684" x2="-3836.95" y2="-7797.583" xlink:href="#b"/><linearGradient id="m" x1="-3831.69" y1="-7802.739" x2="-3836.945" y2="-7793.637" xlink:href="#b"/><linearGradient id="n" x1="-3831.685" y1="-7798.793" x2="-3836.94" y2="-7789.692" xlink:href="#b"/><linearGradient id="o" x1="-3831.681" y1="-7794.848" x2="-3836.935" y2="-7785.746" xlink:href="#b"/><linearGradient id="p" x1="-3831.676" y1="-7790.903" x2="-3836.931" y2="-7781.801" xlink:href="#b"/><linearGradient id="q" x1="-3831.671" y1="-7786.957" x2="-3836.926" y2="-7777.855" xlink:href="#b"/><linearGradient id="r" x1="-3831.666" y1="-7783.012" x2="-3836.921" y2="-7773.91" xlink:href="#b"/><linearGradient id="s" x1="-3831.661" y1="-7779.066" x2="-3836.916" y2="-7769.964" xlink:href="#b"/><linearGradient id="t" x1="-3831.656" y1="-7775.121" x2="-3836.911" y2="-7766.019" xlink:href="#b"/><linearGradient id="u" x1="-3831.651" y1="-7771.175" x2="-3836.906" y2="-7762.073" xlink:href="#b"/><linearGradient id="v" x1="-3831.647" y1="-7767.23" x2="-3836.901" y2="-7758.128" xlink:href="#b"/><linearGradient id="w" x1="-3831.642" y1="-7763.284" x2="-3836.897" y2="-7754.183" xlink:href="#b"/><linearGradient id="x" x1="-3831.637" y1="-7759.339" x2="-3836.892" y2="-7750.237" xlink:href="#b"/><linearGradient id="y" x1="-3831.632" y1="-7755.393" x2="-3836.887" y2="-7746.292" xlink:href="#b"/><linearGradient id="z" x1="-3831.627" y1="-7751.448" x2="-3836.882" y2="-7742.346" xlink:href="#b"/><linearGradient id="aa" x1="-3831.622" y1="-7747.503" x2="-3836.877" y2="-7738.401" xlink:href="#b"/><linearGradient id="ab" x1="-3831.617" y1="-7743.557" x2="-3836.872" y2="-7734.455" xlink:href="#b"/><linearGradient id="ac" x1="-3831.613" y1="-7739.612" x2="-3836.867" y2="-7730.51" xlink:href="#b"/><linearGradient id="ad" x1="-3831.608" y1="-7735.666" x2="-3836.863" y2="-7726.564" xlink:href="#b"/><linearGradient id="ae" x1="-3831.603" y1="-7731.721" x2="-3836.858" y2="-7722.619" xlink:href="#b"/><linearGradient id="af" x1="-3831.598" y1="-7727.775" x2="-3836.853" y2="-7718.674" xlink:href="#b"/><linearGradient id="ag" x1="-3831.593" y1="-7723.83" x2="-3836.848" y2="-7714.728" xlink:href="#b"/><linearGradient id="ah" x1="-3831.588" y1="-7719.884" x2="-3836.843" y2="-7710.783" xlink:href="#b"/><linearGradient id="ai" x1="-3831.583" y1="-7715.939" x2="-3836.838" y2="-7706.837" xlink:href="#b"/><linearGradient id="aj" x1="-3789.963" y1="-7579.265" x2="-3850.363" y2="-7474.648" gradientTransform="matrix(0, 1.155, -0.866, -0.5, -6344.718, 748.42)" gradientUnits="userSpaceOnUse"><stop offset="0" stop-color="#f1fcff"/><stop offset="1" stop-color="#d6f0ff"/></linearGradient><linearGradient id="ak" x1="1192.416" y1="-2407.841" x2="1134.786" y2="-2308.022" gradientTransform="matrix(0.866, 0.5, -1, 0.577, -3186.911, 927.595)" xlink:href="#a"/><linearGradient id="al" x1="1166.349" y1="-2422.891" x2="1160.571" y2="-2412.884" gradientTransform="matrix(0.866, 0.5, -1, 0.577, -3186.911, 927.595)" xlink:href="#b"/><linearGradient id="am" x1="1166.357" y1="-2419.258" x2="1160.58" y2="-2409.25" gradientTransform="matrix(0.866, 0.5, -1, 0.577, -3186.911, 927.595)" xlink:href="#b"/><linearGradient id="an" x1="1166.366" y1="-2415.624" x2="1160.588" y2="-2405.616" gradientTransform="matrix(0.866, 0.5, -1, 0.577, -3186.911, 927.595)" xlink:href="#b"/><linearGradient id="ao" x1="1166.374" y1="-2411.99" x2="1160.597" y2="-2401.983" gradientTransform="matrix(0.866, 0.5, -1, 0.577, -3186.911, 927.595)" xlink:href="#b"/><linearGradient id="ap" x1="1166.383" y1="-2408.357" x2="1160.605" y2="-2398.349" gradientTransform="matrix(0.866, 0.5, -1, 0.577, -3186.911, 927.595)" xlink:href="#b"/><linearGradient id="aq" x1="1166.392" y1="-2404.723" x2="1160.614" y2="-2394.715" gradientTransform="matrix(0.866, 0.5, -1, 0.577, -3186.911, 927.595)" xlink:href="#b"/><linearGradient id="ar" x1="1166.4" y1="-2401.089" x2="1160.622" y2="-2391.082" gradientTransform="matrix(0.866, 0.5, -1, 0.577, -3186.911, 927.595)" xlink:href="#b"/><linearGradient id="as" x1="1166.409" y1="-2397.455" x2="1160.631" y2="-2387.448" gradientTransform="matrix(0.866, 0.5, -1, 0.577, -3186.911, 927.595)" xlink:href="#b"/><linearGradient id="at" x1="1166.417" y1="-2393.822" x2="1160.639" y2="-2383.814" gradientTransform="matrix(0.866, 0.5, -1, 0.577, -3186.911, 927.595)" xlink:href="#b"/><linearGradient id="au" x1="1166.426" y1="-2390.188" x2="1160.648" y2="-2380.181" gradientTransform="matrix(0.866, 0.5, -1, 0.577, -3186.911, 927.595)" xlink:href="#b"/><linearGradient id="av" x1="1166.434" y1="-2386.554" x2="1160.657" y2="-2376.547" gradientTransform="matrix(0.866, 0.5, -1, 0.577, -3186.911, 927.595)" xlink:href="#b"/><linearGradient id="aw" x1="1166.443" y1="-2382.921" x2="1160.665" y2="-2372.913" gradientTransform="matrix(0.866, 0.5, -1, 0.577, -3186.911, 927.595)" xlink:href="#b"/><linearGradient id="ax" x1="1166.452" y1="-2379.287" x2="1160.674" y2="-2369.28" gradientTransform="matrix(0.866, 0.5, -1, 0.577, -3186.911, 927.595)" xlink:href="#b"/><linearGradient id="ay" x1="1166.46" y1="-2375.653" x2="1160.682" y2="-2365.646" gradientTransform="matrix(0.866, 0.5, -1, 0.577, -3186.911, 927.595)" xlink:href="#b"/><linearGradient id="az" x1="1166.469" y1="-2372.02" x2="1160.691" y2="-2362.012" gradientTransform="matrix(0.866, 0.5, -1, 0.577, -3186.911, 927.595)" xlink:href="#b"/><linearGradient id="ba" x1="1166.477" y1="-2368.386" x2="1160.699" y2="-2358.379" gradientTransform="matrix(0.866, 0.5, -1, 0.577, -3186.911, 927.595)" xlink:href="#b"/><linearGradient id="bb" x1="1166.486" y1="-2364.752" x2="1160.708" y2="-2354.745" gradientTransform="matrix(0.866, 0.5, -1, 0.577, -3186.911, 927.595)" xlink:href="#b"/><linearGradient id="bc" x1="1166.494" y1="-2361.119" x2="1160.717" y2="-2351.111" gradientTransform="matrix(0.866, 0.5, -1, 0.577, -3186.911, 927.595)" xlink:href="#b"/><linearGradient id="bd" x1="1166.503" y1="-2357.485" x2="1160.725" y2="-2347.477" gradientTransform="matrix(0.866, 0.5, -1, 0.577, -3186.911, 927.595)" xlink:href="#b"/><linearGradient id="be" x1="1166.512" y1="-2353.851" x2="1160.734" y2="-2343.844" gradientTransform="matrix(0.866, 0.5, -1, 0.577, -3186.911, 927.595)" xlink:href="#b"/><linearGradient id="bf" x1="1166.52" y1="-2350.218" x2="1160.742" y2="-2340.21" gradientTransform="matrix(0.866, 0.5, -1, 0.577, -3186.911, 927.595)" xlink:href="#b"/><linearGradient id="bg" x1="1166.529" y1="-2346.584" x2="1160.751" y2="-2336.576" gradientTransform="matrix(0.866, 0.5, -1, 0.577, -3186.911, 927.595)" xlink:href="#b"/><linearGradient id="bh" x1="1166.537" y1="-2342.95" x2="1160.759" y2="-2332.943" gradientTransform="matrix(0.866, 0.5, -1, 0.577, -3186.911, 927.595)" xlink:href="#b"/><linearGradient id="bi" x1="1166.546" y1="-2339.316" x2="1160.768" y2="-2329.309" gradientTransform="matrix(0.866, 0.5, -1, 0.577, -3186.911, 927.595)" xlink:href="#b"/><linearGradient id="bj" x1="1166.554" y1="-2335.683" x2="1160.777" y2="-2325.675" gradientTransform="matrix(0.866, 0.5, -1, 0.577, -3186.911, 927.595)" xlink:href="#b"/><linearGradient id="bk" x1="1166.563" y1="-2332.049" x2="1160.785" y2="-2322.042" gradientTransform="matrix(0.866, 0.5, -1, 0.577, -3186.911, 927.595)" xlink:href="#b"/><linearGradient id="bl" x1="1166.572" y1="-2328.415" x2="1160.794" y2="-2318.408" gradientTransform="matrix(0.866, 0.5, -1, 0.577, -3186.911, 927.595)" xlink:href="#b"/><linearGradient id="bm" x1="1166.58" y1="-2324.782" x2="1160.802" y2="-2314.774" gradientTransform="matrix(0.866, 0.5, -1, 0.577, -3186.911, 927.595)" xlink:href="#b"/><linearGradient id="bn" x1="1166.589" y1="-2321.148" x2="1160.811" y2="-2311.141" gradientTransform="matrix(0.866, 0.5, -1, 0.577, -3186.911, 927.595)" xlink:href="#b"/><linearGradient id="bo" x1="1166.597" y1="-2317.514" x2="1160.819" y2="-2307.507" gradientTransform="matrix(0.866, 0.5, -1, 0.577, -3186.911, 927.595)" xlink:href="#b"/><linearGradient id="bp" x1="1166.606" y1="-2313.881" x2="1160.828" y2="-2303.873" gradientTransform="matrix(0.866, 0.5, -1, 0.577, -3186.911, 927.595)" xlink:href="#b"/><linearGradient id="bq" x1="1166.614" y1="-2310.247" x2="1160.837" y2="-2300.24" gradientTransform="matrix(0.866, 0.5, -1, 0.577, -3186.911, 927.595)" xlink:href="#b"/><linearGradient id="br" x1="1166.623" y1="-2306.613" x2="1160.845" y2="-2296.606" gradientTransform="matrix(0.866, 0.5, -1, 0.577, -3186.911, 927.595)" xlink:href="#b"/><linearGradient id="bs" x1="1166.632" y1="-2302.98" x2="1160.854" y2="-2292.972" gradientTransform="matrix(0.866, 0.5, -1, 0.577, -3186.911, 927.595)" xlink:href="#b"/><linearGradient id="bt" x1="499.066" y1="-7696.835" x2="435.325" y2="-7586.431" gradientTransform="matrix(0, 1.155, -0.866, 0.5, -6430.73, 3440.907)" xlink:href="#a"/><linearGradient id="bu" x1="-3905.142" y1="-7584.569" x2="-3916.419" y2="-7565.036" gradientTransform="matrix(0, 1.155, -0.866, -0.5, -6442.147, 918.42)" xlink:href="#a"/><linearGradient id="bv" x1="128.78" y1="165.747" x2="138.337" y2="175.303" gradientTransform="translate(13.132)" gradientUnits="userSpaceOnUse"><stop offset="0" stop-color="#001651"/><stop offset="0.157" stop-color="#192b5c" stop-opacity="0.663"/><stop offset="0.337" stop-color="#2e3c65" stop-opacity="0.372"/><stop offset="0.529" stop-color="#3d496c" stop-opacity="0.163"/><stop offset="0.739" stop-color="#465170" stop-opacity="0.039"/><stop offset="1" stop-color="#495371" stop-opacity="0"/></linearGradient><linearGradient id="bw" x1="-8616.294" y1="166.806" x2="-8607.072" y2="166.806" gradientTransform="matrix(-1, 0, 0, 1, -8465.413, 0)" gradientUnits="userSpaceOnUse"><stop offset="0" stop-color="#c69e6d"/><stop offset="1" stop-color="#c6996d"/></linearGradient><linearGradient id="bx" x1="-8610.914" y1="157.488" x2="-8606.303" y2="165.475" gradientTransform="matrix(-1, 0, 0, 1, -8465.413, 0)" gradientUnits="userSpaceOnUse"><stop offset="0" stop-color="#eac896"/><stop offset="1" stop-color="#e5bf83"/></linearGradient><linearGradient id="by" x1="-8605.535" y1="165.031" x2="-8602.461" y2="170.355" gradientTransform="matrix(-1, 0, 0, 1, -8465.413, 0)" gradientUnits="userSpaceOnUse"><stop offset="0" stop-color="#e5bf83"/><stop offset="1" stop-color="#c69e6d"/></linearGradient><linearGradient id="bz" x1="179.511" y1="137.873" x2="189.068" y2="147.43" xlink:href="#bv"/><linearGradient id="ca" x1="-8667.025" y1="138.933" x2="-8657.803" y2="138.933" xlink:href="#bw"/><linearGradient id="cb" x1="-8661.645" y1="129.615" x2="-8657.034" y2="137.602" xlink:href="#bx"/><linearGradient id="cc" x1="-8656.266" y1="137.158" x2="-8653.192" y2="142.482" xlink:href="#by"/><linearGradient id="cd" x1="-23885.665" y1="-31602.221" x2="-23862.678" y2="-31602.221" gradientTransform="translate(9774.57 12776.654) scale(0.401)" xlink:href="#by"/><linearGradient id="ce" x1="-23872.256" y1="-31625.446" x2="-23860.763" y2="-31605.539" gradientTransform="translate(9774.57 12776.654) scale(0.401)" xlink:href="#bx"/><linearGradient id="cf" x1="-23858.847" y1="-31606.645" x2="-23851.185" y2="-31593.374" gradientTransform="translate(9774.57 12776.654) scale(0.401)" xlink:href="#bw"/><linearGradient id="cg" x1="-23854.615" y1="-31594.802" x2="-23836.296" y2="-31576.483" gradientTransform="translate(9774.57 12776.654) scale(0.401)" xlink:href="#bv"/><linearGradient id="ch" x1="-23866.705" y1="-31591.564" x2="-23843.719" y2="-31591.564" gradientTransform="translate(9721.786 12746.739) scale(0.401)" xlink:href="#by"/><linearGradient id="ci" x1="-23853.296" y1="-31614.788" x2="-23841.803" y2="-31594.882" gradientTransform="translate(9721.786 12746.739) scale(0.401)" xlink:href="#bx"/><linearGradient id="cj" x1="-23839.888" y1="-31595.988" x2="-23832.226" y2="-31582.716" gradientTransform="translate(9721.786 12746.739) scale(0.401)" xlink:href="#bw"/><linearGradient id="ck" x1="-23835.655" y1="-31584.144" x2="-23817.336" y2="-31565.825" gradientTransform="translate(9721.786 12746.739) scale(0.401)" xlink:href="#bv"/><linearGradient id="cl" x1="-11655.713" y1="47.37" x2="-11517.74" y2="125.153" gradientTransform="matrix(-1, 0, 0, 1, -11521.112, 0)" xlink:href="#a"/><linearGradient id="cm" x1="-11530.683" y1="79.814" x2="-11589.188" y2="98.324" gradientTransform="matrix(-1, 0, 0, 1, -11521.112, 0)" xlink:href="#a"/><linearGradient id="cn" x1="-11619.511" y1="107.201" x2="-11617.63" y2="43.386" gradientTransform="matrix(-1, 0, 0, 1, -11521.112, 0)" xlink:href="#a"/><linearGradient id="co" x1="-11572.049" y1="53.695" x2="-11574.3" y2="55.122" gradientTransform="matrix(-1, 0, 0, 1, -11521.112, 0)" xlink:href="#a"/><linearGradient id="cp" x1="-3389.102" y1="94.072" x2="-3387.222" y2="94.072" gradientTransform="matrix(-1, 0, 0, 1, -3328.153, 0)" xlink:href="#a"/><linearGradient id="cq" x1="-3463.339" y1="45.138" x2="-3387.234" y2="45.138" gradientTransform="matrix(-1, 0, 0, 1, -3328.153, 0)" xlink:href="#a"/><linearGradient id="cr" x1="-23901.257" y1="-31615.592" x2="-23876.459" y2="-31615.592" gradientTransform="translate(9735.391 12873.516) scale(0.403)" xlink:href="#by"/><linearGradient id="cs" x1="-23886.791" y1="-31640.647" x2="-23874.392" y2="-31619.171" gradientTransform="translate(9735.391 12873.516) scale(0.403)" xlink:href="#bx"/><linearGradient id="ct" x1="-23872.326" y1="-31620.364" x2="-23864.06" y2="-31606.047" gradientTransform="translate(9735.391 12873.516) scale(0.403)" xlink:href="#bw"/><linearGradient id="cu" x1="-23867.76" y1="-31607.587" x2="-23847.997" y2="-31587.825" gradientTransform="translate(9735.391 12873.516) scale(0.403)" xlink:href="#bv"/><radialGradient id="cv" cx="-11278.267" cy="138.086" r="17.348" gradientTransform="matrix(-0.005, -1, -0.6, 0.003, 158.107, -11140.464)" xlink:href="#bv"/><linearGradient id="cw" x1="-12826.894" y1="130.681" x2="-12826.966" y2="136.552" gradientTransform="matrix(-1, 0, 0, 1, -12687.549, 0)" gradientUnits="userSpaceOnUse"><stop offset="0" stop-color="#e75524"/><stop offset="0.996" stop-color="#cf4b1f"/></linearGradient><linearGradient id="cx" x1="-12830.037" y1="133.363" x2="-12827.594" y2="133.363" gradientTransform="matrix(-1, 0, 0, 1, -12687.549, 0)" gradientUnits="userSpaceOnUse"><stop offset="0.313" stop-color="#f6d5c6"/><stop offset="1" stop-color="#ec9a9d"/></linearGradient><linearGradient id="cy" x1="-12351.729" y1="982.398" x2="-12351.801" y2="988.269" gradientTransform="matrix(-0.993, 0.115, 0.115, 0.993, -12248.647, 581.065)" xlink:href="#cw"/><linearGradient id="cz" x1="-12824.881" y1="135.366" x2="-12822.439" y2="135.366" xlink:href="#cx"/><linearGradient id="da" x1="-12840.304" y1="136.675" x2="-12820.954" y2="98.684" gradientTransform="matrix(-1, 0, 0, 1, -12687.549, 0)" gradientUnits="userSpaceOnUse"><stop offset="0" stop-color="#2393c9"/><stop offset="1" stop-color="#1d7cb3"/></linearGradient><linearGradient id="db" x1="-12840.664" y1="146.083" x2="-12820.425" y2="107.514" xlink:href="#da"/><linearGradient id="dc" x1="-12841.051" y1="96.753" x2="-12799.952" y2="85.296" xlink:href="#cw"/><linearGradient id="dd" x1="-12814.612" y1="85.927" x2="-12797.82" y2="85.927" xlink:href="#cx"/><linearGradient id="de" x1="-12842.207" y1="92.604" x2="-12801.108" y2="81.148" xlink:href="#cw"/><linearGradient id="df" x1="-12831.739" y1="88.481" x2="-12779.614" y2="55.688" gradientTransform="matrix(-1, 0, 0, 1, -12687.549, 0)" gradientUnits="userSpaceOnUse"><stop offset="0.004" stop-color="#aee5ff"/><stop offset="1" stop-color="#e5f9ff"/></linearGradient><linearGradient id="dg" x1="-12828.246" y1="82.392" x2="-12814.928" y2="63.633" xlink:href="#cx"/><linearGradient id="dh" x1="-12828.965" y1="81.882" x2="-12815.647" y2="63.122" xlink:href="#cx"/><linearGradient id="di" x1="-12826.958" y1="70.425" x2="-12816.654" y2="70.425" gradientTransform="matrix(-1, 0, 0, 1, -12687.549, 0)" gradientUnits="userSpaceOnUse"><stop offset="0" stop-color="#5b68a8"/><stop offset="0.995" stop-color="#161b32"/></linearGradient><linearGradient id="dj" x1="-22963.945" y1="-31367.461" x2="-22939.146" y2="-31367.461" gradientTransform="translate(8779.428 12017.234) scale(0.378)" xlink:href="#by"/><linearGradient id="dk" x1="-22949.479" y1="-31392.516" x2="-22937.08" y2="-31371.04" gradientTransform="translate(8779.428 12017.234) scale(0.378)" xlink:href="#bx"/><linearGradient id="dl" x1="-22935.013" y1="-31372.234" x2="-22926.747" y2="-31357.916" gradientTransform="translate(8779.428 12017.234) scale(0.378)" xlink:href="#bw"/><linearGradient id="dm" x1="-22930.447" y1="-31359.457" x2="-22910.685" y2="-31339.694" gradientTransform="translate(8779.428 12017.234) scale(0.378)" xlink:href="#bv"/><radialGradient id="dn" cx="47.656" cy="179.13" r="24.364" gradientTransform="translate(95.312 286.608) rotate(180) scale(1 0.6)" gradientUnits="userSpaceOnUse"><stop offset="0" stop-color="#001651" stop-opacity="0.15"/><stop offset="0.426" stop-color="#364369" stop-opacity="0.039"/><stop offset="1" stop-color="#495371" stop-opacity="0"/></radialGradient><linearGradient id="do" x1="68.297" y1="119.466" x2="73.641" y2="119.466" gradientTransform="matrix(1, 0, 0, 1, 0, 0)" xlink:href="#cx"/><linearGradient id="dp" x1="72.334" y1="123.254" x2="72.334" y2="118.709" gradientUnits="userSpaceOnUse"><stop offset="0" stop-color="#ec9a9d"/><stop offset="0.687" stop-color="#f6d5c6"/></linearGradient><linearGradient id="dq" x1="72.445" y1="123.254" x2="72.445" y2="119.796" xlink:href="#dp"/><linearGradient id="dr" x1="68.66" y1="120.466" x2="76.556" y2="120.466" gradientUnits="userSpaceOnUse"><stop offset="0" stop-color="#ec9a9d"/><stop offset="0.687" stop-color="#f4cabf"/></linearGradient><linearGradient id="ds" x1="68.976" y1="120.464" x2="48.532" y2="120.464" gradientUnits="userSpaceOnUse"><stop offset="0" stop-color="#3971c6"/><stop offset="0.995" stop-color="#1d427c"/></linearGradient><radialGradient id="dt" cx="41.315" cy="179.974" r="3.894" gradientUnits="userSpaceOnUse"><stop offset="0" stop-color="#4b5573"/><stop offset="1" stop-color="#414a6a"/></radialGradient><radialGradient id="du" cx="52.816" cy="173.464" r="4.053" xlink:href="#dt"/><linearGradient id="dv" x1="46.071" y1="152.087" x2="55.037" y2="152.087" xlink:href="#ds"/><linearGradient id="dw" x1="39.983" y1="155.645" x2="52.862" y2="155.645" xlink:href="#ds"/><linearGradient id="dx" x1="38.445" y1="128.898" x2="51.582" y2="128.898" xlink:href="#ds"/><linearGradient id="dy" x1="47.656" y1="123.683" x2="55.605" y2="123.683" xlink:href="#ds"/><linearGradient id="dz" x1="49.136" y1="125.088" x2="54.18" y2="125.088" gradientUnits="userSpaceOnUse"><stop offset="0.005" stop-color="#1f2d44"/><stop offset="1" stop-color="#607fae"/></linearGradient><linearGradient id="ea" x1="45.083" y1="112.392" x2="50.222" y2="112.392" gradientTransform="matrix(1, 0, 0, 1, 0, 0)" xlink:href="#cx"/><linearGradient id="eb" x1="49.605" y1="114.024" x2="49.605" y2="102.748" gradientTransform="matrix(1, 0, 0, 1, 0, 0)" xlink:href="#cx"/><linearGradient id="ec" x1="49.428" y1="109.841" x2="49.428" y2="101.631" gradientUnits="userSpaceOnUse"><stop offset="0" stop-color="#cf9c78"/><stop offset="0.995" stop-color="#efdf86"/></linearGradient><linearGradient id="ed" x1="46.829" y1="110.886" x2="46.829" y2="107.893" gradientTransform="matrix(1, 0, 0, 1, 0, 0)" xlink:href="#cx"/><linearGradient id="ee" x1="40.653" y1="139.845" x2="48.229" y2="139.845" gradientTransform="matrix(1, 0, 0, 1, 0, 0)" xlink:href="#cx"/><linearGradient id="ef" x1="38.33" y1="117.742" x2="38.33" y2="138.664" xlink:href="#ds"/><linearGradient id="eg" x1="70.78" y1="111.505" x2="81.417" y2="111.505" gradientUnits="userSpaceOnUse"><stop offset="0" stop-color="#1a6e96"/><stop offset="1" stop-color="#165d86"/></linearGradient><linearGradient id="eh" x1="68.547" y1="111.656" x2="78.657" y2="111.656" gradientTransform="matrix(1, 0, 0, 1, 0, 0)" xlink:href="#da"/><linearGradient id="ei" x1="76.405" y1="106.541" x2="81.417" y2="106.541" gradientUnits="userSpaceOnUse"><stop offset="0" stop-color="#36b8e0"/><stop offset="0.995" stop-color="#2594b7"/></linearGradient><linearGradient id="ej" x1="76.021" y1="117.2" x2="80.436" y2="117.2" xlink:href="#eg"/><linearGradient id="ek" x1="76.046" y1="116.315" x2="84.11" y2="116.315" xlink:href="#ei"/><linearGradient id="el" x1="75.1" y1="117.214" x2="81.349" y2="117.214" gradientTransform="matrix(1, 0, 0, 1, 0, 0)" xlink:href="#da"/><linearGradient id="em" x1="66.757" y1="106.151" x2="71.172" y2="106.151" xlink:href="#eg"/><linearGradient id="en" x1="66.783" y1="105.267" x2="74.846" y2="105.267" xlink:href="#ei"/><linearGradient id="eo" x1="65.836" y1="106.165" x2="72.085" y2="106.165" gradientTransform="matrix(1, 0, 0, 1, 0, 0)" xlink:href="#da"/><linearGradient id="ep" x1="64.844" y1="169.697" x2="71.195" y2="158.698" gradientUnits="userSpaceOnUse"><stop offset="0" stop-color="#001651" stop-opacity="0.1"/><stop offset="0.321" stop-color="#2c3b64" stop-opacity="0.039"/><stop offset="1" stop-color="#495371" stop-opacity="0"/></linearGradient><linearGradient id="eq" x1="-3294.077" y1="-5687.071" x2="-3279.791" y2="-5687.071" gradientTransform="matrix(0.513, -0.858, -0.858, -0.513, -3125.373, -5578.503)" gradientUnits="userSpaceOnUse"><stop offset="0" stop-color="#e4c467"/><stop offset="1" stop-color="#e3bb26"/></linearGradient><linearGradient id="er" x1="-3291.359" y1="-5686.019" x2="-3277.484" y2="-5686.019" gradientTransform="matrix(0.513, -0.858, -0.858, -0.513, -3125.373, -5578.503)" gradientUnits="userSpaceOnUse"><stop offset="0" stop-color="#ffdc6c"/><stop offset="1" stop-color="#ffd21f"/></linearGradient><linearGradient id="es" x1="-3288.639" y1="-5686.019" x2="-3280.205" y2="-5686.019" gradientTransform="matrix(0.513, -0.858, -0.858, -0.513, -3125.373, -5578.503)" gradientUnits="userSpaceOnUse"><stop offset="0" stop-color="#ffe593"/><stop offset="1" stop-color="#ffde5a"/></linearGradient><linearGradient id="et" x1="-3290.934" y1="-5685.191" x2="-3276.648" y2="-5685.191" xlink:href="#eq"/><linearGradient id="eu" x1="-3288.216" y1="-5684.139" x2="-3274.341" y2="-5684.139" xlink:href="#er"/><linearGradient id="ev" x1="-3285.495" y1="-5684.139" x2="-3277.062" y2="-5684.139" xlink:href="#es"/><linearGradient id="ew" x1="-3288.925" y1="-5682.44" x2="-3274.639" y2="-5682.44" xlink:href="#eq"/><linearGradient id="ex" x1="-3286.207" y1="-5681.388" x2="-3272.332" y2="-5681.388" xlink:href="#er"/><linearGradient id="ey" x1="-3283.486" y1="-5681.388" x2="-3275.053" y2="-5681.388" xlink:href="#es"/><linearGradient id="ez" x1="-3284.867" y1="-5680.71" x2="-3270.58" y2="-5680.71" xlink:href="#eq"/><linearGradient id="fa" x1="-3282.149" y1="-5679.658" x2="-3268.274" y2="-5679.658" xlink:href="#er"/><linearGradient id="fb" x1="-3279.428" y1="-5679.658" x2="-3270.994" y2="-5679.658" xlink:href="#es"/><linearGradient id="fc" x1="83.708" y1="178.579" x2="90.058" y2="167.58" xlink:href="#ep"/><linearGradient id="fd" x1="-3292.015" y1="-5707.819" x2="-3277.729" y2="-5707.819" xlink:href="#eq"/><linearGradient id="fe" x1="-3289.297" y1="-5706.767" x2="-3275.423" y2="-5706.767" xlink:href="#er"/><linearGradient id="ff" x1="-3286.577" y1="-5706.767" x2="-3278.143" y2="-5706.767" xlink:href="#es"/><linearGradient id="fg" x1="-3288.872" y1="-5705.939" x2="-3274.586" y2="-5705.939" xlink:href="#eq"/><linearGradient id="fh" x1="-3286.154" y1="-5704.887" x2="-3272.28" y2="-5704.887" xlink:href="#er"/><linearGradient id="fi" x1="-3283.434" y1="-5704.887" x2="-3275" y2="-5704.887" xlink:href="#es"/><linearGradient id="fj" x1="65.707" y1="184.63" x2="72.058" y2="173.631" xlink:href="#ep"/><linearGradient id="fk" x1="-3306.449" y1="-5695.478" x2="-3292.163" y2="-5695.478" xlink:href="#eq"/><linearGradient id="fl" x1="-3303.731" y1="-5694.426" x2="-3289.856" y2="-5694.426" xlink:href="#er"/><linearGradient id="fm" x1="-3301.011" y1="-5694.426" x2="-3292.577" y2="-5694.426" xlink:href="#es"/><linearGradient id="fn" x1="-3303.306" y1="-5693.598" x2="-3289.02" y2="-5693.598" xlink:href="#eq"/><linearGradient id="fo" x1="-3300.588" y1="-5692.546" x2="-3286.713" y2="-5692.546" xlink:href="#er"/><linearGradient id="fp" x1="-3297.868" y1="-5692.546" x2="-3289.434" y2="-5692.546" xlink:href="#es"/><linearGradient id="fq" x1="-3301.297" y1="-5690.847" x2="-3287.011" y2="-5690.847" xlink:href="#eq"/><linearGradient id="fr" x1="-3298.579" y1="-5689.795" x2="-3284.704" y2="-5689.795" xlink:href="#er"/><linearGradient id="fs" x1="-3295.858" y1="-5689.795" x2="-3287.425" y2="-5689.795" xlink:href="#es"/></defs><path class="a" d="M11,107.932c4.655,22.073,20.842,33.984,19.067,54.125-2.03,23.024-2.779,33.741,8.142,46.586,13.212,15.54,38.93,17.955,73.976-7.9,44.129-32.555,88.821,7.534,112.059-19.656,23.392-27.371,1.18-55.748,11.775-84.008,26.1-69.615-33.989-77.451-78.792-59.544-36.7,14.67-42.661-10.449-84.008,1.675C23.019,53.931,5.773,83.166,11,107.932Z"/><polygon class="b" points="116.27 60.928 132.934 51.307 248.029 117.572 231.365 127.193 116.27 60.928"/><polygon class="c" points="229.187 125.936 245.851 116.315 248.029 117.572 231.365 127.193 229.187 125.936"/><polygon class="d" points="225.765 123.966 242.429 114.345 244.607 115.602 227.943 125.223 225.765 123.966"/><polygon class="e" points="222.344 121.996 239.007 112.375 241.185 113.633 224.522 123.253 222.344 121.996"/><polygon class="f" points="218.922 120.026 235.586 110.405 237.764 111.663 221.1 121.283 218.922 120.026"/><polygon class="g" points="215.5 118.056 232.164 108.435 234.342 109.693 217.678 119.313 215.5 118.056"/><polygon class="h" points="212.078 116.086 228.742 106.465 230.92 107.723 214.257 117.344 212.078 116.086"/><polygon class="i" points="208.657 114.116 225.32 104.495 227.498 105.753 210.835 115.374 208.657 114.116"/><polygon class="j" points="205.235 112.146 221.899 102.525 224.077 103.783 207.413 113.404 205.235 112.146"/><polygon class="k" points="201.813 110.176 218.477 100.556 220.655 101.813 203.991 111.434 201.813 110.176"/><polygon class="l" points="198.392 108.206 215.055 98.586 217.233 99.843 200.57 109.464 198.392 108.206"/><polygon class="m" points="194.97 106.236 211.633 96.616 213.812 97.873 197.148 107.494 194.97 106.236"/><polygon class="n" points="191.548 104.267 208.212 94.646 210.39 95.903 193.726 105.524 191.548 104.267"/><polygon class="o" points="188.126 102.297 204.79 92.676 206.968 93.933 190.304 103.554 188.126 102.297"/><polygon class="p" points="184.705 100.327 201.368 90.706 203.546 91.963 186.883 101.584 184.705 100.327"/><polygon class="q" points="181.283 98.357 197.947 88.736 200.125 89.994 183.461 99.614 181.283 98.357"/><polygon class="r" points="177.861 96.387 194.525 86.766 196.703 88.024 180.039 97.644 177.861 96.387"/><polygon class="s" points="174.44 94.417 191.103 84.796 193.281 86.054 176.618 95.674 174.44 94.417"/><polygon class="t" points="171.018 92.447 187.681 82.826 189.859 84.084 173.196 93.704 171.018 92.447"/><polygon class="u" points="167.596 90.477 184.26 80.856 186.438 82.114 169.774 91.735 167.596 90.477"/><polygon class="v" points="164.174 88.507 180.838 78.886 183.016 80.144 166.352 89.765 164.174 88.507"/><polygon class="w" points="160.753 86.537 177.416 76.916 179.594 78.174 162.931 87.795 160.753 86.537"/><polygon class="x" points="157.331 84.567 173.995 74.947 176.173 76.204 159.509 85.825 157.331 84.567"/><polygon class="y" points="153.909 82.597 170.573 72.977 172.751 74.234 156.087 83.855 153.909 82.597"/><polygon class="z" points="150.487 80.627 167.151 71.007 169.329 72.264 152.666 81.885 150.487 80.627"/><polygon class="aa" points="147.066 78.658 163.729 69.037 165.907 70.294 149.244 79.915 147.066 78.658"/><polygon class="ab" points="143.644 76.688 160.308 67.067 162.486 68.324 145.822 77.945 143.644 76.688"/><polygon class="ac" points="140.222 74.718 156.886 65.097 159.064 66.354 142.4 75.975 140.222 74.718"/><polygon class="ad" points="136.801 72.748 153.464 63.127 155.642 64.385 138.979 74.005 136.801 72.748"/><polygon class="ae" points="133.379 70.778 150.042 61.157 152.221 62.415 135.557 72.035 133.379 70.778"/><polygon class="af" points="129.957 68.808 146.621 59.187 148.799 60.445 132.135 70.065 129.957 68.808"/><polygon class="ag" points="126.535 66.838 143.199 57.217 145.377 58.475 128.713 68.095 126.535 66.838"/><polygon class="ah" points="123.114 64.868 139.777 55.247 141.955 56.505 125.292 66.126 123.114 64.868"/><polygon class="ai" points="119.692 62.898 136.356 53.277 138.534 54.535 121.87 64.156 119.692 62.898"/><polygon class="aj" points="116.27 60.928 132.934 51.307 135.112 52.565 118.448 62.186 116.27 60.928"/><polygon class="ak" points="116.27 74.302 116.27 60.94 231.365 127.205 231.365 140.567 116.27 74.302"/><polygon class="al" points="126.198 188.194 109.429 178.513 231.26 107.891 248.029 117.572 126.198 188.194"/><polygon class="am" points="245.864 118.822 229.096 109.141 231.26 107.891 248.029 117.572 245.864 118.822"/><polygon class="an" points="242.238 120.924 225.47 111.243 227.634 109.993 244.402 119.675 242.238 120.924"/><polygon class="ao" points="238.612 123.026 221.843 113.345 224.008 112.096 240.776 121.777 238.612 123.026"/><polygon class="ap" points="234.985 125.129 218.217 115.447 220.382 114.198 237.15 123.879 234.985 125.129"/><polygon class="aq" points="231.359 127.231 214.591 117.55 216.755 116.3 233.524 125.981 231.359 127.231"/><polygon class="ar" points="227.733 129.333 210.965 119.652 213.129 118.402 229.897 128.083 227.733 129.333"/><polygon class="as" points="224.107 131.435 207.338 121.754 209.503 120.504 226.271 130.186 224.107 131.435"/><polygon class="at" points="220.48 133.537 203.712 123.856 205.877 122.607 222.645 132.288 220.48 133.537"/><polygon class="au" points="216.854 135.64 200.086 125.958 202.25 124.709 219.019 134.39 216.854 135.64"/><polygon class="av" points="213.228 137.742 196.46 128.061 198.624 126.811 215.392 136.492 213.228 137.742"/><polygon class="aw" points="209.602 139.844 192.833 130.163 194.998 128.913 211.766 138.594 209.602 139.844"/><polygon class="ax" points="205.975 141.946 189.207 132.265 191.372 131.015 208.14 140.697 205.975 141.946"/><polygon class="ay" points="202.349 144.048 185.581 134.367 187.745 133.118 204.514 142.799 202.349 144.048"/><polygon class="az" points="198.723 146.151 181.955 136.469 184.119 135.22 200.887 144.901 198.723 146.151"/><polygon class="ba" points="195.097 148.253 178.328 138.572 180.493 137.322 197.261 147.003 195.097 148.253"/><polygon class="bb" points="191.47 150.355 174.702 140.674 176.867 139.424 193.635 149.105 191.47 150.355"/><polygon class="bc" points="187.844 152.457 171.076 142.776 173.24 141.526 190.008 151.207 187.844 152.457"/><polygon class="bd" points="184.218 154.559 167.45 144.878 169.614 143.629 186.382 153.31 184.218 154.559"/><polygon class="be" points="180.592 156.662 163.823 146.98 165.988 145.731 182.756 155.412 180.592 156.662"/><polygon class="bf" points="176.965 158.764 160.197 149.083 162.361 147.833 179.13 157.514 176.965 158.764"/><polygon class="bg" points="173.339 160.866 156.571 151.185 158.735 149.935 175.503 159.616 173.339 160.866"/><polygon class="bh" points="169.713 162.968 152.944 153.287 155.109 152.037 171.877 161.718 169.713 162.968"/><polygon class="bi" points="166.086 165.07 149.318 155.389 151.483 154.139 168.251 163.821 166.086 165.07"/><polygon class="bj" points="162.46 167.172 145.692 157.491 147.856 156.242 164.625 165.923 162.46 167.172"/><polygon class="bk" points="158.834 169.275 142.066 159.594 144.23 158.344 160.998 168.025 158.834 169.275"/><polygon class="bl" points="155.208 171.377 138.439 161.696 140.604 160.446 157.372 170.127 155.208 171.377"/><polygon class="bm" points="151.581 173.479 134.813 163.798 136.978 162.548 153.746 172.229 151.581 173.479"/><polygon class="bn" points="147.955 175.581 131.187 165.9 133.351 164.65 150.12 174.332 147.955 175.581"/><polygon class="bo" points="144.329 177.683 127.561 168.002 129.725 166.753 146.493 176.434 144.329 177.683"/><polygon class="bp" points="140.703 179.786 123.934 170.104 126.099 168.855 142.867 178.536 140.703 179.786"/><polygon class="bq" points="137.076 181.888 120.308 172.207 122.473 170.957 139.241 180.638 137.076 181.888"/><polygon class="br" points="133.45 183.99 116.682 174.309 118.846 173.059 135.615 182.74 133.45 183.99"/><polygon class="bs" points="129.824 186.092 113.056 176.411 115.22 175.161 131.988 184.843 129.824 186.092"/><polygon class="bt" points="126.198 188.194 109.429 178.513 111.594 177.264 128.362 186.945 126.198 188.194"/><polygon class="bu" points="126.208 201.55 126.208 188.189 248.029 117.572 248.029 130.935 126.208 201.55"/><polygon class="bv" points="109.439 191.882 109.439 178.52 126.208 188.201 126.208 201.563 109.439 191.882"/><polygon class="bw" points="135.511 169.468 148.976 177.264 158.217 171.929 144.74 164.148 135.511 169.468"/><polygon class="bx" points="150.881 167.693 150.881 160.594 141.659 165.919 141.659 173.018 150.881 167.693"/><polygon class="by" points="150.881 160.594 144.733 157.045 135.511 162.369 141.659 165.919 150.881 160.594"/><polygon class="bz" points="135.511 169.468 135.511 162.369 141.659 165.919 141.659 173.018 135.511 169.468"/><polygon class="ca" points="137.817 163.7 147.039 158.376 148.576 159.263 139.354 164.587 137.817 163.7"/><polygon class="cb" points="139.354 164.587 139.354 166.362 137.817 165.475 137.817 163.7 139.354 164.587"/><polygon class="cc" points="186.242 141.595 199.707 149.39 208.948 144.055 195.471 136.274 186.242 141.595"/><polygon class="cd" points="201.612 139.82 201.612 132.721 192.39 138.045 192.39 145.144 201.612 139.82"/><polygon class="ce" points="201.612 132.721 195.464 129.171 186.242 134.496 192.39 138.045 201.612 132.721"/><polygon class="cf" points="186.242 141.595 186.242 134.496 192.39 138.045 192.39 145.144 186.242 141.595"/><polygon class="ca" points="188.548 135.827 197.77 130.503 199.306 131.39 190.085 136.714 188.548 135.827"/><polygon class="cb" points="190.085 136.714 190.085 138.489 188.548 137.602 188.548 135.827 190.085 136.714"/><polygon class="cg" points="200.997 138.213 200.997 139.33 199.064 140.446 199.064 139.33 200.997 138.213"/><polygon class="ch" points="198.032 88.402 191.885 91.952 191.885 99.051 201.106 104.375 207.254 100.826 207.254 93.727 198.032 88.402"/><polygon class="ci" points="191.885 99.051 191.885 91.952 201.106 97.276 201.106 104.375 191.885 99.051"/><polygon class="cj" points="191.885 91.952 198.032 88.402 207.254 93.727 201.106 97.276 191.885 91.952"/><polygon class="ck" points="207.254 100.826 207.254 93.727 201.106 97.276 201.106 104.375 207.254 100.826"/><polygon class="ca" points="204.949 95.058 195.727 89.734 194.19 90.621 203.412 95.945 204.949 95.058"/><polygon class="cb" points="203.412 95.945 203.412 97.72 204.949 96.832 204.949 95.058 203.412 95.945"/><polygon class="cg" points="198.405 100.826 198.405 101.942 200.338 103.058 200.338 101.942 198.405 100.826"/><polygon class="cl" points="201.106 104.375 208.767 108.81 214.926 105.255 207.254 100.826 201.106 104.375"/><polygon class="ch" points="152.844 62.75 146.696 66.299 146.696 73.398 155.918 78.722 162.066 75.173 162.066 68.074 152.844 62.75"/><polygon class="cm" points="146.696 73.398 146.696 66.299 155.918 71.623 155.918 78.722 146.696 73.398"/><polygon class="cn" points="146.696 66.299 152.844 62.75 162.066 68.074 155.918 71.623 146.696 66.299"/><polygon class="co" points="162.066 75.173 162.066 68.074 155.918 71.623 155.918 78.722 162.066 75.173"/><polygon class="ca" points="159.761 69.405 150.539 64.081 149.002 64.968 158.224 70.292 159.761 69.405"/><polygon class="cb" points="158.224 70.292 158.224 72.067 159.761 71.18 159.761 69.405 158.224 70.292"/><polygon class="cg" points="153.216 75.173 153.216 76.289 155.15 77.405 155.15 76.289 153.216 75.173"/><polygon class="cp" points="155.918 78.722 163.579 83.157 169.737 79.602 162.066 75.173 155.918 78.722"/><g class="cq"><polygon class="cr" points="53.231 132.123 53.231 55.166 140.856 4.576 141.603 4.474 141.603 80.799 141.021 81.805 53.482 132.369 53.231 132.123"/><polygon class="cs" points="51.946 54.246 52.007 54.385 53.088 55.207 140.97 4.785 141.424 4.048 140.056 3.242 139.48 3.207 51.788 53.952 51.946 54.246"/><polygon class="ct" points="53.231 55.166 53.231 132.123 52.926 132.369 51.759 131.618 51.509 131.257 51.509 54.284 51.845 54.476 51.977 54.392 53.231 55.166"/></g><polygon class="cs" points="140.856 4.576 53.231 55.166 53.231 65.046 140.856 14.455 141.603 13.991 141.603 4.474 140.856 4.576"/><polygon class="cu" points="52.921 132.369 53.487 132.369 53.487 55.361 141.59 4.471 141.424 4.048 53.089 55.048 52.921 132.369"/><polygon class="cv" points="53.096 55.347 53.305 54.922 51.788 53.952 51.509 54.284 53.096 55.347"/><path class="cg" d="M126.965,18.42a2.247,2.247,0,0,1-1.019,1.758c-.563.325-1.019.064-1.019-.582a2.245,2.245,0,0,1,1.019-1.757C126.509,17.514,126.965,17.774,126.965,18.42Z"/><path class="cg" d="M130.372,16.453a2.245,2.245,0,0,1-1.019,1.758c-.563.325-1.02.064-1.02-.581a2.246,2.246,0,0,1,1.02-1.758C129.916,15.547,130.372,15.807,130.372,16.453Z"/><path class="cg" d="M133.779,14.486a2.248,2.248,0,0,1-1.019,1.758c-.563.325-1.02.064-1.02-.581a2.246,2.246,0,0,1,1.02-1.758C133.322,13.58,133.779,13.84,133.779,14.486Z"/><polygon class="cg" points="60.95 122.111 60.95 67.092 134.538 24.606 135.165 24.407 135.165 79.216 134.92 79.573 61.242 122.111 60.95 122.111"/><polygon class="cw" points="60.949 67.092 60.949 122.111 60.629 122.111 59.304 121.364 59.07 121.057 59.07 66.033 59.328 66.054 59.463 66.26 60.949 67.092"/><path class="cx" d="M133.165,23.15,59.081,66.033l1.749,1.094,74.282-42.619a.149.149,0,0,0,.074-.128.147.147,0,0,0-.074-.128Z"/><path class="cy" d="M84.392,99.968,113.96,82.9a3.165,3.165,0,0,0,1.436-2.478V73.981c0-.91-.643-1.277-1.436-.819L84.392,90.233a3.167,3.167,0,0,0-1.436,2.478v6.438C82.956,100.059,83.6,100.426,84.392,99.968Z"/><path class="cz" d="M97.888,75.742l-7.453-.627V64.692l7.453-9.219,7.462.607v10.5Zm-6.5-9.471v7.546c.755.065,4.162.342,6.029.5V67.281a1.487,1.487,0,0,0-1.132-1.516l-4.9-.445Zm6.5-9.55c-1.593,1.983-4.777,5.916-5.921,7.34,2,.173,3.961.339,5.05.431a1.29,1.29,0,0,1,.876.75,4.778,4.778,0,0,1,.8-1.67c1.064-1.314,3.049-3.768,5.135-6.359C102.544,57.1,99.489,56.864,97.892,56.721Zm6.506,1.086L99.55,63.842a5.657,5.657,0,0,0-1.182,2.891v7.134l6.03-7.487Zm-2.9,9.207-.755.826v1.727l-.946,1.18V68.989l-.781.856,1.219-3.282Z"/><polygon class="ch" points="120.823 136.395 114.168 140.237 114.168 147.922 124.151 153.685 130.806 149.843 130.806 142.159 120.823 136.395"/><polygon class="da" points="114.168 147.922 114.168 140.237 124.151 146.001 124.151 153.685 114.168 147.922"/><polygon class="db" points="114.168 140.237 120.823 136.395 130.806 142.159 124.151 146.001 114.168 140.237"/><polygon class="dc" points="130.806 149.843 130.806 142.159 124.151 146.001 124.151 153.685 130.806 149.843"/><polygon class="ca" points="128.31 143.599 118.328 137.836 116.664 138.797 126.646 144.56 128.31 143.599"/><polygon class="cb" points="126.646 144.56 126.646 146.481 128.31 145.52 128.31 143.599 126.646 144.56"/><polygon class="cg" points="121.226 149.843 121.226 151.051 123.319 152.259 123.319 151.051 121.226 149.843"/><polygon class="dd" points="124.151 153.685 132.443 158.486 139.109 154.637 130.806 149.843 124.151 153.685"/><path class="de" d="M116.535,77.73a13.436,13.436,0,0,1-6.1,10.516c-3.367,1.944-6.1.387-6.1-3.476a13.433,13.433,0,0,1,6.1-10.516C113.805,72.31,116.535,73.866,116.535,77.73Z"/><path class="df" d="M105.7,93.645a5.2,5.2,0,0,1-2.637-.679c-1.89-1.091-2.931-3.367-2.931-6.409,0-6.206,4.4-13.8,9.807-16.917,2.673-1.543,5.2-1.787,7.1-.687,1.89,1.091,2.93,3.368,2.93,6.41,0,6.206-4.4,13.794-9.807,16.916A9.07,9.07,0,0,1,105.7,93.645Zm8.7-24.919a8.636,8.636,0,0,0-4.237,1.305c-5.283,3.05-9.581,10.463-9.581,16.526,0,2.874.961,5.012,2.705,6.019,1.76,1.016,4.123.772,6.651-.688,5.283-3.05,9.581-10.463,9.581-16.525,0-2.874-.96-5.012-2.705-6.019A4.761,4.761,0,0,0,114.4,68.726Z"/><path class="dg" d="M113.589,79.431a6.944,6.944,0,0,1-3.151,5.434c-1.74,1-3.15.2-3.15-1.8a6.943,6.943,0,0,1,3.15-5.435C112.178,76.63,113.589,77.434,113.589,79.431Z"/><ellipse class="dh" cx="136.407" cy="138.086" rx="12.266" ry="21.247" transform="translate(-2.416 273.743) rotate(-89.689)"/><path class="di" d="M142.358,134.719s.306,1.017.4,1.4a4.533,4.533,0,0,1-.157,1.308.8.8,0,0,1-.6.609,1.964,1.964,0,0,1-1.561-.282l-4.176-2.821a.52.52,0,0,1-.169-.677l.113-.212a.82.82,0,0,1,.925-.411,10.721,10.721,0,0,0,3.322.479A2.65,2.65,0,0,1,142.358,134.719Z"/><path class="dj" d="M142.488,131.694s-.013,2.987-.127,3.406-1.473.4-1.837-.5a17.871,17.871,0,0,1-.479-3.245Z"/><path class="dk" d="M137.054,136.391s.422.975.556,1.34a4.534,4.534,0,0,1-.006,1.317.8.8,0,0,1-.521.674,1.966,1.966,0,0,1-1.582-.1l-4.475-2.321a.521.521,0,0,1-.245-.653l.087-.224a.82.82,0,0,1,.872-.514A10.725,10.725,0,0,0,135.1,136,2.652,2.652,0,0,1,137.054,136.391Z"/><path class="dl" d="M137.333,133.7s-.013,2.987-.127,3.406-1.473.4-1.838-.5a17.939,17.939,0,0,1-.478-3.245Z"/><path class="dm" d="M144,101.8s-1.422,11.724-.931,14.821c.931,5.872-.219,15.078-.219,15.078a2.566,2.566,0,0,1-3.015,0s-1.36-19.571-3.794-23.724v-6.587l3.24-3.538,3.49-.615C143.83,97.7,144.192,100.65,144,101.8Z"/><path class="dn" d="M130.1,100.435s.558,8,1.719,16.038c1.093,7.568,2.786,15.135,3.028,17.358a1.119,1.119,0,0,0,.493.813,2.3,2.3,0,0,0,1.788.312.735.735,0,0,0,.575-.65c.253-2.469.385-13.724.377-15.756-.009-2.3,1.961-15.824,1.961-15.824l-.642-5.5Z"/><path class="do" d="M142.18,77.75a5,5,0,0,0-4.716-.8l-6.071,2.08s-2,7.536-2.339,9.976c-1.957,13.939.573,16.62.573,16.62.477,2.808,13.441.993,14.419-1.154.54-1.183,2.557-3.532.582-22.091A6.726,6.726,0,0,0,142.18,77.75Z"/><path class="dp" d="M127.063,85.887s-2.973,2.3-8.988-2.279c0,0-3.293-2.434-4.439-2.577s-3.055-.239-3.055-.239-.811.668.191.812c.543.077,1.3.239,1.874.371a.727.727,0,0,1,.528.905,1.8,1.8,0,0,0,.319,1.588c.859,1.145,3.015.573,3.015.573s5.052,5.441,7.293,6.021Z"/><path class="dq" d="M133.589,81.46s-.955-3.055-2.2-2.434-2.1,2.291-3.628,4.248-1.576,2.565-2.96,3.192c0,0,.043,3.218-1,4.6a5.408,5.408,0,0,0,3.262.805C128.722,91.628,134.353,87.523,133.589,81.46Z"/><path class="dr" d="M126.823,84.554c.247-.352.544-.769.942-1.28.3-.38.563-.744.817-1.1,4.913,3.846,12.9.511,15.8-1.072a7.511,7.511,0,0,1,.249,1.272c.086.8.161,1.567.232,2.311C141.831,86.614,132.974,91.278,126.823,84.554Z"/><path class="ds" d="M134.257,74.354l.383,3.714a.646.646,0,0,0,.538.568A3.875,3.875,0,0,0,138.066,78a1.164,1.164,0,0,0,.455-1.244l-.684-2.737Z"/><path class="dt" d="M130.654,70.109s.846,4.654,1.692,5.669,3.809.593,4.4,0,1.862-3.723,1.608-4.824S132.177,67.318,130.654,70.109Z"/><path class="du" d="M136.3,66.384c.655.241,1.3,1.411,2.482,1.58.834.119.677,1.41.452,3.667s-1.411,2.765-2.2,3.047-1.975-1.58-2.764-2.482a2.981,2.981,0,0,0-2.934-1.242c-1.411.17-2.878-.9-1.919-1.862s1.636-.62,2.426-1.128S133.781,65.459,136.3,66.384Z"/><polygon class="ch" points="103.948 148.554 97.698 152.162 97.698 159.379 107.073 164.792 113.323 161.184 113.323 153.967 103.948 148.554"/><polygon class="dv" points="97.698 159.379 97.698 152.162 107.073 157.575 107.073 164.792 97.698 159.379"/><polygon class="dw" points="97.698 152.162 103.948 148.554 113.323 153.967 107.073 157.575 97.698 152.162"/><polygon class="dx" points="113.323 161.184 113.323 153.967 107.073 157.575 107.073 164.792 113.323 161.184"/><polygon class="ca" points="110.979 155.32 101.604 149.907 100.041 150.809 109.417 156.222 110.979 155.32"/><polygon class="cb" points="109.417 156.222 109.417 158.026 110.979 157.124 110.979 155.32 109.417 156.222"/><polygon class="cg" points="104.326 161.184 104.326 162.318 106.292 163.453 106.292 162.318 104.326 161.184"/><polygon class="dy" points="107.073 164.792 114.861 169.301 121.122 165.686 113.323 161.184 107.073 164.792"/><ellipse class="dz" cx="47.656" cy="179.13" rx="30.606" ry="15.828"/><path class="ea" d="M68.3,120.022A2.256,2.256,0,0,1,70.465,119c.595.027,1.207.136,1.3.129.229-.018,1.4-1.014,1.878-.055a11.429,11.429,0,0,1-1.576,1C71.432,120.2,68.63,120.488,68.3,120.022Z"/><path class="eb" d="M72.114,120.218c-1.294-.2-2.106-1.358-3.167-.731a13.765,13.765,0,0,0-1.329.958,4.075,4.075,0,0,0,.664,2.166,1.553,1.553,0,0,1,.46-.129,6,6,0,0,1,2.5.516c1.347.447,1.585.433,3.664-1.063,1.522-1.1,2.351-1.709,2.091-2.514C76.394,117.539,73.991,119.955,72.114,120.218Z"/><path class="ec" d="M71.942,122.182c-1.294-.2-2.2-1.277-3.259-.651-.267.158-.51.314-.74.472a3.283,3.283,0,0,0,.339.608,1.553,1.553,0,0,1,.46-.129,6,6,0,0,1,2.5.516c1.347.447,1.585.433,3.664-1.063a7.279,7.279,0,0,0,2.009-1.759c.136-.247-.262-.526-.587-.293C74.658,121.081,73.82,121.92,71.942,122.182Z"/><path class="ed" d="M76.556,119.431c-.568.432-3.551,1.808-4.251,1.668-.188-.038-.158-.4-.177-.849-.143.3.034.966-.252.821-1.6-.814-2.291-.964-3.216-.378a3.307,3.307,0,0,1,1.829.132c.557.187,1.074.516,1.664.676A10.532,10.532,0,0,0,76.556,119.431Z"/><path class="ee" d="M68.028,119.888c-.1.048-.67.249-.8.3-.228.065-.442-.087-.672-.019-1.936.562-3.723,1.151-5.291,1.778a36.959,36.959,0,0,0-3.467,1.573c-.034-.086-.063-.171-.1-.259-.787-1.933-1.953-4.023-2.237-5.587a9.9,9.9,0,0,0-1.783-4.567,3.009,3.009,0,0,0-2.705-.853,8.3,8.3,0,0,0-2.445.918c1.505,7.287,4.179,12.18,5.8,13.688.211.2.521.532.845.848.555,1,1.542,1.225,2.852.824,3.865-1.181,8.065-3.431,9.52-4.934a2.747,2.747,0,0,1,.556-.533c.128-.047.751-.334.868-.374A4.069,4.069,0,0,1,68.028,119.888Z"/><path class="ef" d="M40.232,174.919a7.15,7.15,0,0,1-.2,1.021,11.847,11.847,0,0,0-.525,1.64c-.269,1.143.1,2.674-.262,4.291a1.769,1.769,0,0,0,.257,1.736,2.992,2.992,0,0,0,2.246,1.423,1.55,1.55,0,0,0,1.09-.529,2.6,2.6,0,0,0,.651-1.917,15.883,15.883,0,0,1-.17-2.205c.026-.792.171-1.228.153-2.1-.019-.918-.09-2.182-.1-2.774Z"/><path class="eg" d="M49.358,170.215a5.333,5.333,0,0,0-.51,2.3c.184.6.606.843,1.076,1.257l.332.073c.822.444,1.122,2,1.885,2.715a5.921,5.921,0,0,0,2.673.979c1.136.219,2.216-.1,1.92-1-.735-2.22-3.911-4.728-3.984-7.209Z"/><path class="eh" d="M54.126,154.39c-.082,4.253-1.24,11.983-1.1,16.175a2.672,2.672,0,0,1-3.739-.429c-.441-3.857-.955-9.039-1.006-11.156a16.4,16.4,0,0,1,.565-4.963c-.631-4.654-3.319-11-2.679-15.384.281-1.923,1.541-3.993,1.908-5.58,3.17,3.906,5.586,2.034,6.9,1.695-.008,1.349.095,1.169.051,2.587-.148,4.8-.371,9.918-.634,14.895A6.813,6.813,0,0,1,54.126,154.39Z"/><path class="ei" d="M47.065,157.484c-.764,4.254-2.927,13.981-3.458,18.173-1.372.762-3.125.364-3.61-.751-.016-3.857-.067-10.2.222-12.316a26.336,26.336,0,0,1,1.766-5.994c.115-4.655-1.359-11.134-.016-15.513.589-1.923,2.182-3.994,2.8-5.58.851,1.307,1.883,1.857,4.7,1.627.275-.022,2.62-1.7,3.394-1.89-.981,5.913-3.809,13.635-5.185,20.084A7.451,7.451,0,0,1,47.065,157.484Z"/><path class="ej" d="M41.5,116.361c.939-.564,3.269-2.2,5.308-3.271,2.686-1.417,5.4-1.847,7.134,1.278A14.732,14.732,0,0,1,55.437,122c-.043,1.293-.295,2.555-.44,3.966a25.492,25.492,0,0,0,.372,4.922c.077,1.133-.363,2.1-.224,3.007.019.568,0,1.087,0,1.5-.887,3.38-8.134,4.052-11.705,1.729a17.346,17.346,0,0,0-1.752-9.578c-1.274-2.69-2.7-5.622-2.747-7.683C38.9,118.187,40.284,117.09,41.5,116.361Z"/><path class="ek" d="M51.582,112.36c-3.129.97-5.228.96-7,1.938-3.154,1.746-6.269,3.747-6.135,5.852.222,3.52,3.689,6.895,4.608,12.359.589,3.5-1.177,7.286-2.4,10.209.218,2.045,3.71,3.221,6.072,2.511C50.1,135.148,51.8,129.273,45.57,115.96,44.8,114.307,49.932,114.034,51.582,112.36Z"/><path class="el" d="M55.049,135.227a78.175,78.175,0,0,0,.325-7.9,47.1,47.1,0,0,0,.111-7.3c-.336-3-1.066-6.414-3.158-7.576-1.023-.568-1.909-.344-4.671.5l.2,1.047c5.077,1.431,6.567,6.364,7,11.626C55.128,128.962,54.978,132.433,55.049,135.227Z"/><path class="em" d="M50.521,117.249c1.6,3.157.825,4.541-.2,6.846-1.115,2.511-.343,5.384.2,8.472a9.729,9.729,0,0,0,2.977,2.348,14.81,14.81,0,0,1,.685-3.888,8.541,8.541,0,0,1-1.256-4.847c.276-2.8,1.56-5.282-1.706-9.293.108-1.169-.074-1.392-.324-1.506-.293-.135-.057-.209-.858.07-.527.184-1.07.36-.849.928C49.356,116.815,49.605,116.959,50.521,117.249Z"/><path class="en" d="M50.018,114.1c.03-.16.068-.319.1-.491.1-.489-.03-1.438.1-2.558l-4.24-1.791a18.312,18.312,0,0,1-.9,4.844c.166,1.508,3.21,1.434,4.82,1.42a5.741,5.741,0,0,0,.064-.932A3.7,3.7,0,0,1,50.018,114.1Z"/><path class="eo" d="M49.9,115.524c.064-.514.039-1.168.124-1.7,0-.01,1.058.116,1.06.121a6.559,6.559,0,0,1,.65,2.037A1.856,1.856,0,0,0,49.9,115.524Z"/><path class="eo" d="M45.25,113.287c-.071,1.446,2.956,2.293,4.668,2.234a3.075,3.075,0,0,0-.487,1.77c-1.209-.021-3.261-.064-4.406-1.311A1.765,1.765,0,0,1,45.25,113.287Z"/><path class="ep" d="M50.262,113.991c-.521-.343-1.943-1.207-2.408-1.549-1.02-.748-.9-1.7-1.191-3.2a2.687,2.687,0,0,1-1.359-1.833,4.429,4.429,0,0,1,1.732-3.868,3.848,3.848,0,0,1,3.334-.681,4.444,4.444,0,0,1,3.564,4.477,1.4,1.4,0,0,1-.069.523,6.7,6.7,0,0,0-.225.782c-.128.624.294.85.126,1.625a11.748,11.748,0,0,1-1.463,3.458A3.74,3.74,0,0,1,50.262,113.991Z"/><path class="eq" d="M44.887,106.727a5.218,5.218,0,0,0,.858,2.332c.874,1.405,1.181.676,1.632-.315a1.35,1.35,0,0,0,.46.852c.15.082.454.194.466-.238.041-1.493.748-1.6.524-2.491-.167-.67-.126-.959.038-1.2.487.068.8.567,1.371.814s3.468.226,3.652-.452c.437-1.612-.647-3-2.162-3.785A4.577,4.577,0,0,0,44.887,106.727Z"/><path class="er" d="M51.342,109.2a1.7,1.7,0,0,1-1.483-.1A1.19,1.19,0,0,0,51.342,109.2Z"/><path class="er" d="M52.76,108.85a1.706,1.706,0,0,0,.973-.361,1.088,1.088,0,0,1-.947.444Z"/><path class="er" d="M52.311,108.8a21.493,21.493,0,0,0,1.055,2.113c.021.31-.405.389-.991.5.538-.181.8-.278.777-.5A14.912,14.912,0,0,1,52.311,108.8Z"/><path class="er" d="M53.49,108.707c-.043.235-.265.344-.442.181A1.214,1.214,0,0,0,53.49,108.707Z"/><path class="er" d="M51.112,109.275c-.084.257-.351.346-.525.135A1.4,1.4,0,0,0,51.112,109.275Z"/><path class="es" d="M46.977,107.985c-.918-.416-1.031.679-.949,1.358.056.467.437.47.538.844a.866.866,0,0,0,.72.7c.58.041.306-.853.271-1.2C47.679,109.133,47.559,108.249,46.977,107.985Z"/><path class="er" d="M52.767,112.161c-.1-.015-.137.029-.252.05a.886.886,0,0,0-.375.025,1.746,1.746,0,0,1-1.29-.07c.483.305,1.12.89,1.691.59.163-.085.165-.291.257-.374C52.867,112.32,52.96,112.192,52.767,112.161Z"/><path class="et" d="M52.707,112.358a2.136,2.136,0,0,1-1.436.01,2.035,2.035,0,0,0,1.36.184l.07-.172Z"/><path class="eu" d="M42.435,136.852c.458.238,1.277.446,1.612.618.174.089,1.42.756,2.123,1.166.751.437,1,1.123,1.48,1.871a4.891,4.891,0,0,1,.575,1.376c.068.324-.723,1.007-1.081.951-.814-.125-1.7-1.057-1.916-1.154-1.857-.815-2.723-.852-3.421-1.551-.3-.3-.527-1.214-1.154-2.009l1.038-1.069Z"/><path class="ev" d="M42.04,124.316c.257-.5.4-.747.648-1.26,1.05-2.18,0-4.637-1.536-5.188-.9-.325-1.908-.094-2.922,1.529-1.656,2.651-2.946,6.911-4.416,10.178a2.063,2.063,0,0,0-.183.705,2.345,2.345,0,0,0,.708,2.2,23.84,23.84,0,0,0,5.307,5.467,1.714,1.714,0,0,0,.741.219c.178.129.43.365.62.5-.242-.273,1-1.824,1.611-1.767-.168-.182-.34-.381-.516-.592a1.874,1.874,0,0,0-.175-.682,28.755,28.755,0,0,0-3.752-4.966c.658-.857,1.217-1.852,1.677-2.556A42.491,42.491,0,0,0,42.04,124.316Z"/><polygon class="ew" points="78.028 107.573 70.78 116.62 73.539 115.018 81.417 106.39 78.028 107.573"/><polygon class="ex" points="76.405 106.692 68.547 115.331 70.78 116.62 78.657 107.992 76.405 106.692"/><polygon class="ey" points="79.164 105.089 76.405 106.692 78.657 107.992 81.417 106.39 79.164 105.089"/><path class="ez" d="M79.207,115.231c-2-2.287-3.68-.92-3.053,1.832.3,1.3,1.564,3.246,3.038,3.261a1.089,1.089,0,0,0,1.1-.873A4.807,4.807,0,0,0,79.207,115.231Z"/><path class="fa" d="M83.285,114.107a6.135,6.135,0,0,0-2.081-2.318c-.055-.036-.112-.071-.17-.105l-.04-.023a2.224,2.224,0,0,0-2.189-.285l-2.759,1.6c3.025-.8,5.918,5.917,4.354,8.465l2.76-1.6a1.156,1.156,0,0,0,.179-.126,2.837,2.837,0,0,0,.764-2.048A7.175,7.175,0,0,0,83.285,114.107Z"/><path class="fb" d="M79.077,119.306c-.186.289-.471.323-.86.1a1.983,1.983,0,0,1-.857-1.09,5.087,5.087,0,0,1-.271-1.742,2.751,2.751,0,0,1,.281-1.43c.184-.286.471-.316.86-.093a1.986,1.986,0,0,1,.856,1.083,4.988,4.988,0,0,1,.27,1.749,2.783,2.783,0,0,1-.279,1.425Zm2.089-1.859a6.865,6.865,0,0,0-.57-1.6,6.953,6.953,0,0,0-.976-1.449,5.439,5.439,0,0,0-1.385-1.134,2.985,2.985,0,0,0-1.4-.474,1.427,1.427,0,0,0-.977.322,1.977,1.977,0,0,0-.568.94,4.617,4.617,0,0,0-.19,1.371A6.976,6.976,0,0,0,75.282,117a7.16,7.16,0,0,0,.561,1.582,6.673,6.673,0,0,0,.971,1.444,5.467,5.467,0,0,0,1.4,1.143,2.932,2.932,0,0,0,1.387.464,1.445,1.445,0,0,0,.981-.317,1.9,1.9,0,0,0,.578-.924,4.5,4.5,0,0,0,.191-1.364A7.009,7.009,0,0,0,81.166,117.447Z"/><path class="fc" d="M69.943,104.183c-2-2.288-3.68-.921-3.053,1.832.3,1.3,1.565,3.246,3.038,3.26a1.09,1.09,0,0,0,1.1-.873A4.809,4.809,0,0,0,69.943,104.183Z"/><path class="fd" d="M74.021,103.058a6.141,6.141,0,0,0-2.08-2.318c-.055-.035-.113-.07-.17-.1l-.041-.024a2.224,2.224,0,0,0-2.189-.284l-2.758,1.6c3.024-.8,5.918,5.918,4.354,8.466l2.76-1.6a1.227,1.227,0,0,0,.178-.127,2.837,2.837,0,0,0,.764-2.048A7.177,7.177,0,0,0,74.021,103.058Z"/><path class="fe" d="M69.813,108.257c-.185.289-.471.323-.86.1a1.982,1.982,0,0,1-.856-1.089,5.072,5.072,0,0,1-.272-1.743,2.761,2.761,0,0,1,.281-1.43c.184-.286.471-.316.86-.093a1.984,1.984,0,0,1,.856,1.084,4.978,4.978,0,0,1,.27,1.748,2.773,2.773,0,0,1-.279,1.425ZM71.9,106.4a6.868,6.868,0,0,0-.571-1.6,6.94,6.94,0,0,0-.976-1.449,5.443,5.443,0,0,0-1.385-1.134,2.985,2.985,0,0,0-1.4-.474,1.423,1.423,0,0,0-.976.323,1.974,1.974,0,0,0-.568.939,4.616,4.616,0,0,0-.191,1.371,7.033,7.033,0,0,0,.182,1.579,7.212,7.212,0,0,0,.561,1.582,6.673,6.673,0,0,0,.971,1.444,5.467,5.467,0,0,0,1.4,1.143,2.939,2.939,0,0,0,1.387.464,1.449,1.449,0,0,0,.982-.317,1.9,1.9,0,0,0,.578-.924,4.5,4.5,0,0,0,.19-1.364A7.063,7.063,0,0,0,71.9,106.4Z"/><path class="ff" d="M61.708,160.531c-3.5,2.018-3.515,5.314-.039,7.333a13.99,13.99,0,0,0,12.661,0c3.5-2.019,3.517-5.314.041-7.333A13.982,13.982,0,0,0,61.708,160.531Z"/><path class="fg" d="M61.577,166.633a12.349,12.349,0,0,0,12.347.192,5.075,5.075,0,0,0,2.622-4.232h.007l0-.136,0-.062.107-3.384-2.383-.019c-.083-.056-.158-.119-.246-.171h0a12.349,12.349,0,0,0-12.347-.192h0c-.141.079-.269.171-.4.259l-2.092-.016-.093,2.942a5.263,5.263,0,0,0-.017.533l0,.106h.008A5.069,5.069,0,0,0,61.577,166.633Z"/><path class="fh" d="M74.174,154.833h0a5.134,5.134,0,0,1-.138,8.891h0a12.349,12.349,0,0,1-12.347-.192h0a5.133,5.133,0,0,1,.138-8.89h0A12.349,12.349,0,0,1,74.174,154.833Z"/><path class="fi" d="M71.726,156.539h0a3.12,3.12,0,0,1-.084,5.4h0a7.5,7.5,0,0,1-7.5-.116h0a3.12,3.12,0,0,1,.084-5.4h0A7.5,7.5,0,0,1,71.726,156.539Z"/><line class="fj" x1="66.654" y1="155.575" x2="67.827" y2="160.242"/><line class="fj" x1="64.519" y1="156.298" x2="65.172" y2="158.896"/><path class="fk" d="M61.577,162.97a12.349,12.349,0,0,0,12.347.192,5.072,5.072,0,0,0,2.622-4.231h.007l0-.136,0-.062.107-3.384-2.383-.019c-.083-.056-.158-.118-.246-.171h0a12.346,12.346,0,0,0-12.347-.191h0c-.141.079-.269.171-.4.259L59.2,155.21l-.093,2.942a5.272,5.272,0,0,0-.017.533l0,.107h.008A5.069,5.069,0,0,0,61.577,162.97Z"/><path class="fl" d="M74.174,151.171h0a5.134,5.134,0,0,1-.138,8.891h0a12.349,12.349,0,0,1-12.347-.192h0a5.134,5.134,0,0,1,.138-8.891h0A12.349,12.349,0,0,1,74.174,151.171Z"/><path class="fm" d="M71.726,152.876h0a3.121,3.121,0,0,1-.084,5.405h0a7.507,7.507,0,0,1-7.5-.117h0a3.12,3.12,0,0,1,.084-5.4h0A7.507,7.507,0,0,1,71.726,152.876Z"/><line class="fj" x1="66.654" y1="151.912" x2="67.827" y2="156.579"/><line class="fj" x1="64.519" y1="152.636" x2="65.172" y2="155.233"/><path class="fn" d="M60.249,159.834a12.347,12.347,0,0,0,12.346.192,5.073,5.073,0,0,0,2.623-4.231h.006l0-.136,0-.062.107-3.384-2.383-.019c-.083-.056-.158-.118-.246-.171h0a12.349,12.349,0,0,0-12.347-.192h0c-.141.079-.268.171-.4.259l-2.092-.016-.093,2.942a5.272,5.272,0,0,0-.017.533l0,.106h.008A5.068,5.068,0,0,0,60.249,159.834Z"/><path class="fo" d="M72.845,148.035h0a5.133,5.133,0,0,1-.138,8.89h0a12.346,12.346,0,0,1-12.347-.191h0a5.134,5.134,0,0,1,.139-8.891h0A12.347,12.347,0,0,1,72.845,148.035Z"/><path class="fp" d="M70.4,149.74h0a3.121,3.121,0,0,1-.084,5.405h0a7.507,7.507,0,0,1-7.505-.117h0a3.121,3.121,0,0,1,.084-5.4h0A7.507,7.507,0,0,1,70.4,149.74Z"/><line class="fj" x1="65.325" y1="148.776" x2="66.498" y2="153.443"/><line class="fj" x1="63.19" y1="149.499" x2="63.843" y2="152.097"/><path class="fq" d="M60.847,155.463a12.351,12.351,0,0,0,12.347.192,5.077,5.077,0,0,0,2.622-4.232h.006l0-.136,0-.063.107-3.383-2.383-.019c-.082-.056-.158-.119-.245-.171h0a12.349,12.349,0,0,0-12.347-.192h0c-.142.079-.269.171-.4.259l-2.093-.016-.093,2.942a5.263,5.263,0,0,0-.016.533l0,.106h.008A5.067,5.067,0,0,0,60.847,155.463Z"/><path class="fr" d="M73.444,143.663h0a5.134,5.134,0,0,1-.138,8.891h0a12.349,12.349,0,0,1-12.347-.192h0a5.133,5.133,0,0,1,.138-8.89h0A12.349,12.349,0,0,1,73.444,143.663Z"/><path class="fs" d="M71,145.369h0a3.12,3.12,0,0,1-.084,5.4h0a7.5,7.5,0,0,1-7.505-.116h0a3.12,3.12,0,0,1,.084-5.4h0A7.5,7.5,0,0,1,71,145.369Z"/><line class="fj" x1="65.924" y1="144.405" x2="67.097" y2="149.072"/><line class="fj" x1="63.789" y1="145.128" x2="64.442" y2="147.726"/><path class="ft" d="M80.572,169.414c-3.5,2.017-3.515,5.313-.039,7.332a13.982,13.982,0,0,0,12.66,0c3.5-2.019,3.517-5.313.041-7.332A13.973,13.973,0,0,0,80.572,169.414Z"/><path class="fu" d="M80.441,175.515a12.349,12.349,0,0,0,12.347.192,5.074,5.074,0,0,0,2.622-4.231h.006l0-.136,0-.062.106-3.384-2.383-.019c-.082-.056-.158-.118-.245-.171h0a12.351,12.351,0,0,0-12.347-.191h0c-.142.079-.269.17-.4.259l-2.093-.017-.093,2.942a5.271,5.271,0,0,0-.016.533l0,.107h.008A5.067,5.067,0,0,0,80.441,175.515Z"/><path class="fv" d="M93.038,163.716h0a5.134,5.134,0,0,1-.138,8.891h0a12.349,12.349,0,0,1-12.347-.192h0a5.134,5.134,0,0,1,.138-8.891h0A12.349,12.349,0,0,1,93.038,163.716Z"/><path class="fw" d="M90.59,165.422h0a3.12,3.12,0,0,1-.084,5.4h0a7.5,7.5,0,0,1-7.5-.117h0a3.12,3.12,0,0,1,.084-5.4h0A7.507,7.507,0,0,1,90.59,165.422Z"/><line class="fj" x1="85.518" y1="164.457" x2="86.691" y2="169.124"/><line class="fj" x1="83.383" y1="165.181" x2="84.036" y2="167.778"/><path class="fx" d="M80.441,171.853a12.349,12.349,0,0,0,12.347.191,5.074,5.074,0,0,0,2.622-4.231h.006l0-.136,0-.063.106-3.383-2.383-.019c-.082-.056-.158-.119-.245-.171h0a12.349,12.349,0,0,0-12.347-.192h0c-.142.079-.269.17-.4.259l-2.093-.017-.093,2.943a5.254,5.254,0,0,0-.016.533l0,.106h.008A5.067,5.067,0,0,0,80.441,171.853Z"/><path class="fy" d="M93.038,160.053h0a5.134,5.134,0,0,1-.138,8.891h0a12.349,12.349,0,0,1-12.347-.192h0a5.133,5.133,0,0,1,.138-8.89h0A12.346,12.346,0,0,1,93.038,160.053Z"/><path class="fz" d="M90.59,161.759h0a3.12,3.12,0,0,1-.084,5.4h0a7.507,7.507,0,0,1-7.5-.116h0a3.121,3.121,0,0,1,.084-5.405h0A7.507,7.507,0,0,1,90.59,161.759Z"/><line class="fj" x1="85.518" y1="160.795" x2="86.691" y2="165.462"/><line class="fj" x1="83.383" y1="161.518" x2="84.036" y2="164.116"/><path class="ga" d="M62.571,175.465c-3.5,2.017-3.515,5.313-.039,7.332a13.99,13.99,0,0,0,12.661,0c3.5-2.019,3.517-5.313.041-7.332A13.975,13.975,0,0,0,62.571,175.465Z"/><path class="gb" d="M62.44,181.566a12.349,12.349,0,0,0,12.347.192,5.072,5.072,0,0,0,2.622-4.231h.007l0-.136,0-.062.107-3.384-2.383-.019c-.083-.056-.158-.118-.246-.171h0a12.346,12.346,0,0,0-12.347-.191h0c-.142.079-.269.171-.4.259l-2.092-.016-.093,2.942a5.272,5.272,0,0,0-.017.533l0,.107h.008A5.069,5.069,0,0,0,62.44,181.566Z"/><path class="gc" d="M75.037,169.767h0a5.134,5.134,0,0,1-.138,8.891h0a12.349,12.349,0,0,1-12.347-.192h0a5.134,5.134,0,0,1,.138-8.891h0A12.349,12.349,0,0,1,75.037,169.767Z"/><path class="gd" d="M72.589,171.472h0a3.121,3.121,0,0,1-.084,5.405h0a7.507,7.507,0,0,1-7.5-.117h0a3.12,3.12,0,0,1,.084-5.4h0A7.507,7.507,0,0,1,72.589,171.472Z"/><line class="fj" x1="67.517" y1="170.508" x2="68.69" y2="175.175"/><line class="fj" x1="65.382" y1="171.232" x2="66.035" y2="173.829"/><path class="ge" d="M62.44,177.9a12.351,12.351,0,0,0,12.347.191,5.072,5.072,0,0,0,2.622-4.231h.007l0-.135,0-.063.107-3.384-2.383-.018c-.083-.057-.158-.119-.246-.171h0a12.349,12.349,0,0,0-12.347-.192h0c-.142.079-.269.17-.4.259l-2.092-.017-.093,2.943a5.243,5.243,0,0,0-.017.532l0,.107h.008A5.072,5.072,0,0,0,62.44,177.9Z"/><path class="gf" d="M75.037,166.1h0A5.134,5.134,0,0,1,74.9,175h0a12.349,12.349,0,0,1-12.347-.192h0a5.134,5.134,0,0,1,.138-8.891h0A12.349,12.349,0,0,1,75.037,166.1Z"/><path class="gg" d="M72.589,167.81h0a3.12,3.12,0,0,1-.084,5.4h0A7.5,7.5,0,0,1,65,173.1h0a3.12,3.12,0,0,1,.084-5.4h0A7.507,7.507,0,0,1,72.589,167.81Z"/><line class="fj" x1="67.517" y1="166.845" x2="68.69" y2="171.512"/><line class="fj" x1="65.382" y1="167.569" x2="66.035" y2="170.166"/><path class="gh" d="M61.112,174.767a12.347,12.347,0,0,0,12.346.192,5.072,5.072,0,0,0,2.622-4.231h.007l0-.136,0-.062.107-3.384-2.383-.019c-.083-.056-.158-.118-.246-.171h0a12.351,12.351,0,0,0-12.347-.191h0c-.141.079-.268.17-.4.259l-2.092-.017-.093,2.942a5.272,5.272,0,0,0-.017.533l0,.107h.008A5.068,5.068,0,0,0,61.112,174.767Z"/><path class="gi" d="M73.708,162.968h0a5.134,5.134,0,0,1-.138,8.891h0a12.349,12.349,0,0,1-12.347-.192h0a5.134,5.134,0,0,1,.138-8.891h0A12.349,12.349,0,0,1,73.708,162.968Z"/><path class="gj" d="M71.26,164.674h0a3.12,3.12,0,0,1-.084,5.4h0a7.507,7.507,0,0,1-7.505-.117h0a3.121,3.121,0,0,1,.084-5.4h0A7.5,7.5,0,0,1,71.26,164.674Z"/><line class="fj" x1="66.188" y1="163.709" x2="67.361" y2="168.376"/><line class="fj" x1="64.053" y1="164.433" x2="64.706" y2="167.03"/></svg>